<?xml version="1.0" encoding="UTF-8" standalone="no"?>
<svg width="162px" height="162px" viewBox="0 0 162 162" version="1.1" xmlns="http://www.w3.org/2000/svg" xmlns:xlink="http://www.w3.org/1999/xlink" xmlns:sketch="http://www.bohemiancoding.com/sketch/ns">
    <!-- Generator: Sketch 3.3.3 (12081) - http://www.bohemiancoding.com/sketch -->
    <title>anniversary</title>
    <desc>Created with Sketch.</desc>
    <defs></defs>
    <g id="Page-1" stroke="none" stroke-width="1" fill="none" fill-rule="evenodd" sketch:type="MSPage">
        <g id="Ocean-Profile-Set-Up-08-Copy-3" sketch:type="MSArtboardGroup" transform="translate(-632.000000, -296.000000)" fill="#FFFFFF">
            <g id="anniversary" sketch:type="MSLayerGroup" transform="translate(632.000000, 296.000000)">
                <path d="M81,162 C125.735065,162 162,125.735065 162,81 C162,36.2649353 125.735065,0 81,0 C36.2649353,0 0,36.2649353 0,81 C0,125.735065 36.2649353,162 81,162 Z" id="Oval-95" fill-opacity="0.15" sketch:type="MSShapeGroup"></path>
                <g id="Group" transform="translate(34.000000, 37.000000)" sketch:type="MSShapeGroup">
                    <path d="M77.2416667,82.3022326 C76.2651667,78.053 74.5012667,70.4372907 73.6704667,67.2953837 C72.8024667,64.0127326 70.4113333,55.9851395 69.2002667,51.9470233 C59.2627,51.6800233 52.9356,27.758686 49.6,15.1403488 C49.6,15.1403488 56.1833667,14.5949651 60.8891667,13.3510349 C65.5949667,12.1008953 71.5852,9.31395349 71.5852,9.31395349 C74.9208,21.9333256 81.2365333,45.8588023 72.7301333,51.0114884 C73.6725333,55.1230814 75.5573333,63.2821047 76.4263667,66.5657907 C77.2551,69.7066628 79.484,77.198186 80.7353667,81.3770465 C87.0976,79.8723256 92.256,79.6518953 92.597,80.9496395 C92.9731333,82.3674302 87.4830333,85.0529535 80.3365,86.9467907 C73.1899667,88.8416628 67.0943333,89.2266395 66.7171667,87.8088488 C66.3761667,86.5100698 70.9672667,84.1463953 77.2416667,82.3022326 L77.2416667,82.3022326 Z" id="Shape"></path>
                    <path d="M14.95555,80.2790349 C16.63885,76.2564419 19.67065,69.0526163 21.0212166,66.0990581 C22.43275,63.012 26.1517166,55.509093 28.03135,51.7338372 C37.8697166,53.1630116 48.1648166,30.6677442 53.5929166,18.7996977 C53.5929166,18.7996977 47.19865,17.1407791 42.77185,15.1134419 C38.34815,13.0798953 32.91695,9.31395349 32.91695,9.31395349 C27.4898833,21.1830349 17.2051166,43.6834767 24.7122833,50.2104884 C23.0858166,54.1016512 19.8421833,61.8218837 18.4296166,64.9089419 C17.0780166,67.8635349 13.6122166,74.8676279 11.66955,78.7722442 C5.65451662,76.2067674 0.608749957,75.1108256 0.0507499565,76.3309535 C-0.55891671,77.6649186 4.39488329,81.2456163 11.1156833,84.3295698 C17.8364833,87.4135233 23.7802166,88.831314 24.3898833,87.4973488 C24.9489166,86.2751512 20.8248833,83.1653256 14.95555,80.2790349 L14.95555,80.2790349 Z" id="Shape"></path>
                    <path d="M51.5562894,7.79954956 C47.4737467,-0.447912941 59.8416288,-3.75756933 51.5562894,7.79954956 L51.5562894,7.79954956 L51.5562894,7.79954956 Z" id="Shape"></path>
                    <path d="M50.1897454,9.13862724 C36.2539964,11.3445567 37.0896847,-8.3212966 50.1897454,9.13862724 L50.1897454,9.13862724 L50.1897454,9.13862724 Z" id="Shape"></path>
                </g>
            </g>
        </g>
    </g>
</svg>