<?xml version="1.0" encoding="UTF-8" standalone="no"?>
<svg width="189px" height="147px" viewBox="0 0 189 147" version="1.1" xmlns="http://www.w3.org/2000/svg" xmlns:xlink="http://www.w3.org/1999/xlink" xmlns:sketch="http://www.bohemiancoding.com/sketch/ns">
    <!-- Generator: Sketch 3.3.3 (12081) - http://www.bohemiancoding.com/sketch -->
    <title>birthday</title>
    <desc>Created with Sketch.</desc>
    <defs></defs>
    <g id="READY-TO-BOARD" stroke="none" stroke-width="1" fill="none" fill-rule="evenodd" sketch:type="MSPage">
        <g id="Ocean-Profile-Set-Up-08-Copy-3" sketch:type="MSArtboardGroup" transform="translate(-414.000000, -320.000000)">
            <g id="birthday" sketch:type="MSLayerGroup" transform="translate(414.000000, 320.000000)">
                <g id="motorcoach-copy">
                    <g id="Upload-Scanned-Passp-+-noun_185598_cc-+-Rectangle-64-+-1">
                        <g id="Upload-Scanned-Passp-+-noun_185598_cc-+-Rectangle-64">
                            <g id="Upload-Scanned-Passp-+-noun_185598_cc" transform="translate(72.999385, 19.455882)" font-weight="260" font-family="Gotham" fill="#FFFFFF" font-size="10.08" sketch:alignment="middle" sketch:type="MSTextLayer">
                                <text id="Birthday">
                                    <tspan x="0.663061591" y="8">Birthday</tspan>
                                </text>
                            </g>
                            <rect id="Rectangle-64" stroke="#FFFFFF" stroke-width="0.72" sketch:type="MSShapeGroup" x="0" y="0" width="189" height="147" rx="7.2"></rect>
                        </g>
                    </g>
                </g>
                <g id="noun_33119_cc" transform="translate(56.059322, 50.331522)" fill="#FFFFFF" sketch:type="MSShapeGroup">
                    <path d="M75.0844818,72.9359587 C74.4297999,72.281985 73.5563073,71.9222559 72.6267991,71.9222559 L67.550389,71.9222559 L67.550389,58.9108874 C68.1210475,59.1431397 68.6759517,59.267124 69.2107252,59.267124 C69.5827035,59.267124 69.9468047,59.2103706 70.2995276,59.097737 C72.2898305,58.4638453 73.1536955,56.2731646 73.371631,55.6165716 C73.6412059,54.8036885 73.4285218,54.1986101 73.2018338,53.8327691 C72.8657405,53.2861903 72.3055849,52.9622594 71.8242012,52.7710442 L71.8242012,43.9672844 C71.8469575,43.8860834 71.8592109,43.8013899 71.8592109,43.7132038 C71.8592109,43.6180328 71.845207,43.5254811 71.816324,43.4390413 C71.6710336,40.2433892 69.0050431,37.6877406 65.7447624,37.6877406 L59.8526257,37.6877406 L59.8526257,30.8397897 C59.8526257,28.7111012 58.2973187,26.95 56.2615032,26.5972559 C56.9065574,25.9598717 59.1673104,23.6277441 59.7983607,21.643995 C60.2412337,20.2522274 60.1913448,17.9279579 59.083287,15.8734854 C57.5743679,13.0742338 56.3884134,10.0462224 56.37616,10.016536 C56.1074604,9.32414469 54.9442623,9.32414469 54.6746874,10.016536 C54.662434,10.0479686 53.4773548,13.0742338 51.9675604,15.8717391 C50.8595026,17.9279579 50.8096138,20.2522274 51.2524868,21.643995 C51.8800361,23.6225053 54.1364129,25.9520135 54.788469,26.5963828 C52.7535288,26.9473806 51.1973465,28.709355 51.1973465,30.8389166 L51.1973465,37.6868674 L42.7521256,37.6868674 L42.7521256,24.8667142 C42.7521256,22.6908767 41.1250486,20.9053279 39.0235899,20.6102103 C39.0533482,20.5840164 39.0909836,20.5674269 39.1172409,20.5377406 C39.7903029,19.8732894 42.537691,17.0705453 43.2781467,14.7410371 C43.7840372,13.1423378 43.7262712,10.46969 42.451042,8.10525659 C40.6786746,4.81792587 39.2870381,1.26603706 39.2730342,1.2311119 C39.0043345,0.538720599 37.8385107,0.538720599 37.5698111,1.2311119 C37.5558072,1.26691019 36.1676716,4.81530649 34.3918033,8.10525659 C33.1174493,10.4705631 33.058808,13.1423378 33.5646985,14.7427833 C34.2920256,17.0303813 36.9571409,19.7763721 37.6879689,20.5010691 C37.7247291,20.5508375 37.7921228,20.5683001 37.8385107,20.6093371 C35.73005,20.8965966 34.0959711,22.6856379 34.0959711,24.8667142 L34.0959711,37.6877406 L25.6489997,37.6877406 L25.6489997,30.8397897 C25.6489997,28.7111012 24.0936927,26.95 22.0587524,26.5972559 C22.8280911,25.833268 24.9820645,23.5718639 25.5956099,21.6422488 C26.0367324,20.2504811 25.9868436,17.9279579 24.8805363,15.8717391 C23.3698666,13.0742338 22.1856627,10.0479686 22.1734093,10.016536 C21.9047096,9.32414469 20.7388858,9.32414469 20.4701862,10.016536 C20.4579328,10.0479686 19.2754793,13.068995 17.7630592,15.8734854 C16.6567519,17.9279579 16.606863,20.2504811 17.0479856,21.643995 C17.65803,23.5631326 19.7997499,25.8158054 20.5857183,26.5963828 C18.550778,26.9465075 16.9945957,28.709355 16.9945957,30.8389166 L16.9945957,37.6868674 L11.1943595,37.6868674 C9.90337594,37.6868674 8.69466518,38.0422309 7.6942623,38.7110478 C6.02254793,39.836511 5.02389553,41.738186 5.02389553,43.8013899 L5.02389553,52.7649323 C4.51888024,52.9491625 3.8948319,53.2792053 3.531606,53.8711867 C3.30666852,54.2370278 3.09398444,54.8447256 3.36180884,55.6549893 C3.57799389,56.3080898 4.4348569,58.495278 6.42866074,59.1344084 C6.7831342,59.2479152 7.14898583,59.3037954 7.52271464,59.3037954 C8.0942484,59.3037954 8.68941373,59.1571098 9.30033343,58.8925517 L9.30033343,71.9205096 L4.21867185,71.9205096 C2.30276466,71.9205096 0.744831898,73.472933 0.744831898,75.3824661 C0.744831898,77.2919993 2.30276466,78.8461689 4.21867185,78.8461689 L72.6311753,78.8461689 C74.5435816,78.8461689 76.0997638,77.2919993 76.0997638,75.3824661 C76.0997638,74.4586957 75.7382884,73.5899323 75.0844818,72.9359587 L75.0844818,72.9359587 Z M65.7377605,57.8168567 L65.7377605,71.9205096 L11.1129619,71.9205096 L11.1129619,57.8151105 C11.4989442,57.5374555 11.869172,57.2248753 12.2157683,56.8808624 L15.3885246,53.7157698 C16.0790914,53.0303635 17.4462212,53.026871 18.1324118,53.7157698 L21.3069186,56.8808624 C22.1322729,57.7077156 23.1037927,58.3538311 24.1890942,58.8043656 C25.2603918,59.2479152 26.406085,59.4740556 27.590289,59.4740556 C29.970075,59.4740556 32.2010697,58.5537776 33.8719089,56.8808624 L37.0464157,53.7157698 C37.7369825,53.0286172 39.1058627,53.0321098 39.7999305,53.7157698 L42.9709364,56.8808624 C43.8015421,57.7129544 44.7713115,58.3590699 45.849611,58.8043656 C49.0810086,60.1376336 53.0274799,59.3858696 55.5341762,56.8808624 L58.7174354,53.7140235 C59.3957488,53.0251247 60.7733815,53.0303635 61.4613226,53.7157698 L64.6340789,56.8826087 C64.9815504,57.2248753 65.3500278,57.5374555 65.7377605,57.8168567 L65.7377605,57.8168567 Z M53.5657544,16.7317712 C54.3447208,15.2867427 55.0300361,13.8120278 55.5271742,12.6778332 C56.0243123,13.8120278 56.7096277,15.2867427 57.4868436,16.7317712 C58.3970964,18.4204027 58.3349542,20.2679437 58.071506,21.0982894 C57.7135315,22.2237527 56.4943179,23.7264077 55.5254237,24.7601924 C54.5591553,23.7272808 53.3390664,22.2237527 52.981092,21.0982894 C52.7176438,20.2679437 52.6555015,18.4204027 53.5657544,16.7317712 L53.5657544,16.7317712 Z M53.0117255,30.8406629 C53.0117255,29.4576265 54.1399139,28.3321632 55.5245485,28.3321632 C56.9126841,28.3321632 58.042623,29.4576265 58.042623,30.8406629 L58.042623,37.6886137 L53.0126007,37.6886137 L53.0126007,30.8406629 L53.0117255,30.8406629 Z M35.2933037,14.1970777 C34.9782162,13.197345 34.90207,10.9787242 35.989122,8.96354241 C36.975521,7.13346401 37.832384,5.26147541 38.4214226,3.90288667 C39.0113365,5.26147541 39.8681995,7.13346401 40.8537233,8.96354241 C41.9407752,10.9787242 41.8646291,13.197345 41.5495415,14.1953314 C41.11192,15.573129 39.5802445,17.4328938 38.4205474,18.6605132 C37.2626007,17.4328938 35.7326757,15.573129 35.2933037,14.1970777 L35.2933037,14.1970777 Z M35.9094749,24.8667142 C35.9094749,23.4836778 37.0376632,22.3582145 38.4240483,22.3582145 C39.8121839,22.3582145 40.9403723,23.4836778 40.9403723,24.8667142 L40.9403723,37.6877406 L35.9103501,37.6877406 L35.9103501,24.8667142 L35.9094749,24.8667142 Z M19.3603779,16.7317712 C20.1393443,15.2867427 20.8246596,13.8102815 21.3217977,12.676087 C21.8189358,13.8102815 22.5042512,15.2867427 23.2832176,16.7300249 C24.1917199,18.4186565 24.1295777,20.2679437 23.86788,21.0982894 C23.5300361,22.1600143 22.3948458,23.6120278 21.3217977,24.7575731 C20.2522506,23.6163934 19.1135593,22.1608874 18.7757155,21.1000356 C18.5140178,20.2679437 18.4518755,18.4186565 19.3603779,16.7317712 L19.3603779,16.7317712 Z M18.8080995,30.8406629 C18.8080995,29.4576265 19.9362879,28.3321632 21.3209225,28.3321632 C22.7090581,28.3321632 23.8363712,29.4576265 23.8363712,30.8406629 L23.8363712,37.6886137 L18.8080995,37.6886137 L18.8080995,30.8406629 L18.8080995,30.8406629 Z M6.83739928,43.8031361 C6.83739928,42.3423913 7.53671853,41.000392 8.70691859,40.2137028 C9.41499028,39.7387206 10.2525979,39.4968639 11.1943595,39.4968639 L65.7465129,39.4968639 C68.0589053,39.4968639 70.0115727,41.4273521 70.0115727,43.7132038 L70.0115727,52.3109052 C69.7936371,52.1904134 69.5792026,52.0227726 69.3638927,51.8079829 L66.3005418,48.7502851 C66.1692553,48.6175695 66.0335927,48.485727 65.9250625,48.404526 C65.833162,48.3250713 65.7263823,48.2491091 65.6169769,48.1714006 C65.5513337,48.1251247 65.4489303,48.0535282 65.3780356,47.9793122 C65.0524451,47.6632395 64.623576,47.4423378 64.1666991,47.2074661 C63.7474576,46.9883108 63.3098361,46.813685 62.8564601,46.6669993 C61.5549736,46.2470242 60.1939705,46.1212937 58.8443457,46.3046507 C57.3818144,46.5063435 55.9814254,47.0799893 54.7910947,47.9653421 C54.277327,48.350392 53.8405807,48.7782252 53.3644485,49.2566999 L50.6853293,51.9258553 C50.1986941,52.411315 49.5588914,52.6234854 48.898958,52.5178368 C48.4762156,52.4436208 48.1164907,52.2192267 47.6149764,51.7215431 L44.8684635,48.9834105 C43.2256321,47.3462937 41.2248263,46.3998218 39.0962351,46.2435317 C38.8590442,46.2225766 38.6218533,46.2138453 38.3864129,46.2138453 C36.079272,46.2138453 33.786135,47.179526 32.0977911,48.864665 L29.3180189,51.6359765 C29.0011809,51.9555417 28.7263545,52.2314505 28.407766,52.3763899 C27.6909419,52.6977014 26.7561823,52.5335531 26.2109058,51.9861012 L23.479272,49.2514612 C23.2333287,49.0008731 22.9838844,48.7502851 22.71606,48.5093015 C21.6185051,47.5479865 20.3914143,46.8809159 19.0706724,46.5238061 C16.7320228,45.8916607 14.1290497,46.2784569 12.0590997,47.5680684 C11.0779522,48.18799 10.2867324,48.9921418 9.52176994,49.7692267 L7.56560156,51.7294013 C7.31440678,51.9817356 7.08071687,52.1694583 6.83652403,52.3013008 L6.83652403,43.8031361 L6.83739928,43.8031361 Z M6.98268964,57.4143443 C5.75034732,57.0188168 5.14993054,55.287402 5.08516255,55.0900748 C5.02477077,54.9067177 5.06065574,54.8464718 5.07641011,54.8194048 C5.21294804,54.5967569 5.75122256,54.3968104 6.07331203,54.3461689 C6.08293971,54.3444227 6.08994165,54.3383108 6.09956932,54.3365645 C6.13895527,54.3365645 6.17659072,54.3496614 6.21597666,54.3461689 C7.46757433,54.2544904 8.31918588,53.5367783 8.84870797,53.0076622 L10.818005,51.0343906 C11.5435816,50.2974697 12.2271464,49.6015859 13.0262434,49.0986636 C14.6638233,48.0779758 16.7495276,47.7688881 18.5997916,48.2683179 C19.6500834,48.5529579 20.6338566,49.0916785 21.5143512,49.8617783 C21.7480411,50.0704562 21.9677271,50.2948503 22.1891637,50.5192445 L24.9295499,53.2626158 C25.9903445,54.3278332 27.7714643,54.6456522 29.1613504,54.0222381 C29.7810225,53.7393443 30.2203946,53.3001604 30.733287,52.7841411 L33.3817727,50.143799 C34.7340233,48.7939416 36.55803,48.0220955 38.3890386,48.0220955 C38.5728397,48.0220955 38.757516,48.0290805 38.9553209,48.0465431 C40.6567936,48.1705274 42.2593637,48.9362616 43.588858,50.2616714 L46.3344957,52.999804 C46.8780217,53.5420171 47.5720895,54.1217748 48.5864962,54.2981468 C49.8345929,54.5173022 51.0686857,54.1051853 51.9701862,53.2049893 L54.6493054,50.5340877 C55.0921784,50.0905381 55.4659072,49.7255702 55.8798972,49.4121169 C56.8216588,48.7109943 57.9340928,48.2569672 59.0937899,48.0963115 C60.1650875,47.9461333 61.2573909,48.0500356 62.2989303,48.3879366 C62.6534037,48.5023165 62.9982495,48.6385246 63.4516255,48.8751426 C63.6765629,48.9895225 63.982898,49.1475588 64.0730481,49.2322523 C64.2358433,49.4121169 64.4231453,49.5448325 64.5736871,49.6504811 C64.6340789,49.6932644 64.6927202,49.7316821 64.7811198,49.8058981 C64.8660183,49.8713828 64.940414,49.9508375 65.1032092,50.1132395 L68.0790358,53.0844975 C68.9035149,53.9104775 69.8347735,54.3304526 70.8421784,54.3505346 C71.1563907,54.4308624 71.5467491,54.5941376 71.6596555,54.7818603 C71.6754098,54.8063079 71.7130453,54.8683001 71.6526535,55.050784 C71.5870103,55.2481112 70.9795916,56.9847648 69.7507502,57.3767997 C69.0523062,57.5942088 68.1980689,57.3479865 67.2099194,56.6590877 C67.1801612,56.6337669 67.1644068,56.5962224 67.1311475,56.5752673 C66.7005279,56.3011048 66.2917894,55.9745545 65.9180606,55.6034747 L62.7453043,52.4366358 C61.376424,51.078047 58.7830786,51.0797933 57.4352042,52.438382 L54.255446,55.6034747 C52.2616421,57.5924626 49.1098916,58.1984141 46.5463045,57.134943 C45.6894415,56.7813257 44.9174771,56.2661796 44.254918,55.6034747 L41.0821617,52.4348895 C39.7062795,51.0763008 37.1321895,51.078047 35.7668102,52.438382 L32.5923034,55.6034747 C30.5967491,57.5977014 27.4379967,58.1966679 24.886663,57.134943 C24.0210475,56.776087 23.2490831,56.2626871 22.590025,55.6034747 L19.4155182,52.438382 C18.0571409,51.0797933 15.4725479,51.0763008 14.1071687,52.438382 L10.9361628,55.6017284 C10.558933,55.9763008 10.151945,56.3011048 9.72307585,56.5717748 C9.71519867,56.5770135 9.71257294,56.5857448 9.70469575,56.5909836 C9.69331759,56.5988418 9.68018894,56.5997149 9.66968602,56.6075731 C8.61851903,57.3750535 7.71351764,57.6422309 6.98268964,57.4143443 L6.98268964,57.4143443 Z M72.6311753,77.039665 L4.21867185,77.039665 C3.30316755,77.039665 2.55833565,76.2975053 2.55833565,75.3842124 C2.55833565,74.4726657 3.30404279,73.7313792 4.21867185,73.7313792 L72.6311753,73.7313792 C73.5431787,73.7313792 74.2862601,74.4735388 74.2862601,75.3842124 C74.2862601,76.2975053 73.5440539,77.039665 72.6311753,77.039665 L72.6311753,77.039665 Z" id="Shape"></path>
                </g>
            </g>
        </g>
    </g>
</svg>