<?xml version="1.0" encoding="UTF-8" standalone="no"?>
<svg width="163px" height="162px" viewBox="0 0 163 162" version="1.1" xmlns="http://www.w3.org/2000/svg" xmlns:xlink="http://www.w3.org/1999/xlink" xmlns:sketch="http://www.bohemiancoding.com/sketch/ns">
    <!-- Generator: Sketch 3.3.3 (12081) - http://www.bohemiancoding.com/sketch -->
    <title>birthday</title>
    <desc>Created with Sketch.</desc>
    <defs></defs>
    <g id="Page-1" stroke="none" stroke-width="1" fill="none" fill-rule="evenodd" sketch:type="MSPage">
        <g id="Ocean-Profile-Set-Up-08-Copy-3" sketch:type="MSArtboardGroup" transform="translate(-378.000000, -296.000000)" fill="#FFFFFF">
            <g id="birthday" sketch:type="MSLayerGroup" transform="translate(378.000000, 296.000000)">
                <path d="M81.75,162 C126.485065,162 162.75,125.735065 162.75,81 C162.75,36.2649353 126.485065,0 81.75,0 C37.0149353,0 0.75,36.2649353 0.75,81 C0.75,125.735065 37.0149353,162 81.75,162 Z" id="Oval-95" fill-opacity="0.15" sketch:type="MSShapeGroup"></path>
                <g id="Group" transform="translate(42.000000, 28.000000)" sketch:type="MSShapeGroup">
                    <path d="M47,59 C42,59 38,72 32,72 C26,72 20.999,64 15,64 C9.001,64 3,72 3,72 L3,90 L75,90 L75,59 C75,59 68,72 62,72 C56,72 52,59 47,59 L47,59 Z" id="Path"></path>
                    <path d="M14.75,57 C21.75,57 26.75,65.823 31.75,65.823 C36.75,65.823 39.75,52.124 46.75,52.124 C53.75,52.124 56.75,64.062 61.75,64.062 C66.75,64.062 76.75,48 76.75,48 L76.75,39 C76.75,35.638 68.154,33.408 56.75,32.307 L56.75,19 C56.75,17.343 55.406,16 53.75,16 C52.094,16 50.75,17.343 50.75,19 L50.75,31.844 C47.828,31.672 44.803,31.565 41.75,31.523 L41.75,17 C41.75,15.343 40.406,14 38.75,14 C37.094,14 35.75,15.343 35.75,17 L35.75,31.523 C32.697,31.565 29.671,31.672 26.75,31.844 L26.75,19 C26.75,17.343 25.407,16 23.75,16 C22.093,16 20.75,17.343 20.75,19 L20.75,32.307 C9.345,33.408 0.75,35.638 0.75,39 L0.75,67 C0.75,67 8.75,57 14.75,57 L14.75,57 Z" id="Path"></path>
                    <path d="M23.75,14 C25.738,14 27.75,13 27.75,11 C27.75,7 24.75,7 26.75,2 C21.75,3 19.75,7 19.75,11 C19.75,13 21.762,14 23.75,14 L23.75,14 Z" id="Path"></path>
                    <path d="M38.75,12 C40.738,12 42.75,11 42.75,9 C42.75,5 39.75,5 41.75,0 C36.75,1 34.75,5 34.75,9 C34.75,11 36.762,12 38.75,12 L38.75,12 Z" id="Path"></path>
                    <path d="M53.75,14 C55.738,14 57.75,13 57.75,11 C57.75,7 54.75,7 56.75,2 C51.75,3 49.75,7 49.75,11 C49.75,13 51.762,14 53.75,14 L53.75,14 Z" id="Path"></path>
                </g>
            </g>
        </g>
    </g>
</svg>