<?xml version="1.0" encoding="UTF-8" standalone="no"?>
<svg width="163px" height="162px" viewBox="0 0 163 162" version="1.1" xmlns="http://www.w3.org/2000/svg" xmlns:xlink="http://www.w3.org/1999/xlink" xmlns:sketch="http://www.bohemiancoding.com/sketch/ns">
    <!-- Generator: Sketch 3.3.3 (12081) - http://www.bohemiancoding.com/sketch -->
    <title>bon_voyage</title>
    <desc>Created with Sketch.</desc>
    <defs></defs>
    <g id="Page-1" stroke="none" stroke-width="1" fill="none" fill-rule="evenodd" sketch:type="MSPage">
        <g id="Ocean-Profile-Set-Up-08-Copy-3" sketch:type="MSArtboardGroup" transform="translate(-884.000000, -296.000000)" fill="#FFFFFF">
            <g id="bon_voyage" sketch:type="MSLayerGroup" transform="translate(884.000000, 296.000000)">
                <path d="M81.75,162 C126.485065,162 162.75,125.735065 162.75,81 C162.75,36.2649353 126.485065,0 81.75,0 C37.0149353,0 0.75,36.2649353 0.75,81 C0.75,125.735065 37.0149353,162 81.75,162 Z" id="Oval-95" fill-opacity="0.15" sketch:type="MSShapeGroup"></path>
                <path d="M109.108459,48.6325637 L93.3735987,48.6325637 L93.3735987,41.7689596 L82.7474291,41.7689596 L82.7474291,33.0132709 L81.3339763,33.0132709 L79.9205236,33.0132709 L79.9205236,41.7689596 L69.2943539,41.7689596 L69.2943539,48.6325637 L53.5594932,48.6325637 L53.5594932,52.0989732 C55.0037781,53.3884683 56.3413042,54.5829502 57.9928143,56.0584867 C57.639189,57.3628735 59.8177813,60.1845355 55.7781463,60.4540542 L55.7781463,68.6354686 C56.5596458,68.4005574 57.2190753,68.2122089 57.8715833,68.0018374 C58.1308247,67.9171016 58.3686724,67.7717502 58.6247676,67.6742201 C69.6062406,63.4453976 75.4007886,61.3706277 81.3337666,61.4471836 C87.2667445,61.3706277 93.0612926,63.4453976 104.042766,67.6742201 C104.298861,67.7715405 104.536499,67.9168918 104.79595,68.0018374 C105.448458,68.2122089 106.108097,68.4007671 106.889387,68.6354686 L106.889387,60.4540542 C102.849752,60.1847452 105.028344,57.3630832 104.674719,56.0584867 C106.326229,54.5829502 107.663755,53.3884683 109.10804,52.0989732 C109.108459,51.1926771 109.108459,50.0619569 109.108459,48.6325637 L109.108459,48.6325637 Z M71.2890023,57.9451179 L63.9054473,57.9451179 L63.9054473,53.3077176 L71.2890023,53.3077176 L71.2890023,57.9451179 L71.2890023,57.9451179 Z M85.4575082,57.9749013 L81.3339763,57.9749013 L77.2104444,57.9749013 L77.2104444,53.3125416 L81.3339763,53.3125416 L85.4575082,53.3125416 L85.4575082,57.9749013 L85.4575082,57.9749013 Z M98.7625054,57.9451179 L91.3789503,57.9451179 L91.3789503,53.3077176 L98.7625054,53.3077176 L98.7625054,57.9451179 Z M86.7037964,65.1449935 C84.8479973,64.7248798 82.8533489,64.0509781 81.0634089,64.3454562 C67.1860252,66.6331145 54.7692863,72.7546506 42.147,79.3537698 C45.2465704,85.0048542 48.2064525,90.4447282 51.2072343,95.8613208 C55.4620648,103.539983 59.6101365,111.259755 61.6276469,119.911621 C61.7547506,120.459048 62.1381594,121.185386 62.5951877,121.381914 C67.9864015,123.705648 73.5991031,124.980252 79.624787,124.954244 C80.2609352,118.722802 80.8710753,112.754378 81.4805861,106.784276 C81.6196452,106.800636 81.7578653,106.815527 81.8960855,106.831468 C82.5093717,112.868058 83.1226579,118.904229 83.780829,125.386312 C88.5233101,124.410172 92.7821257,123.416623 97.0864554,122.683994 C100.447574,122.111607 102.012671,120.404096 102.857093,116.992639 C105.229487,107.396723 110.624686,99.1328799 115.320185,90.5760269 C117.331403,86.9101525 119.268582,83.2035881 121.353,79.3044804 C109.885764,73.7865823 98.934494,67.9148491 86.7037964,65.1449935 Z" id="Shape" sketch:type="MSShapeGroup"></path>
            </g>
        </g>
    </g>
</svg>