<?xml version="1.0" encoding="UTF-8" standalone="no"?>
<svg width="189px" height="147px" viewBox="0 0 189 147" version="1.1" xmlns="http://www.w3.org/2000/svg" xmlns:xlink="http://www.w3.org/1999/xlink" xmlns:sketch="http://www.bohemiancoding.com/sketch/ns">
    <!-- Generator: Sketch 3.3.3 (12081) - http://www.bohemiancoding.com/sketch -->
    <title>bon voyage</title>
    <desc>Created with Sketch.</desc>
    <defs></defs>
    <g id="READY-TO-BOARD" stroke="none" stroke-width="1" fill="none" fill-rule="evenodd" sketch:type="MSPage">
        <g id="Ocean-Profile-Set-Up-08-Copy-3" sketch:type="MSArtboardGroup" transform="translate(-855.000000, -321.000000)">
            <g id="bon-voyage" sketch:type="MSLayerGroup" transform="translate(855.000000, 321.000000)">
                <g id="Upload-Security-Phot-Copy-+-noun_177763_cc-+-Rectangle-63-+-Rectangle-64-Copy">
                    <g>
                        <g id="Upload-Security-Phot-Copy-+-noun_177763_cc-+-Rectangle-63" transform="translate(63.627636, 19.455882)" font-weight="260" font-family="Gotham" fill="#FFFFFF" font-size="10.08" sketch:alignment="middle" sketch:type="MSTextLayer">
                            <text id="Bon-Voyage">
                                <tspan x="0.635210847" y="8">Bon Voyage</tspan>
                            </text>
                        </g>
                        <rect id="Rectangle-64-Copy" stroke="#FFFFFF" stroke-width="0.72" sketch:type="MSShapeGroup" x="0" y="0" width="189" height="147" rx="7.2"></rect>
                    </g>
                </g>
                <g id="noun_178593_cc" transform="translate(36.702990, 53.527174)" fill="#FFFFFF" sketch:type="MSShapeGroup">
                    <path d="M6.1336332,67.0192705 C5.47462811,67.0192705 4.94194227,66.4866826 4.94194227,65.8304581 L4.94194227,59.2361155 C4.94194227,58.7308702 5.26250713,58.2803103 5.74156688,58.1138765 C5.96798816,58.0354149 28.6470582,50.1298121 54.6986135,40.4386131 C59.1364705,38.7885414 62.007254,36.4358816 65.0472575,33.9453195 C71.1260729,28.9653842 77.4074758,23.8154486 96.2350007,24.3860786 C106.980478,24.7118132 112.688677,26.5045424 114.196166,30.0269937 C115.815674,33.8097949 111.940295,38.1037854 109.111221,41.2386838 C108.53921,41.8735097 108.007715,42.4595942 107.58109,42.9814829 C102.002785,49.7850565 99.1749022,56.6017071 99.1749022,63.2436022 C99.1749022,63.8998267 98.6422164,64.4324147 97.9832113,64.4324147 C97.3242062,64.4324147 96.7915204,63.8998267 96.7915204,63.2436022 C96.7915204,56.0393988 99.80054,48.7151253 105.735161,41.4752575 C106.184428,40.9284038 106.739756,40.3114101 107.340368,39.646864 C109.740434,36.9874905 113.025926,33.346158 112.003455,30.9590226 C111.268182,29.2399998 107.921914,27.1179696 96.1623076,26.7601371 C78.2094838,26.2204162 72.5608688,30.86154 66.5595133,35.7796571 C63.5028261,38.2844849 60.34127,40.8749072 55.5316055,42.66407 C32.2054473,51.3435896 11.5796607,58.5905903 7.32532412,60.0789835 L7.32532412,65.8304581 C7.32532412,66.4878714 6.79263828,67.0192705 6.1336332,67.0192705 L6.1336332,67.0192705 Z" id="Shape"></path>
                    <path d="M14.9342707,54.7911457 L14.9342707,54.7911457 C14.2752656,54.7911457 13.7425798,54.2585577 13.7425798,53.6023333 L13.7437715,46.4456824 C13.7020623,45.9142832 13.7592634,40.2852563 29.488392,33.0216122 C44.880272,25.9148914 50.5253119,22.5874054 53.2387921,20.9872638 C53.790545,20.662718 54.1111099,20.0148153 54.6318788,18.8985204 C55.8331033,16.3199862 57.6480485,12.4218702 65.8838245,8.95172663 C75.8356355,4.75997395 89.4542794,0.760808885 97.8092244,5.50773698 C102.541429,8.19683073 103.425664,20.3096407 103.510274,21.6815303 C103.550791,22.336566 103.051473,22.9012519 102.394851,22.9416715 C101.719162,22.9868464 101.172176,22.4839787 101.130467,21.828943 C100.837311,17.1402668 99.3560393,9.12410444 96.6282587,7.57389301 C90.7675228,4.24165173 80.1781572,5.51130342 66.8097684,11.1415192 C59.4212846,14.2538301 57.900687,17.5171203 56.7924145,19.8995004 C56.2132527,21.1418095 55.6674582,22.3163561 54.4507418,23.0332101 C51.7038942,24.6523726 45.9897362,28.0214671 30.4894123,35.178118 C16.3952838,41.6868661 16.1271533,46.3660319 16.1259616,46.4123956 L16.1259616,53.5999557 C16.1259616,54.2585577 15.5920841,54.7911457 14.9342707,54.7911457 L14.9342707,54.7911457 Z" id="Shape"></path>
                    <path d="M33.0503561,30.5821691 C32.9407206,30.5821691 32.8287016,30.5667145 32.7190661,30.5346166 C32.0874699,30.3527283 31.7228125,29.6929374 31.9051412,29.061678 L38.5380929,6.21151395 C38.6119777,5.96186333 38.7633224,5.74193303 38.97306,5.58738741 C39.4199441,5.25808637 50.0283768,-2.46325047 60.1482161,1.02115881 C60.3436534,1.08892112 60.518832,1.20542474 60.6558764,1.36115917 C62.1025892,3.00528678 64.1594478,8.01850887 64.3894441,8.58438359 C64.6361241,9.19305556 64.3417765,9.88613322 63.7316307,10.1322174 C63.1226767,10.3794904 62.4267292,10.0858537 62.1800491,9.47718174 C61.6318713,8.12787961 60.0695645,4.5352884 59.0518605,3.16339884 C51.1080487,0.650249328 42.4611394,6.08906627 40.7105454,7.27550109 L34.1943794,29.7238465 C34.0442264,30.2445463 33.5687417,30.5821691 33.0503561,30.5821691 L33.0503561,30.5821691 Z" id="Shape"></path>
                    <path d="M39.1744558,18.406352 C39.0147692,18.406352 38.8550826,18.3421561 38.7382969,18.216142 C38.514259,17.9748131 38.5285593,17.5991484 38.7680892,17.3768404 C39.0493283,17.1164905 45.8074075,10.9869735 59.7108655,9.83858072 C60.0052132,9.80886041 60.3269697,10.0537558 60.353187,10.381868 C60.3805958,10.7087914 60.1362992,10.996484 59.8085842,11.0238267 C46.3460518,12.1365552 39.6451737,18.1876105 39.578439,18.24824 C39.4652284,18.3540443 39.3198421,18.406352 39.1744558,18.406352 L39.1744558,18.406352 Z" id="Shape"></path>
                    <path d="M41.1467043,11.0250155 C40.9453085,11.0250155 40.7474878,10.9227777 40.6354689,10.7361341 C40.4650571,10.4543856 40.558009,10.0894201 40.8404397,9.92060878 C41.2062888,9.70186729 41.5792881,9.46529361 41.9701627,9.21920944 C44.9827574,7.31710952 49.1083914,4.71123264 57.7874764,4.71123264 C58.1163831,4.71123264 58.3833218,4.97752663 58.3833218,5.30563886 C58.3833218,5.6337511 58.1163831,5.90004509 57.7874764,5.90004509 C49.4539817,5.90004509 45.6572544,8.29787979 42.6065257,10.223756 C42.2085009,10.4745954 41.8259681,10.7171131 41.4517772,10.9406099 C41.3576336,10.9976729 41.2515731,11.0250155 41.1467043,11.0250155 L41.1467043,11.0250155 Z" id="Shape"></path>
                    <path d="M65.1986023,20.0611789 C64.9960148,20.0611789 64.7993858,19.9577523 64.6873668,19.7722975 C64.516955,19.490549 64.6099069,19.1255835 64.8923377,18.9567722 C64.9531139,18.9211078 71.0164374,15.3297054 78.5348154,13.1529898 C88.5974536,10.242777 96.7033353,11.1688618 101.975376,15.8361395 C102.220864,16.0536922 102.244698,16.4305457 102.025427,16.6754411 C101.804964,16.9203365 101.430773,16.9417351 101.184093,16.7253712 C89.1492065,6.07242289 65.7408216,19.8364934 65.5048668,19.9767733 C65.4095315,20.0338363 65.3034711,20.0611789 65.1986023,20.0611789 L65.1986023,20.0611789 Z" id="Shape"></path>
                    <path d="M65.1986023,25.1492962 C64.9960148,25.1492962 64.7993858,25.0458695 64.6873668,24.8604148 C64.516955,24.5786662 64.6099069,24.2137008 64.8923377,24.0448894 C64.9531139,24.0092251 71.0164374,20.4178227 78.5348154,18.2411071 C88.5974536,15.3297054 96.7033353,16.2581679 101.975376,20.9242568 C102.220864,21.1418095 102.244698,21.518663 102.025427,21.7635584 C101.804964,22.0096425 101.430773,22.0298523 101.184093,21.8134885 C89.1492065,11.1605402 65.7408216,24.9246107 65.5048668,25.0648905 C65.4095315,25.1219535 65.3034711,25.1492962 65.1986023,25.1492962 L65.1986023,25.1492962 Z" id="Shape"></path>
                    <path d="M104.437409,69.9817912 C102.528321,69.9817912 101.532067,69.2946576 100.652599,68.6871744 C99.8100735,68.1058451 99.0819504,67.6041663 97.5446691,67.6041663 C96.0085795,67.6041663 95.2828397,68.1058451 94.4403142,68.6871744 C93.562038,69.2934687 92.5657844,69.9817912 90.6578872,69.9817912 C88.7511817,69.9817912 87.7561198,69.2934687 86.8790353,68.6871744 C86.0377015,68.1058451 85.3119617,67.6041663 83.7758721,67.6041663 C82.2397825,67.6041663 81.5140427,68.1058451 80.6727089,68.6871744 C79.7956244,69.2934687 78.7993708,69.9817912 76.8914736,69.9817912 C74.9847681,69.9817912 73.9885145,69.2934687 73.11143,68.6871744 C72.2700962,68.1058451 71.5431647,67.6041663 70.0082668,67.6041663 C68.4733689,67.6041663 67.7476291,68.1058451 66.9062954,68.6871744 C66.0280191,69.2934687 65.0317655,69.9817912 63.12506,69.9817912 C61.2171629,69.9817912 60.2209093,69.2934687 59.342633,68.6871744 C58.5024909,68.1058451 57.7755595,67.6041663 56.2406616,67.6041663 C54.7057637,67.6041663 53.9812156,68.1058451 53.1398818,68.6871744 C52.2616056,69.2934687 51.2665436,69.9817912 49.3598382,69.9817912 C47.4531327,69.9817912 46.4580708,69.2934687 45.5809862,68.6871744 C44.7408441,68.1058451 44.016296,67.6041663 42.4825898,67.6041663 C40.9476919,67.6041663 40.2207604,68.1058451 39.3794267,68.6871744 C38.5023421,69.2934687 37.5060885,69.9817912 35.599383,69.9817912 C33.6914859,69.9817912 32.6964239,69.2934687 31.8181477,68.6871744 C30.9780056,68.1070339 30.2522658,67.6041663 28.7173679,67.6041663 C27.18247,67.6041663 26.4567302,68.1058451 25.6153965,68.6871744 C24.7371202,69.2934687 23.7408666,69.9817912 21.8341611,69.9817912 C19.9274557,69.9817912 18.9312021,69.2934687 18.0529258,68.6871744 C17.2127837,68.1058451 16.487044,67.6041663 14.9509544,67.6041663 C13.4148648,67.6041663 12.6903167,68.1058451 11.8489829,68.6871744 C10.9707067,69.2934687 9.97445305,69.9817912 8.06774757,69.9817912 C6.16104209,69.9817912 5.17074693,69.2934687 4.29247072,68.6871744 C3.45113692,68.1058451 2.72539715,67.6041663 1.19169093,67.6041663 C0.86278423,67.6041663 0.595845463,67.3378723 0.595845463,67.00976 C0.595845463,66.6816478 0.86278423,66.4153538 1.19169093,66.4153538 C3.09839641,66.4153538 4.09345833,67.1036762 4.97173454,67.7099706 C5.81187665,68.2912999 6.53761642,68.7929787 8.07251433,68.7929787 C9.60741225,68.7929787 10.333152,68.2912999 11.1744858,67.7099706 C12.052762,67.1036762 13.0490156,66.4153538 14.9557211,66.4153538 C16.8624266,66.4153538 17.8586802,67.1036762 18.7369564,67.7099706 C19.5770985,68.2912999 20.3028383,68.7929787 21.8389279,68.7929787 C23.3750175,68.7929787 24.0995656,68.2912999 24.9408994,67.7099706 C25.8191756,67.1036762 26.8154292,66.4153538 28.7221347,66.4153538 C30.6288402,66.4153538 31.6239021,67.1036762 32.5009866,67.7099706 C33.3423204,68.2912999 34.0680602,68.7929787 35.6041498,68.7929787 C37.137856,68.7929787 37.8647875,68.2912999 38.7061213,67.7099706 C39.5843975,67.1036762 40.5806511,66.4153538 42.4885483,66.4153538 C44.3940621,66.4153538 45.389124,67.1036762 46.2662085,67.7099706 C47.1063506,68.2912999 47.8308987,68.7929787 49.3657966,68.7929787 C50.9006945,68.7929787 51.6252426,68.2912999 52.4665764,67.7099706 C53.3448526,67.1036762 54.3399145,66.4153538 56.24662,66.4153538 C58.1533255,66.4153538 59.1495791,67.1036762 60.0266636,67.7099706 C60.8679974,68.2912999 61.5949289,68.7929787 63.1298268,68.7929787 C64.6647247,68.7929787 65.3904645,68.2912999 66.2317983,67.7099706 C67.1100745,67.1036762 68.1063281,66.4153538 70.0130336,66.4153538 C71.9209308,66.4153538 72.9171844,67.1036762 73.7954606,67.7099706 C74.6356027,68.2912999 75.3625342,68.7929787 76.8974321,68.7929787 C78.43233,68.7929787 79.1592615,68.2912999 80.0005952,67.7099706 C80.8776798,67.1036762 81.8739334,66.4153538 83.7818306,66.4153538 C85.6897277,66.4153538 86.6847897,67.1036762 87.5630659,67.7099706 C88.403208,68.290111 89.1289477,68.7929787 90.6638457,68.7929787 C92.1999353,68.7929787 92.925675,68.2912999 93.7682005,67.7099706 C94.6464767,67.1036762 95.6427303,66.4153538 97.5506275,66.4153538 C99.4609081,66.4153538 100.457162,67.1036762 101.33663,67.7099706 C102.179155,68.2912999 102.906087,68.7929787 104.443368,68.7929787 C105.980649,68.7929787 106.707581,68.2912999 107.550106,67.7099706 C108.428382,67.1036762 109.425828,66.4153538 111.334916,66.4153538 C111.663823,66.4153538 111.930762,66.6816478 111.930762,67.00976 C111.930762,67.3378723 111.663823,67.6041663 111.334916,67.6041663 C109.797635,67.6041663 109.070704,68.1058451 108.228178,68.6871744 C107.342752,69.2934687 106.345307,69.9817912 104.437409,69.9817912 L104.437409,69.9817912 Z" id="Shape"></path>
                    <path d="M22.4085562,49.8397419 C20.8963004,49.8397419 19.6664754,48.5082719 19.6664754,46.8712772 C19.6664754,45.2354713 20.8963004,43.9028125 22.4085562,43.9028125 C23.920812,43.9028125 25.150637,45.2342825 25.150637,46.8712772 C25.1494453,48.5082719 23.9196203,49.8397419 22.4085562,49.8397419 L22.4085562,49.8397419 Z M22.4085562,45.0928138 C21.5541138,45.0928138 20.8581663,45.8905069 20.8581663,46.872466 C20.8581663,47.8544251 21.5541138,48.6521183 22.4085562,48.6521183 C23.2629986,48.6521183 23.9589461,47.8544251 23.9589461,46.872466 C23.9577544,45.8905069 23.2629986,45.0928138 22.4085562,45.0928138 L22.4085562,45.0928138 Z" id="Shape"></path>
                    <path d="M30.2796747,46.1960317 C28.767419,46.1960317 27.5375939,44.8645618 27.5375939,43.2275671 C27.5375939,41.5917611 28.767419,40.2591024 30.2796747,40.2591024 C31.7919305,40.2591024 33.0217556,41.5905723 33.0217556,43.2275671 C33.0217556,44.8645618 31.7919305,46.1960317 30.2796747,46.1960317 L30.2796747,46.1960317 Z M30.2796747,41.4491036 C29.4252323,41.4491036 28.7292848,42.2467968 28.7292848,43.2287559 C28.7292848,44.210715 29.4252323,45.0084081 30.2796747,45.0084081 C31.1341171,45.0084081 31.8300646,44.210715 31.8300646,43.2287559 C31.8300646,42.2467968 31.1341171,41.4491036 30.2796747,41.4491036 L30.2796747,41.4491036 Z" id="Shape"></path>
                    <path d="M38.1507933,42.5523216 C36.6385375,42.5523216 35.4087125,41.2208517 35.4087125,39.5838569 C35.4087125,37.948051 36.6385375,36.6153922 38.1507933,36.6153922 C39.6630491,36.6153922 40.8928741,37.9468622 40.8928741,39.5838569 C40.8916824,41.2208517 39.6618574,42.5523216 38.1507933,42.5523216 L38.1507933,42.5523216 Z M38.1507933,37.8053935 C37.2963509,37.8053935 36.6004034,38.6030867 36.6004034,39.5850457 C36.6004034,40.5670048 37.2963509,41.364698 38.1507933,41.364698 C39.0052357,41.364698 39.7011832,40.5670048 39.7011832,39.5850457 C39.6999915,38.6030867 39.004044,37.8053935 38.1507933,37.8053935 L38.1507933,37.8053935 Z" id="Shape"></path>
                    <path d="M46.0219119,38.9086115 C44.5096561,38.9086115 43.2798311,37.5771415 43.2798311,35.9401468 C43.2798311,34.3043408 44.5096561,32.9716821 46.0219119,32.9716821 C47.5341677,32.9716821 48.7639927,34.303152 48.7639927,35.9401468 C48.7639927,37.5771415 47.5341677,38.9086115 46.0219119,38.9086115 L46.0219119,38.9086115 Z M46.0219119,34.1616834 C45.1674695,34.1616834 44.471522,34.9593765 44.471522,35.9413356 C44.471522,36.9232947 45.1674695,37.7209878 46.0219119,37.7209878 C46.8763543,37.7209878 47.5723018,36.9232947 47.5723018,35.9413356 C47.5723018,34.9593765 46.8763543,34.1616834 46.0219119,34.1616834 L46.0219119,34.1616834 Z" id="Shape"></path>
                </g>
            </g>
        </g>
    </g>
</svg>