<?xml version="1.0" encoding="UTF-8" standalone="no"?>
<svg width="236px" height="184px" viewBox="0 0 236 184" version="1.1" xmlns="http://www.w3.org/2000/svg" xmlns:xlink="http://www.w3.org/1999/xlink" xmlns:sketch="http://www.bohemiancoding.com/sketch/ns">
    <!-- Generator: Sketch 3.3.3 (12081) - http://www.bohemiancoding.com/sketch -->
    <title>car</title>
    <desc>Created with Sketch.</desc>
    <defs></defs>
    <g id="READY-TO-BOARD" stroke="none" stroke-width="1" fill="none" fill-rule="evenodd" sketch:type="MSPage">
        <g id="Ocean-Profile-Set-Up-08-Copy-2" sketch:type="MSArtboardGroup" transform="translate(-722.000000, -305.000000)">
            <g id="car" sketch:type="MSLayerGroup" transform="translate(722.000000, 305.000000)">
                <g id="Upload-Security-Phot-Copy-+-noun_177763_cc-+-Rectangle-63-+-Rectangle-64-Copy">
                    <g id="Upload-Security-Phot-Copy-+-noun_177763_cc-+-Rectangle-63" transform="translate(59.450382, 24.352941)" font-weight="260" font-family="Gotham" fill="#FFFFFF" font-size="12.6" sketch:alignment="middle" sketch:type="MSTextLayer">
                        <text id="Car-Service-(+$30)">
                            <tspan x="0.0698" y="10">Car Service (+$30)</tspan>
                        </text>
                    </g>
                    <rect id="Rectangle-64-Copy" stroke="#FFFFFF" stroke-width="0.9" sketch:type="MSShapeGroup" x="0" y="0" width="236" height="184" rx="9"></rect>
                </g>
                <g id="noun_199559_cc-copy" transform="translate(65.755725, 74.862745)" fill="#FFFFFF" sketch:type="MSShapeGroup">
                    <path d="M37.9859415,0.401533613 C36.1370746,0.401533613 34.5755513,1.94678571 34.5755513,3.73701681 L34.5755513,10.4485714 L28.1248346,10.4485714 C23.7696938,10.4485714 19.6191764,13.6202521 18.5510712,17.8095378 L18.5510712,17.8501261 L14.0725759,33.9172689 L4.33482358,36.1133824 C1.82709839,36.6830672 0.0609516539,38.9618067 0.0609516539,41.4826261 L0.0609516539,63.2828571 C0.0609516539,65.8471639 2.15652757,67.9621008 4.74552163,67.9621008 L10.1702188,67.9621008 L10.1702188,76.0159664 C10.1702188,78.6194118 12.3470636,80.774937 14.9781433,80.774937 L21.6349347,80.774937 C24.2645632,80.774937 26.4007735,78.6194118 26.4007735,76.0159664 L26.4007735,67.9621008 L78.0094097,67.9621008 L78.0094097,76.0159664 C78.0094097,78.6194118 80.1862545,80.774937 82.8173342,80.774937 L89.4741255,80.774937 C92.103754,80.774937 94.28205,78.6194118 94.28205,76.0159664 L94.28205,67.9621008 L99.7473817,67.9621008 C102.336376,67.9621008 104.431952,65.8471639 104.431952,63.2828571 L104.431952,41.4826261 C104.431952,38.9618067 102.623719,36.6816176 100.117445,36.1133824 L90.379693,33.9172689 L85.8997464,17.8501261 L85.8997464,17.8095378 C84.8330925,13.6202521 80.6811238,10.4485714 76.325983,10.4485714 L69.8752663,10.4485714 L69.8752663,3.73701681 C69.8752663,1.94823529 68.3543774,0.401533613 66.5069618,0.401533613 L37.9859415,0.401533613 L37.9859415,0.401533613 Z M37.9859415,2.72086134 L66.5026081,2.72086134 C67.0772952,2.72086134 67.5286277,3.16878151 67.5286277,3.73701681 L67.5286277,10.4485714 L36.9178363,10.4485714 L36.9178363,3.73701681 C36.9178363,3.16878151 37.3691688,2.72086134 37.9859415,2.72086134 L37.9859415,2.72086134 L37.9859415,2.72086134 Z M28.1248346,12.7678992 L76.3230806,12.7678992 C79.4867617,12.7678992 82.8971518,15.369895 83.6779135,18.3806723 L83.6779135,18.4198109 L87.7863452,33.3084454 L80.7188558,31.7211555 L80.4721467,31.7211555 L24.0164029,31.7211555 L23.7290594,31.7211555 L16.66157,33.3084454 L20.7714529,18.4198109 C20.7714529,18.4198109 20.7714529,18.4198109 20.7714529,18.3806723 C21.5507634,15.369895 24.9611535,12.7678992 28.1248346,12.7678992 L28.1248346,12.7678992 L28.1248346,12.7678992 Z M24.0164029,33.9984454 L80.3487922,33.9984454 L99.579039,38.3515336 C100.893853,38.6356513 102.127399,40.1403151 102.127399,41.4826261 L102.127399,63.2828571 C102.127399,64.6266176 101.059293,65.6833613 99.743028,65.6833613 L4.74552163,65.6833613 C3.43070738,65.6833613 2.36260221,64.6266176 2.36260221,63.2828571 L2.36260221,41.4826261 C2.36260221,40.1403151 3.55406192,38.6356513 4.86887617,38.3515336 L24.0164029,33.9984454 L24.0164029,33.9984454 Z M18.3043622,43.8816807 C13.7837812,43.8816807 10.1281332,47.5012815 10.1281332,51.9355462 C10.1281332,56.3698109 13.7852324,59.9473739 18.3043622,59.9473739 C22.7828575,59.9473739 26.4399567,56.3683613 26.4399567,51.9355462 C26.4399567,47.5027311 22.7828575,43.8816807 18.3043622,43.8816807 L18.3043622,43.8816807 L18.3043622,43.8816807 Z M86.1841874,43.8816807 C81.6650577,43.8816807 77.967324,47.5012815 77.967324,51.9355462 C77.967324,56.3698109 81.6650577,59.9473739 86.1841874,59.9473739 C90.664134,59.9473739 94.2791476,56.3683613 94.2791476,51.9355462 C94.2791476,47.5027311 90.664134,43.8816807 86.1841874,43.8816807 L86.1841874,43.8816807 L86.1841874,43.8816807 Z M18.3043622,46.2010084 C21.5086777,46.2010084 24.1397574,48.7638655 24.1397574,51.9355462 C24.1397574,55.1072269 21.5101289,57.670084 18.3043622,57.670084 C15.057961,57.670084 12.4689669,55.1072269 12.4689669,51.9355462 C12.4689669,48.7638655 15.057961,46.2010084 18.3043622,46.2010084 L18.3043622,46.2010084 L18.3043622,46.2010084 Z M86.1841874,46.2010084 C89.3899542,46.2010084 91.977497,48.7638655 91.977497,51.9355462 C91.977497,55.1072269 89.3899542,57.670084 86.1841874,57.670084 C82.9392375,57.670084 80.3487922,55.1072269 80.3487922,51.9355462 C80.3487922,48.7638655 82.9377863,46.2010084 86.1841874,46.2010084 L86.1841874,46.2010084 L86.1841874,46.2010084 Z M12.5110526,67.9621008 L24.0976718,67.9621008 L24.0976718,76.0159664 C24.0976718,77.3988655 23.0295666,78.4976471 21.6320322,78.4976471 L14.9766921,78.4976471 C13.5791578,78.4976471 12.5110526,77.3988655 12.5110526,76.0159664 L12.5110526,67.9621008 L12.5110526,67.9621008 Z M80.3487922,67.9621008 L91.977497,67.9621008 L91.977497,76.0159664 C91.977497,77.3988655 90.8673062,78.4976471 89.4712231,78.4976471 L82.8144317,78.4976471 C81.4168974,78.4976471 80.3487922,77.3988655 80.3487922,76.0159664 L80.3487922,67.9621008 L80.3487922,67.9621008 Z" id="Shape"></path>
                </g>
            </g>
        </g>
    </g>
</svg>