<?xml version="1.0" encoding="UTF-8" standalone="no"?>
<svg width="163px" height="164px" viewBox="0 0 163 164" version="1.1" xmlns="http://www.w3.org/2000/svg" xmlns:xlink="http://www.w3.org/1999/xlink" xmlns:sketch="http://www.bohemiancoding.com/sketch/ns">
    <!-- Generator: Sketch 3.3.3 (12081) - http://www.bohemiancoding.com/sketch -->
    <title>car_1</title>
    <desc>Created with Sketch.</desc>
    <defs>
        <path d="M81.5,162 C126.235065,162 162.5,125.735065 162.5,81 C162.5,36.2649353 126.235065,0 81.5,0 C36.7649353,0 0.5,36.2649353 0.5,81 C0.5,125.735065 36.7649353,162 81.5,162 Z M123,64.804878 C123,62.2963415 120.94575,60.2439024 118.435,60.2439024 L112.97609,60.2439024 L109.01782,49.9609756 C108.03427,47.4068293 105.07532,44.7017561 102.4409,43.9496098 C102.4409,43.950439 95.61,42 81.5,42 C67.39,42 60.55827,43.950439 60.55827,43.950439 C57.92468,44.7025854 54.96573,47.4068293 53.98218,49.9618049 L50.02391,60.2439024 L44.565,60.2439024 C42.05425,60.2439024 40,62.2963415 40,64.804878 C40,67.3134146 42.05425,69.3658537 44.565,69.3658537 L46.51218,69.3658537 L45.10782,73.0146341 C44.12427,75.5679512 43.32,79.897561 43.32,82.6341463 L43.32,104.195122 C43.32,107.387805 45.9345,110 49.13,110 C52.3255,110 54.94,107.387805 54.94,104.195122 L54.94,100.878049 L108.06,100.878049 L108.06,104.195122 C108.06,107.387805 110.6745,110 113.87,110 C117.0655,110 119.68,107.387805 119.68,104.195122 L119.68,82.6341463 C119.68,79.897561 118.8749,75.5679512 117.89218,73.0146341 L116.48699,69.3658537 L118.435,69.3658537 C120.94575,69.3658537 123,67.3134146 123,64.804878 Z M54.68353,66.1516098 L59.34564,53.5077561 C59.66187,52.6519512 60.667,51.9512195 61.58,51.9512195 L101.42,51.9512195 C102.333,51.9512195 103.33896,52.6519512 103.65353,53.5069268 L108.31564,66.1507805 C108.63104,67.0065854 108.143,67.7073171 107.23,67.7073171 L55.77,67.7073171 C54.857,67.7073171 54.36813,67.0065854 54.68353,66.1516098 L54.68353,66.1516098 Z M54.525,86.7804878 C52.00429,86.7804878 49.96,84.7363415 49.96,82.2195122 C49.96,79.7026829 52.00429,77.6585366 54.525,77.6585366 C57.04571,77.6585366 59.09,79.7026829 59.09,82.2195122 C59.09,84.7363415 57.04571,86.7804878 54.525,86.7804878 L54.525,86.7804878 Z M108.475,86.7804878 C105.95346,86.7804878 103.91,84.7388293 103.91,82.2195122 C103.91,79.7001951 105.95346,77.6585366 108.475,77.6585366 C110.99654,77.6585366 113.04,79.7001951 113.04,82.2195122 C113.04,84.7388293 110.99654,86.7804878 108.475,86.7804878 L108.475,86.7804878 Z" id="path-1"></path>
    </defs>
    <g id="Page-1" stroke="none" stroke-width="1" fill="none" fill-rule="evenodd" sketch:type="MSPage">
        <g id="Ocean-Profile-Set-Up-08-Copy-2" sketch:type="MSArtboardGroup" transform="translate(-213.000000, -619.000000)">
            <g id="car_1" sketch:type="MSLayerGroup" transform="translate(213.000000, 620.000000)">
                <g id="Oval-95-+-Shape">
                    <mask id="mask-2" sketch:name="Mask" fill="white">
                        <use xlink:href="#path-1"></use>
                    </mask>
                    <use id="Mask" stroke="#FFFFFF" sketch:type="MSShapeGroup" xlink:href="#path-1"></use>
                </g>
            </g>
        </g>
    </g>
</svg>