<?xml version="1.0" encoding="UTF-8" standalone="no"?>
<svg width="163px" height="162px" viewBox="0 0 163 162" version="1.1" xmlns="http://www.w3.org/2000/svg" xmlns:xlink="http://www.w3.org/1999/xlink" xmlns:sketch="http://www.bohemiancoding.com/sketch/ns">
    <!-- Generator: Sketch 3.3.3 (12081) - http://www.bohemiancoding.com/sketch -->
    <title>honeymoon</title>
    <desc>Created with Sketch.</desc>
    <defs></defs>
    <g id="Page-1" stroke="none" stroke-width="1" fill="none" fill-rule="evenodd" sketch:type="MSPage">
        <g id="Ocean-Profile-Set-Up-08-Copy-3" sketch:type="MSArtboardGroup" transform="translate(-1139.000000, -296.000000)" fill="#FFFFFF">
            <g id="honeymoon" sketch:type="MSLayerGroup" transform="translate(1139.000000, 296.000000)">
                <path d="M81.25,162 C125.985065,162 162.25,125.735065 162.25,81 C162.25,36.2649353 125.985065,0 81.25,0 C36.5149353,0 0.25,36.2649353 0.25,81 C0.25,125.735065 36.5149353,162 81.25,162 Z" id="Oval-95" fill-opacity="0.15" sketch:type="MSShapeGroup"></path>
                <path d="M122.375331,60.650815 C120.122763,57.4246929 116.746361,55.2783008 112.865213,54.6069407 C109.632557,54.0417568 105.313637,55.3828435 102.575926,57.5847739 C100.914677,54.587339 97.3063209,51.9084325 93.8090412,51.3040451 C92.9661658,51.157032 92.1102225,51.0835254 91.2624466,51.0835254 C84.1257746,51.0835254 78.0573981,56.2061172 76.8322885,63.2660157 C74.0455724,79.3508886 94.9916804,92.5412357 95.8851937,93.0949853 C96.0812112,93.2142293 96.3049979,93.277935 96.5320516,93.277935 C96.618626,93.277935 96.7035669,93.2681341 96.7885078,93.2501658 C97.8159665,93.0280126 121.975129,87.6554985 124.761845,71.5804265 C125.45934,67.7401161 124.613198,63.8589687 122.375331,60.650815 L122.375331,60.650815 Z M64.945458,60.2669473 C64.1646548,56.4821752 60.8013204,53.7362961 56.9446753,53.7362961 C56.3909257,53.7362961 55.8322757,53.7918344 55.2866935,53.906178 C53.4980335,54.2737109 51.8678209,55.6033632 50.8844662,57.016323 C49.3930994,56.055837 47.2238386,55.5641597 45.5266534,55.9153578 C41.1113582,56.8268394 38.259303,61.1604606 39.1691511,65.5790227 C40.9512772,74.2250298 53.8982359,76.6785161 54.4487185,76.7765248 C54.5205916,76.7895927 54.5940982,76.7961266 54.6676048,76.7961266 C54.9077263,76.7961266 55.1445808,76.725887 55.3471323,76.5919416 C55.8110405,76.283214 66.7259507,68.9129544 64.945458,60.2669473 L64.945458,60.2669473 Z M73.2827375,98.4707664 C72.7322549,98.4707664 72.1768718,98.5279382 71.6329232,98.6406483 C69.8458966,99.0098146 68.2140505,100.339467 67.2274289,101.75406 C65.7360621,100.793574 63.5700682,100.300263 61.872883,100.651462 C59.7313913,101.092501 57.8904599,102.340479 56.688219,104.165076 C55.485978,105.989673 55.0678073,108.173635 55.5072133,110.315126 C57.2909729,118.962767 70.2379316,121.416253 70.7884142,121.515896 C70.8602873,121.528963 70.9337939,121.535497 71.0073005,121.535497 C71.2457885,121.535497 71.482643,121.465258 71.6851945,121.331312 C72.1507362,121.022585 83.1064833,113.644158 81.3194567,104.980182 C80.4978165,101.208478 77.1181474,98.4707664 73.2827375,98.4707664 L73.2827375,98.4707664 Z M99.5784909,101.099035 C98.5526657,100.878515 97.2867191,101.100668 96.2625274,101.620115 C95.5535973,100.726602 94.4836682,99.9931693 93.4153726,99.7612152 C93.0217041,99.6762743 92.6198681,99.6338038 92.2196656,99.6338038 C89.5881301,99.6338038 87.2734896,101.502504 86.7132061,104.075235 C85.4652278,109.836517 92.5724972,114.741856 92.8746909,114.947674 C93.0805093,115.08652 93.3189973,115.160027 93.5640193,115.160027 C93.6326254,115.160027 93.702865,115.153493 93.7714712,115.142058 C94.1324701,115.079986 102.639632,113.559217 103.885976,107.799568 C104.207772,106.329436 103.936614,104.821735 103.124775,103.555788 C102.311302,102.293108 101.051889,101.42083 99.5784909,101.099035 L99.5784909,101.099035 Z M64.741273,79.1450701 C61.6490963,79.4505308 59.3818267,82.2127447 59.6807535,85.3049214 C60.2590052,91.1707464 68.5244116,93.6634362 68.8772432,93.7679788 C68.9899533,93.8006484 69.1075638,93.8169832 69.2235409,93.8169832 C69.4179249,93.8169832 69.612309,93.7712458 69.7887248,93.6781375 C70.1137872,93.5082556 77.7486705,89.4572264 77.1720522,83.5897679 C76.874759,80.5057586 74.1746173,78.2172538 71.0203683,78.5292484 C69.9749414,78.6305241 68.8445736,79.233278 68.0245669,80.0434839 C67.0787822,79.4113273 65.8308039,79.0454279 64.741273,79.1450701 L64.741273,79.1450701 Z M69.9243036,52.1910245 C70.1464568,52.3821416 70.4306822,52.4866843 70.7214416,52.4866843 L70.7900477,52.4866843 C71.1559471,52.4638156 79.7790855,51.9149665 81.6690214,46.3382674 C82.1557983,44.9122397 82.056156,43.3833029 81.3929633,42.0340488 C80.7297706,40.6847947 79.5781676,39.6736709 78.148873,39.1885275 C77.1638848,38.8569311 75.873436,38.9337047 74.7953395,39.3322737 C74.1942191,38.3652538 73.2141313,37.5158444 72.1785053,37.1630129 C71.5920862,36.9653618 70.9844318,36.8640861 70.3702435,36.8640861 C67.9526938,36.8640861 65.8046682,38.4028238 65.0287654,40.6945956 C63.1355627,46.2778286 69.6482455,51.9525365 69.9243036,52.1910245 L69.9243036,52.1910245 Z" id="Shape" sketch:type="MSShapeGroup"></path>
            </g>
        </g>
    </g>
</svg>