<?xml version="1.0" encoding="UTF-8" standalone="no"?>
<svg width="470px" height="226px" viewBox="0 0 470 226" version="1.1" xmlns="http://www.w3.org/2000/svg" xmlns:xlink="http://www.w3.org/1999/xlink" xmlns:sketch="http://www.bohemiancoding.com/sketch/ns">
    <!-- Generator: Sketch 3.3.3 (12081) - http://www.bohemiancoding.com/sketch -->
    <title>Group</title>
    <desc>Created with Sketch.</desc>
    <defs></defs>
    <g id="READY-TO-BOARD" stroke="none" stroke-width="1" fill="none" fill-rule="evenodd" sketch:type="MSPage">
        <g id="ACCESSORIES-SHOPPING-Copy-5" sketch:type="MSArtboardGroup" transform="translate(-605.000000, -508.000000)" fill="#FFFFFF">
            <g id="MEDALLION-01-+-Oval-135-+-Princess-logo-Copy-+-MEDALLION-01-+-Oval-135-+-Princess-logo-Copy-2-+-MEDALLION-01-+-Oval-135-+-Princess-logo-Copy-3-+-Group" sketch:type="MSLayerGroup" transform="translate(415.000000, 147.000000)">
                <g id="Group" transform="translate(188.500000, 361.126498)">
                    <g id="noun_174033_cc-+-ONE-TOUCH" transform="translate(2.000000, 0.000000)">
                        <g id="noun_174033_cc" transform="translate(15.000000, 0.000000)" sketch:type="MSShapeGroup">
                            <path d="M3.15789474,36.6511318 L2.84210526,36.6511318 C2.13157895,36.6511318 1.57894737,36.1881702 1.42105263,35.4937277 C1.26315789,34.7221249 1.73684211,33.9505221 2.52631579,33.7190413 C3.31578947,33.5647207 4.10526316,34.0276824 4.34210526,34.7992852 C4.42105263,35.7252085 3.94736842,36.4968113 3.15789474,36.6511318 L3.15789474,36.6511318 Z M10.8947368,49.2282571 C10.3421053,49.8455393 10.4210526,50.7714626 11.0526316,51.3115846 C11.3684211,51.5430654 11.6842105,51.6202257 12,51.6202257 C12.3947368,51.6202257 12.8684211,51.4659051 13.1052632,51.0801037 C13.6578947,50.4628215 13.5789474,49.5368982 12.9473684,48.9967762 C12.3947368,48.5338146 11.4473684,48.6109748 10.8947368,49.2282571 L10.8947368,49.2282571 Z M3.63157895,29.3980657 C3.63157895,29.3980657 3.63157895,29.3209055 3.63157895,29.3980657 C3.63157895,29.3209055 3.63157895,29.3209055 3.63157895,29.3980657 C3.63157895,28.5493027 3,27.8548602 2.13157895,27.8548602 C1.34210526,27.8548602 0.631578947,28.4721424 0.631578947,29.3209055 L0.631578947,29.3209055 C0.631578947,30.0925082 1.34210526,30.7869507 2.13157895,30.7869507 C3,30.864111 3.63157895,30.1696685 3.63157895,29.3980657 L3.63157895,29.3980657 Z M6.94736842,13.9660102 C7.18421053,14.1974911 7.5,14.2746513 7.81578947,14.2746513 C8.28947368,14.2746513 8.68421053,14.0431705 9,13.7345294 C9.47368421,13.1172472 9.39473684,12.1913238 8.68421053,11.7283622 C8.05263158,11.2654005 7.10526316,11.3425608 6.63157895,12.0370033 C6.15789474,12.5771252 6.31578947,13.5030486 6.94736842,13.9660102 L6.94736842,13.9660102 Z M4.10526316,39.5060621 C3.39473684,39.8147032 3,40.7406265 3.39473684,41.435069 C3.63157895,41.975191 4.18421053,42.2838321 4.73684211,42.2838321 C4.97368421,42.2838321 5.13157895,42.2066718 5.36842105,42.1295115 C6.07894737,41.8208704 6.47368421,40.8949471 6.07894737,40.2005046 C5.76315789,39.5060621 4.89473684,39.197421 4.10526316,39.5060621 L4.10526316,39.5060621 Z M12,9.9536758 C12.3157895,9.9536758 12.7105263,9.87651552 12.9473684,9.64503469 C13.5789474,9.10491275 13.6578947,8.17898942 13.1052632,7.5617072 C12.5526316,6.94442498 11.6052632,6.8672647 10.9736842,7.40738664 C10.3421053,7.94750859 10.2631579,8.87343192 10.8157895,9.49071414 C11.1315789,9.79935525 11.6052632,9.9536758 12,9.9536758 L12,9.9536758 Z M39.8684211,5.32405915 C40.0263158,5.40121943 40.2631579,5.40121943 40.4210526,5.40121943 C41.0526316,5.40121943 41.6052632,5.09257832 41.8421053,4.4752961 C42.1578947,3.70369332 41.7631579,2.85493027 40.9736842,2.54628916 C40.1842105,2.23764805 39.3157895,2.62344944 39,3.39505221 C38.6842105,4.16665499 39.0789474,5.01541804 39.8684211,5.32405915 L39.8684211,5.32405915 Z M2.44736842,24.8456094 L2.76315789,24.8456094 C3.47368421,24.8456094 4.02631579,24.3826477 4.18421053,23.6882052 C4.34210526,22.9166024 3.86842105,22.1449996 3.07894737,21.9906791 C2.28947368,21.8363585 1.5,22.2993202 1.34210526,23.070923 C1.18421053,23.919686 1.65789474,24.6912888 2.44736842,24.8456094 L2.44736842,24.8456094 Z M34.3421053,3.85801388 L34.5789474,3.85801388 C35.2894737,3.85801388 35.9210526,3.31789193 36.0789474,2.62344944 C36.2368421,1.85184666 35.6842105,1.08024389 34.8157895,0.92592333 C34.0263158,0.771602775 33.2368421,1.31172472 33.0789474,2.16048777 C33,2.93209055 33.5526316,3.70369332 34.3421053,3.85801388 L34.3421053,3.85801388 Z M57.7105263,24.9227696 C56.9210526,24.9999299 56.2894737,25.6943724 56.3684211,26.5431355 C56.4473684,27.3147382 57.0789474,27.8548602 57.8684211,27.8548602 L58.0263158,27.8548602 C58.8157895,27.7776999 59.4473684,27.0832574 59.3684211,26.2344944 C59.2105263,25.3857313 58.5,24.7684491 57.7105263,24.9227696 L57.7105263,24.9227696 Z M55.1052632,21.0647558 L55.1052632,21.0647558 C55.3421053,21.682038 55.8947368,22.0678394 56.5263158,22.0678394 C56.6842105,22.0678394 56.8421053,22.0678394 57,21.9906791 C57.7894737,21.7591983 58.1842105,20.9104352 57.9473684,20.1388324 C57.7105263,19.3672297 56.8421053,18.9814283 56.0526316,19.2129091 C55.2631579,19.4443899 54.8684211,20.293153 55.1052632,21.0647558 L55.1052632,21.0647558 Z M4.10526316,19.2129091 C4.34210526,19.2900694 4.5,19.3672297 4.73684211,19.3672297 C5.28947368,19.3672297 5.84210526,19.0585885 6.07894737,18.5184666 C6.39473684,17.8240241 6.07894737,16.8981008 5.36842105,16.5894597 C4.65789474,16.2808186 3.71052632,16.5894597 3.39473684,17.2839022 C3,17.9783447 3.31578947,18.8271077 4.10526316,19.2129091 L4.10526316,19.2129091 Z M28.5789474,3.54937277 L28.5789474,3.54937277 C29.4473684,3.47221249 30.0789474,2.77776999 30.0789474,2.00616722 C30,1.23456444 29.3684211,0.61728222 28.5,0.61728222 C27.7105263,0.694442498 27.0789474,1.31172472 27.0789474,2.16048777 C27.0789474,2.93209055 27.7894737,3.54937277 28.5789474,3.54937277 L28.5789474,3.54937277 Z M22.5789474,4.4752961 C22.7368421,4.4752961 22.8157895,4.4752961 22.9736842,4.39813582 C23.7631579,4.16665499 24.2368421,3.39505221 24,2.62344944 C23.7631579,1.85184666 22.9736842,1.388885 22.1842105,1.62036583 C21.3947368,1.85184666 20.9210526,2.62344944 21.1578947,3.39505221 C21.3157895,4.08949471 21.9473684,4.4752961 22.5789474,4.4752961 L22.5789474,4.4752961 Z M6.94736842,44.752961 C6.31578947,45.2159226 6.15789474,46.141846 6.63157895,46.7591282 C6.94736842,47.1449296 7.34210526,47.2992501 7.81578947,47.2992501 C8.13157895,47.2992501 8.44736842,47.2220898 8.68421053,46.990609 C9.31578947,46.5276473 9.47368421,45.601724 8.92105263,44.9844418 C8.52631579,44.3671596 7.65789474,44.212839 6.94736842,44.752961 L6.94736842,44.752961 Z M44.9210526,50.6943023 C44.2105263,51.157264 44.0526316,52.0831873 44.5263158,52.7004695 C44.8421053,53.0862709 45.3157895,53.3177518 45.7894737,53.3177518 C46.1052632,53.3177518 46.3421053,53.2405915 46.6578947,53.0862709 C47.3684211,52.6233093 47.5263158,51.6973859 47.0526316,51.0801037 C46.5789474,50.3856612 45.6315789,50.2313407 44.9210526,50.6943023 L44.9210526,50.6943023 Z M49.2631579,47.0677693 C48.7105263,47.6850515 48.7105263,48.6109748 49.3421053,49.1510968 C49.6578947,49.3825776 49.9736842,49.5368982 50.3684211,49.5368982 C50.7631579,49.5368982 51.1578947,49.3825776 51.4736842,49.0739365 C52.0263158,48.4566543 52.0263158,47.530731 51.3947368,46.990609 C50.7631579,46.4504871 49.8947368,46.4504871 49.2631579,47.0677693 L49.2631579,47.0677693 Z M50.3684211,11.959843 C50.7631579,11.959843 51.0789474,11.8055225 51.3947368,11.5740416 C52.0263158,11.0339197 52.0263158,10.1079964 51.4736842,9.49071414 C50.9210526,8.87343192 49.9736842,8.87343192 49.3421053,9.41355386 C48.7105263,9.9536758 48.7105263,10.8795991 49.2631579,11.4968814 C49.5789474,11.8055225 49.9736842,11.959843 50.3684211,11.959843 L50.3684211,11.959843 Z M54,16.6666199 C54.2368421,16.6666199 54.5526316,16.5894597 54.7894737,16.4351391 C55.5,16.0493377 55.7368421,15.1234144 55.2631579,14.4289719 C54.8684211,13.7345294 53.9210526,13.5030486 53.2105263,13.9660102 C52.5,14.3518116 52.2631579,15.2777349 52.7368421,15.9721774 C52.9736842,16.4351391 53.5263158,16.6666199 54,16.6666199 L54,16.6666199 Z M58.0263158,30.7869507 C57.2368421,30.7097905 56.4473684,31.2499124 56.3684211,32.0986755 C56.2894737,32.8702782 56.8421053,33.641881 57.7105263,33.7190413 L57.8684211,33.7190413 C58.6578947,33.7190413 59.2894737,33.1789193 59.3684211,32.4073166 C59.4473684,31.5585535 58.8157895,30.864111 58.0263158,30.7869507 L58.0263158,30.7869507 Z M54.7894737,42.1295115 C54.0789474,41.7437101 53.1315789,41.975191 52.7368421,42.5924732 C52.3421053,43.2869157 52.5,44.212839 53.2105263,44.5986404 C53.4473684,44.752961 53.6842105,44.8301212 54,44.8301212 C54.4736842,44.8301212 55.0263158,44.5986404 55.2631579,44.1356787 C55.7368421,43.4412362 55.5,42.5153129 54.7894737,42.1295115 L54.7894737,42.1295115 Z M57,36.6511318 C56.2105263,36.419651 55.3421053,36.8054524 55.1052632,37.5770552 C54.8684211,38.3486579 55.2631579,39.197421 56.0526316,39.4289018 C56.2105263,39.5060621 56.3684211,39.5060621 56.5263158,39.5060621 C57.1578947,39.5060621 57.7105263,39.1202607 57.9473684,38.5029785 C58.2631579,37.7313757 57.7894737,36.8826127 57,36.6511318 L57,36.6511318 Z M44.9210526,7.94750859 C45.1578947,8.10182914 45.4736842,8.17898942 45.7894737,8.17898942 C46.2631579,8.17898942 46.7368421,7.94750859 47.0526316,7.5617072 C47.5263158,6.8672647 47.3684211,6.01850165 46.6578947,5.55553998 C45.9473684,5.09257832 45.0789474,5.24689887 44.6052632,5.94134137 C44.0526316,6.55862359 44.2105263,7.48454692 44.9210526,7.94750859 L44.9210526,7.94750859 Z M28.6578947,55.0924382 L28.6578947,55.0924382 C27.8684211,55.0152779 27.1578947,55.6325601 27.0789474,56.4813231 C27,57.2529259 27.6315789,57.9473684 28.5,58.0245287 L28.5789474,58.0245287 C29.3684211,58.0245287 30,57.4072465 30.0789474,56.6356437 C30.1578947,55.8640409 29.5263158,55.1695984 28.6578947,55.0924382 L28.6578947,55.0924382 Z M34.4210526,54.783797 C33.6315789,54.9381176 33.0789474,55.6325601 33.1578947,56.4813231 C33.3157895,57.1757656 33.9473684,57.7158876 34.6578947,57.7158876 L34.8947368,57.7158876 C35.6842105,57.561567 36.2368421,56.8671245 36.1578947,56.0183615 C36,55.2467587 35.2105263,54.7066368 34.4210526,54.783797 L34.4210526,54.783797 Z M23.0526316,54.2436751 L23.0526316,54.2436751 C22.2631579,54.0121943 21.4736842,54.4751559 21.2368421,55.2467587 C21,56.0183615 21.4736842,56.7899643 22.2631579,57.0214451 C22.4210526,57.0214451 22.5,57.0986054 22.6578947,57.0986054 C23.2894737,57.0986054 23.9210526,56.6356437 24.0789474,56.0183615 C24.3157895,55.2467587 23.8421053,54.4751559 23.0526316,54.2436751 L23.0526316,54.2436751 Z M39.8684211,53.3177518 C39.0789474,53.6263929 38.7631579,54.4751559 39.0789474,55.2467587 C39.3157895,55.7868807 39.8684211,56.172682 40.5,56.172682 C40.6578947,56.172682 40.8947368,56.172682 41.0526316,56.0955218 C41.8421053,55.7868807 42.1578947,54.9381176 41.8421053,54.1665148 C41.5263158,53.394912 40.6578947,53.0091107 39.8684211,53.3177518 L39.8684211,53.3177518 Z M17.7631579,52.1603476 C17.0526316,51.7745462 16.1052632,52.0831873 15.7105263,52.7776298 C15.3157895,53.4720723 15.6315789,54.3979957 16.3421053,54.783797 L16.3421053,54.783797 C16.5789474,54.9381176 16.8157895,54.9381176 17.0526316,54.9381176 C17.6052632,54.9381176 18.0789474,54.6294765 18.3947368,54.1665148 C18.7105263,53.394912 18.4736842,52.546149 17.7631579,52.1603476 L17.7631579,52.1603476 Z M16.9736842,6.63578387 C17.2105263,6.63578387 17.4473684,6.55862359 17.6842105,6.48146331 C18.3947368,6.09566192 18.7105263,5.24689887 18.3157895,4.4752961 C17.9210526,3.7808536 17.0526316,3.47221249 16.2631579,3.85801388 C15.5526316,4.24381526 15.2368421,5.09257832 15.6315789,5.86418109 C15.9473684,6.40430303 16.4210526,6.63578387 16.9736842,6.63578387 L16.9736842,6.63578387 Z M39.8684211,34.8764454 C39.8684211,38.7344593 36.6315789,41.8980307 32.6842105,41.8980307 L32.6052632,41.8980307 L32.5263158,41.8980307 L31.5789474,41.8980307 L31.5789474,45.8332048 C31.5789474,46.6048076 30.9473684,47.2992501 30.0789474,47.2992501 C29.2105263,47.2992501 28.5789474,46.6819679 28.5789474,45.8332048 L28.5789474,41.8980307 L23.2894737,41.8980307 C22.5,41.8980307 21.7894737,41.2807485 21.7894737,40.4319854 C21.7894737,39.5832224 22.4210526,38.9659401 23.2894737,38.9659401 L28.5789474,38.9659401 L28.5789474,38.0400168 L28.5789474,30.7097905 L27.4736842,30.7097905 C23.5263158,30.7097905 20.2894737,27.5462191 20.2894737,23.6882052 C20.2894737,19.8301913 23.5263158,16.6666199 27.4736842,16.6666199 L28.5789474,16.6666199 L28.5789474,12.8086061 C28.5789474,12.0370033 29.2105263,11.3425608 30.0789474,11.3425608 C30.9473684,11.3425608 31.5789474,11.959843 31.5789474,12.8086061 L31.5789474,16.6666199 L36.6315789,16.6666199 C37.4210526,16.6666199 38.1315789,17.2839022 38.1315789,18.1326652 C38.1315789,18.9814283 37.5,19.5987105 36.6315789,19.5987105 L31.5789474,19.5987105 L31.5789474,20.4474735 L31.5789474,27.8548602 L32.6842105,27.8548602 C36.6315789,27.8548602 39.8684211,31.0184316 39.8684211,34.8764454 L39.8684211,34.8764454 Z M27.4736842,27.8548602 L28.5789474,27.8548602 L28.5789474,20.4474735 L28.5789474,19.5987105 L27.4736842,19.5987105 C25.1842105,19.5987105 23.2894737,21.4505572 23.2894737,23.6882052 C23.2894737,26.0030135 25.1842105,27.8548602 27.4736842,27.8548602 L27.4736842,27.8548602 Z M36.8684211,34.8764454 C36.8684211,32.6387974 34.9736842,30.7869507 32.6842105,30.7869507 L31.5789474,30.7869507 L31.5789474,38.1171771 L31.5789474,39.0431004 L32.5263158,39.0431004 L32.6052632,39.0431004 L32.6842105,39.0431004 C34.9736842,38.9659401 36.8684211,37.1140935 36.8684211,34.8764454 L36.8684211,34.8764454 Z" id="Shape"></path>
                        </g>
                        <text id="ONE-TOUCH" sketch:type="MSTextLayer" font-family="Gotham HTF" font-size="13.6830892" font-weight="420" sketch:alignment="middle">
                            <tspan x="1.22723036" y="81.4154461">ONE TOUCH</tspan>
                            <tspan x="6.22155792" y="96.4154461">PAYMENTS</tspan>
                        </text>
                    </g>
                    <g id="room-key-+-ROOM-KEY" transform="translate(387.000000, 0.000000)">
                        <g id="room-key" transform="translate(10.000000, 0.000000)" sketch:type="MSShapeGroup">
                            <g id="Group">
                                <path d="M2.052,19.019885 C2.052,9.63602237 9.8592,1.99968575 19.4604,1.99968575 C20.0316,1.99968575 20.49,1.55166232 20.49,0.999842876 C20.4894,0.448023435 20.0316,0 19.4604,0 C8.7294,0 0,8.53121065 0,19.019885 C0,19.5787414 0.4584,20.0261784 1.023,20.0261784 C1.5876,20.0261784 2.052,19.578155 2.052,19.019885 L2.052,19.019885 Z" id="Shape"></path>
                                <path d="M19.4604,5.14581891 C11.6352,5.14581891 5.2716,11.3706471 5.2716,19.0192985 C5.2716,19.578155 5.7306,20.025592 6.2946,20.025592 C6.8592,20.025592 7.3182,19.578155 7.3182,19.0192985 C7.3182,12.4748724 12.765,7.15136884 19.4604,7.15136884 C20.0316,7.15136884 20.49,6.70275899 20.49,6.15211238 C20.4894,5.59384234 20.0316,5.14581891 19.4604,5.14581891 L19.4604,5.14581891 Z" id="Shape"></path>
                                <path d="M7.9014,42.1921965 C7.9014,44.1666663 9.5448,45.7670013 11.5602,45.7670013 C13.5804,45.7670013 15.219,44.1666663 15.219,42.1921965 C15.219,40.2235909 13.581,38.6162189 11.5602,38.6162189 C9.5448,38.6168053 7.9014,40.2235909 7.9014,42.1921965 L7.9014,42.1921965 Z M13.1724,42.1921965 C13.1724,43.062441 12.4506,43.7684884 11.5596,43.7684884 C10.674,43.7684884 9.9528,43.0630274 9.9528,42.1921965 C9.9528,41.3272298 10.674,40.6217688 11.5596,40.6217688 C12.4506,40.6217688 13.1724,41.3278162 13.1724,42.1921965 L13.1724,42.1921965 Z" id="Shape"></path>
                                <path d="M19.4604,10.2980884 C14.541,10.2980884 10.5372,14.2112565 10.5372,19.019885 C10.5372,19.5787414 10.995,20.0261784 11.5602,20.0261784 C12.1314,20.0261784 12.5826,19.5787414 12.5826,19.019885 C12.5826,15.3148953 15.6702,12.2971877 19.4604,12.2971877 C20.0316,12.2971877 20.49,11.8503372 20.49,11.2979313 C20.49,10.7455254 20.0316,10.2980884 19.4604,10.2980884 L19.4604,10.2980884 Z" id="Shape"></path>
                                <path d="M58.977,38.6168053 C58.4124,38.6168053 57.9546,39.0636559 57.9546,39.6154754 C57.9546,49.006375 50.142,56.636261 40.5348,56.636261 C39.969,56.636261 39.5112,57.0895622 39.5112,57.641968 C39.5112,58.1943739 39.9684,58.6418109 40.5348,58.6418109 C51.2712,58.6418109 60,50.1100138 60,39.6154754 C60,39.0630695 59.5422,38.6168053 58.977,38.6168053 L58.977,38.6168053 Z" id="Shape"></path>
                                <path d="M40.5348,53.4901278 C48.366,53.4901278 54.7296,47.2711638 54.7296,39.6154754 C54.7296,39.0636559 54.2772,38.6168053 53.7054,38.6168053 C53.1408,38.6168053 52.683,39.0636559 52.683,39.6154754 C52.683,46.1669385 47.2362,51.4904421 40.5348,51.4904421 C39.969,51.4904421 39.5112,51.9384655 39.5112,52.490285 C39.5112,53.0421044 39.9684,53.4901278 40.5348,53.4901278 L40.5348,53.4901278 Z" id="Shape"></path>
                                <path d="M40.5348,48.3437225 C45.4602,48.3437225 49.464,44.429968 49.464,39.6148889 C49.464,39.0630695 49.0062,38.6162189 48.4416,38.6162189 C47.877,38.6162189 47.4186,39.0630695 47.4186,39.6148889 C47.4186,43.3269156 44.331,46.3381726 40.5348,46.3381726 C39.969,46.3381726 39.5112,46.7850232 39.5112,47.3438796 C39.5112,47.8962855 39.9684,48.3437225 40.5348,48.3437225 L40.5348,48.3437225 Z" id="Shape"></path>
                                <path d="M34.0824,31.8935217 L57.0636,9.4331217 C57.258,9.24312224 57.3648,8.99154887 57.3648,8.72179654 L57.3648,3.57597763 C57.3648,3.02357177 56.907,2.57613475 56.3424,2.57613475 L51.0774,2.57613475 C50.8008,2.57613475 50.5428,2.67993076 50.3496,2.86993023 L48.0144,5.14523249 L45.8052,5.14523249 C45.24,5.14523249 44.7822,5.59325593 44.7822,6.15152597 L44.7822,8.31013103 L42.7494,10.297502 L40.5348,10.297502 C39.969,10.297502 39.5112,10.744939 39.5112,11.2973449 L39.5112,12.8736368 L37.9038,12.8736368 C37.3398,12.8736368 36.8814,13.3210738 36.8814,13.8734796 L36.8814,16.0320847 L32.2128,20.5955904 L30.0042,20.5955904 C29.4324,20.5955904 28.974,21.0430274 28.974,21.5954333 L28.974,24.1709816 C28.974,24.7233875 29.4324,25.1714109 30.0042,25.1714109 C30.5682,25.1714109 31.026,24.7233875 31.026,24.1709816 L31.026,22.5952762 L32.6328,22.5952762 C32.9094,22.5952762 33.1668,22.4908937 33.3612,22.306172 L38.6268,17.1544889 C38.82,16.9650759 38.928,16.7129161 38.928,16.4496144 L38.928,14.8733225 L40.5348,14.8733225 C41.1054,14.8733225 41.5632,14.4258855 41.5632,13.8734796 L41.5632,12.2966013 L43.17,12.2966013 C43.4466,12.2966013 43.7034,12.1933917 43.8978,12.0092565 L46.5342,9.4331217 C46.722,9.24312224 46.8294,8.99154887 46.8294,8.72179654 L46.8294,7.15136884 L48.4422,7.15136884 C48.7116,7.15136884 48.9756,7.04698642 49.1634,6.85698695 L51.4974,4.57523409 L55.3206,4.57523409 L55.3206,8.31013103 L31.9122,31.1892336 C31.5102,31.5750967 31.5102,32.2131196 31.9122,32.6060197 L34.5408,35.1762903 C34.8546,35.4888511 36.342,37.1577971 34.548,38.9111872 L18.7446,54.3545081 C18.4188,54.6612048 16.7178,56.1137625 14.9166,54.3545081 L4.3806,44.0570061 C2.5926,42.3083073 4.0728,40.6393614 4.3866,40.3279734 L20.1888,24.8776154 C21.984,23.1230525 23.6904,24.5773694 24.0108,24.8776154 L26.6394,27.4537502 C27.0414,27.8460639 27.6948,27.8460639 28.0896,27.4537502 C28.4916,27.0614365 28.4916,26.4298642 28.0896,26.0363776 L25.4598,23.4666935 C25.3722,23.3810764 24.5946,22.6445353 23.4078,22.2586722 C21.7506,21.7127169 20.0886,22.141975 18.7392,23.4666935 L2.9376,38.9111872 C2.8488,38.9903537 2.0958,39.7573885 1.7004,40.9097001 C1.1484,42.5358375 1.581,44.1543515 2.9298,45.4726194 L13.473,55.7718807 C14.439,56.7224644 15.5688,57.2068458 16.7418,57.2068458 C17.2008,57.2068458 17.6712,57.1335435 18.1416,56.979902 C19.3218,56.5940389 20.1,55.8563249 20.1876,55.7712943 L35.9898,40.3279734 C38.4564,37.9172085 37.3452,35.0836362 35.9898,33.7583313 L34.0824,31.8935217 L34.0824,31.8935217 Z" id="Shape"></path>
                            </g>
                        </g>
                        <text id="ROOM-KEY" sketch:type="MSTextLayer" font-family="Gotham HTF" font-size="13.6830892" font-weight="420">
                            <tspan x="0" y="82.3928096">ROOM KEY</tspan>
                        </text>
                    </g>
                    <g id="GPS-+-ONBOARD" transform="translate(0.000000, 129.989348)">
                        <g id="GPS" transform="translate(9.000000, 0.000000)" sketch:type="MSShapeGroup">
                            <g id="Group" transform="translate(54.720000, 0.000000)">
                                <path d="M10.3208,27.930042 L10.3208,27.930042 C10.14144,27.930042 9.9712,27.847342 9.86328,27.7060002 C9.48328,27.2098003 0.57304,15.4799344 0.57304,10.2818642 C0.57304,5.0041012 4.94608,0.706709003 10.3208,0.706709003 C15.69704,0.706709003 20.06856,5.0041012 20.06856,10.2818642 C20.06856,15.552109 11.1568,27.2143112 10.7768,27.7060002 C10.66888,27.847342 10.50016,27.930042 10.3208,27.930042 L10.3208,27.930042 Z M10.3208,1.83894704 C5.5784,1.83894704 1.72064,5.62660658 1.72064,10.2818642 C1.72064,14.46498 8.48312,23.916837 10.3208,26.4098658 C12.16152,23.9273625 18.92096,14.5251255 18.92096,10.2818642 C18.92096,5.62660658 15.0632,1.83894704 10.3208,1.83894704 L10.3208,1.83894704 Z" id="Shape"></path>
                                <path d="M10.36488,14.3070982 C7.55896,14.3070982 5.27592,12.0486367 5.27592,9.27292431 C5.27592,6.49721192 7.55896,4.23875038 10.36488,4.23875038 C13.1708,4.23875038 15.45384,6.49721192 15.45384,9.27292431 C15.45384,12.0486367 13.1708,14.3070982 10.36488,14.3070982 L10.36488,14.3070982 Z M10.36488,5.33039025 C8.16696,5.33039025 6.37944,7.09866639 6.37944,9.27292431 C6.37944,11.4471822 8.16696,13.2154584 10.36488,13.2154584 C12.5628,13.2154584 14.35032,11.4471822 14.35032,9.27292431 C14.35032,7.09866639 12.56128,5.33039025 10.36488,5.33039025 L10.36488,5.33039025 Z" id="Shape"></path>
                            </g>
                            <g id="Group" transform="translate(0.000000, 9.021817)">
                                <path d="M17.8068,48.7914903 L17.8068,48.7914903 C17.4876,48.7914903 17.18664,48.644134 16.99512,48.3930267 C16.32176,47.5118959 0.52136,26.7136003 0.52136,17.4963106 C0.52136,8.13617536 8.27488,0.515747209 17.8068,0.515747209 C27.34024,0.515747209 35.09224,8.13617536 35.09224,17.4963106 C35.09224,26.842913 19.29032,47.5209178 18.61544,48.3930267 C18.4224,48.644134 18.12448,48.7914903 17.8068,48.7914903 L17.8068,48.7914903 Z M17.8068,2.52460514 C9.39664,2.52460514 2.55512,9.24134795 2.55512,17.4963106 C2.55512,24.9152515 14.5464,41.6762839 17.8068,46.0954707 C21.07024,41.6943276 33.05848,25.020506 33.05848,17.4963106 C33.05848,9.24134795 26.21696,2.52460514 17.8068,2.52460514 L17.8068,2.52460514 Z" id="Shape"></path>
                                <path d="M17.88432,24.6325679 C12.90784,24.6325679 8.86008,20.6283847 8.86008,15.7054799 C8.86008,10.782575 12.90784,6.77839189 17.88432,6.77839189 C22.8608,6.77839189 26.90856,10.782575 26.90856,15.7054799 C26.90856,20.6283847 22.85928,24.6325679 17.88432,24.6325679 L17.88432,24.6325679 Z M17.88432,8.71507528 C13.98704,8.71507528 10.81784,11.8516604 10.81784,15.7054799 C10.81784,19.560803 13.98856,22.6958845 17.88432,22.6958845 C21.7816,22.6958845 24.9508,19.5592994 24.9508,15.7054799 C24.9508,11.8516604 21.7816,8.71507528 17.88432,8.71507528 L17.88432,8.71507528 Z" id="Shape"></path>
                            </g>
                            <path d="M17.99072,57.4900256 L17.72928,56.7848202 C20.29352,55.8510622 22.91248,54.9173041 25.50104,53.9955751 C37.86928,49.5854102 51.8852,44.5888272 51.6724,42.0942948 C51.64048,41.7289112 51.13432,41.0342313 48.09736,40.4974332 C41.4504,39.3230933 40.60984,38.0675571 40.55664,37.2240172 C40.46088,35.7309065 43.30176,34.7760975 43.87176,34.6001721 L64.84928,26.9932767 L65.11072,27.698482 L44.11496,35.311392 C42.94912,35.6737683 41.27256,36.50979 41.31512,37.1759009 C41.3364,37.4991826 41.89576,38.6389389 48.23112,39.7576442 C51.0036,40.2478296 52.33816,40.9695749 52.42936,42.0296384 C52.68016,44.9527072 42.45816,48.7493885 25.75944,54.7022841 C23.17088,55.6255167 20.55344,56.5577712 17.99072,57.4900256 L17.99072,57.4900256 Z" id="Shape"></path>
                        </g>
                        <text id="ONBOARD" sketch:type="MSTextLayer" font-family="Gotham HTF" font-size="13.6830892" font-weight="420" sketch:alignment="middle">
                            <tspan x="9.11780027" y="79.460719">ONBOARD</tspan>
                            <tspan x="1.09950999" y="94.460719">NAVIGATION</tspan>
                        </text>
                    </g>
                    <g id="photos-+-SHARE-PHOTOS" transform="translate(181.000000, 0.000000)">
                        <g id="photos" transform="translate(29.000000, 0.000000)" sketch:type="MSShapeGroup">
                            <g id="Group">
                                <path d="M51.4490498,35.7181939 L21.0722172,35.7181939 C20.6617195,35.7181939 20.319638,35.3850018 20.319638,34.9851713 L20.319638,24.8561312 C20.319638,24.656216 20.4564706,24.3896623 20.5933032,24.2563854 L27.0928507,19.2585038 C27.3665158,19.0585885 27.7770136,19.0585885 28.0506787,19.2585038 L38.039457,26.7886454 L42.5549321,23.5900012 C42.8285973,23.3900859 43.239095,23.3900859 43.5127602,23.6566396 L51.9279638,30.7203123 C52.0647964,30.8535892 52.201629,31.0535044 52.201629,31.2534197 L52.201629,34.9185329 C52.201629,35.3850018 51.8595475,35.7181939 51.4490498,35.7181939 L51.4490498,35.7181939 Z M21.8247964,34.1855102 L50.6280543,34.1855102 L50.6280543,31.6532502 L42.8970136,25.1893233 L38.3815385,28.3879676 C38.1078733,28.5878828 37.7657919,28.5878828 37.4921267,28.3879676 L27.5717647,20.8578259 L21.8247964,25.2559617 L21.8247964,34.1855102 L21.8247964,34.1855102 Z" id="Shape"></path>
                                <path d="M45.7020814,17.392628 C42.8970136,17.392628 40.639276,15.1935601 40.639276,12.4613848 C40.639276,9.72920954 42.8970136,7.53014163 45.7020814,7.53014163 C48.5071493,7.53014163 50.7648869,9.72920954 50.7648869,12.4613848 C50.7648869,15.1935601 48.5071493,17.392628 45.7020814,17.392628 L45.7020814,17.392628 Z M45.7020814,8.9961869 C43.7864253,8.9961869 42.1444344,10.5288706 42.1444344,12.4613848 C42.1444344,14.3272606 43.718009,15.9265827 45.7020814,15.9265827 C47.6177376,15.9265827 49.2597285,14.393899 49.2597285,12.4613848 C49.2597285,10.595509 47.6861538,8.9961869 45.7020814,8.9961869 L45.7020814,8.9961869 Z" id="Shape"></path>
                                <path d="M51.2438009,1.93251422 C53.9804525,1.93251422 56.23819,4.13158213 56.23819,6.79711899 L56.23819,35.7848323 C56.23819,38.4503692 53.9804525,40.6494371 51.2438009,40.6494371 L21.4827149,40.6494371 C18.7460633,40.6494371 16.4883258,38.4503692 16.4883258,35.7848323 L16.4883258,6.79711899 C16.4883258,4.13158213 18.7460633,1.93251422 21.4827149,1.93251422 L51.2438009,1.93251422 L51.2438009,1.93251422 Z M51.2438009,0.46646895 L21.4827149,0.46646895 C17.9250679,0.46646895 14.9831674,3.33192107 14.9831674,6.79711899 L14.9831674,35.7848323 C14.9831674,39.2500303 17.9250679,42.1154824 21.4827149,42.1154824 L51.2438009,42.1154824 C54.801448,42.1154824 57.7433484,39.2500303 57.7433484,35.7848323 L57.7433484,6.79711899 C57.7433484,3.33192107 54.801448,0.46646895 51.2438009,0.46646895 L51.2438009,0.46646895 L51.2438009,0.46646895 Z" id="Shape"></path>
                                <path d="M46.2494118,43.6481661 L44.6758371,43.6481661 L44.8126697,44.2479119 C45.1547511,45.5140419 44.9495023,46.9134487 44.1969231,48.0463019 C43.5127602,49.1791551 42.3496833,49.9788161 41.0497738,50.3120082 L14.7779186,56.5093814 C13.4095928,56.8425735 12.041267,56.6426583 10.87819,55.9096356 C9.71511312,55.2432514 8.89411765,54.1103983 8.5520362,52.8442682 L2.18932127,27.2551144 C1.84723982,25.9889844 2.05248869,24.5895775 2.80506787,23.4567244 C3.48923077,22.3238712 4.65230769,21.5242101 5.95221719,21.191018 L13.478009,19.3917807 L13.478009,17.859097 L5.61013575,19.7249728 C3.89972851,20.1248033 2.39457014,21.191018 1.50515837,22.6570633 C0.547330317,24.1231086 0.273665158,25.8557075 0.752579186,27.5883065 L7.11529412,53.1774604 C7.52579186,54.8434209 8.62045249,56.3094662 10.1256109,57.1757656 C11.1518552,57.7755114 12.3833484,58.1087035 13.5464253,58.1087035 C14.0937557,58.1087035 14.641086,58.0420651 15.12,57.9087883 L41.3918552,51.7114151 C43.1022624,51.3115846 44.6074208,50.2453698 45.4968326,48.7793245 C46.4546606,47.3132793 46.7283258,45.5806803 46.2494118,43.8480813 L46.2494118,43.6481661 L46.2494118,43.6481661 Z" id="Shape"></path>
                            </g>
                        </g>
                        <text id="SHARE-PHOTOS" sketch:type="MSTextLayer" font-family="Gotham HTF" font-size="13.6830892" font-weight="420">
                            <tspan x="0" y="82.3928096">SHARE PHOTOS</tspan>
                        </text>
                    </g>
                    <g id="noun_56417_cc-+-CHAT-WITH" transform="translate(194.000000, 129.989348)">
                        <g id="noun_56417_cc" transform="translate(14.000000, 0.000000)" sketch:type="MSShapeGroup">
                            <g id="Group">
                                <g transform="translate(11.555556, 15.740697)" id="Shape">
                                    <path d="M4.35644444,7.68058546 C2.43111111,7.68058546 0.865777778,6.13974616 0.865777778,4.24649015 C0.865777778,2.35235966 2.432,0.811520359 4.35644444,0.811520359 C6.28177778,0.811520359 7.848,2.35235966 7.848,4.24649015 C7.848,6.13974616 6.28177778,7.68058546 4.35644444,7.68058546 L4.35644444,7.68058546 Z M4.35644444,1.98944916 C3.09155556,1.98944916 2.06222222,3.00210064 2.06222222,4.24649015 C2.06222222,5.49087967 3.09155556,6.50353115 4.35644444,6.50353115 C5.62133333,6.50353115 6.65066667,5.49087967 6.65066667,4.24649015 C6.65066667,3.00210064 5.62133333,1.98944916 4.35644444,1.98944916 L4.35644444,1.98944916 Z"></path>
                                    <path d="M14.3315556,7.68058546 C12.4062222,7.68058546 10.84,6.13974616 10.84,4.24649015 C10.84,2.35235966 12.4062222,0.811520359 14.3315556,0.811520359 C16.2568889,0.811520359 17.8222222,2.35235966 17.8222222,4.24649015 C17.8231111,6.13974616 16.2568889,7.68058546 14.3315556,7.68058546 L14.3315556,7.68058546 Z M14.3315556,1.98944916 C13.0666667,1.98944916 12.0373333,3.00210064 12.0373333,4.24649015 C12.0373333,5.49087967 13.0666667,6.50353115 14.3315556,6.50353115 C15.5964444,6.50353115 16.6257778,5.49087967 16.6257778,4.24649015 C16.6257778,3.00210064 15.5973333,1.98944916 14.3315556,1.98944916 L14.3315556,1.98944916 Z"></path>
                                    <path d="M24.3066667,7.68058546 C22.3813333,7.68058546 20.8151111,6.13974616 20.8151111,4.24649015 C20.8151111,2.35235966 22.3813333,0.811520359 24.3066667,0.811520359 C26.232,0.811520359 27.7982222,2.35235966 27.7982222,4.24649015 C27.7982222,6.13974616 26.232,7.68058546 24.3066667,7.68058546 L24.3066667,7.68058546 Z M24.3066667,1.98944916 C23.0417778,1.98944916 22.0124444,3.00210064 22.0124444,4.24649015 C22.0124444,5.49087967 23.0417778,6.50353115 24.3066667,6.50353115 C25.5715556,6.50353115 26.6008889,5.49087967 26.6008889,4.24649015 C26.6008889,3.00210064 25.5715556,1.98944916 24.3066667,1.98944916 L24.3066667,1.98944916 Z"></path>
                                </g>
                                <g id="Shape">
                                    <path d="M11.7475556,47.2701864 C11.6702222,47.2701864 11.5928889,47.2561947 11.5182222,47.2255878 C11.2942222,47.1346415 11.1484444,46.9195187 11.1484444,46.6816593 L11.1484444,37.5546787 L10.8622222,37.5546787 C5.032,37.5546787 0.288,32.8875621 0.288,27.1518272 L0.288,10.8619551 C0.288,5.1262202 5.03111111,0.459978134 10.8622222,0.459978134 L40.9102222,0.459978134 C46.7404444,0.459978134 51.4844444,5.1262202 51.4844444,10.8619551 L51.4844444,21.0566797 C51.4844444,21.3819874 51.2168889,21.6452068 50.8862222,21.6452068 C50.5555556,21.6452068 50.288,21.3819874 50.288,21.0566797 L50.288,10.8619551 C50.288,5.77508669 46.0817778,1.63703245 40.9111111,1.63703245 L10.8631111,1.63703245 C5.69244444,1.63703245 1.48622222,5.77508669 1.48622222,10.8619551 L1.48622222,27.1527017 C1.48622222,32.2395701 5.69244444,36.3776244 10.8631111,36.3776244 L11.7475556,36.3776244 C12.0782222,36.3776244 12.3457778,36.6408438 12.3457778,36.9661515 L12.3457778,45.2597497 L21.1991111,36.5498975 C21.3111111,36.4397127 21.464,36.3776244 21.6222222,36.3776244 L23.9128889,36.3776244 C24.2435556,36.3776244 24.5111111,36.6408438 24.5111111,36.9661515 C24.5111111,37.2914592 24.2435556,37.5546787 23.9128889,37.5546787 L21.8702222,37.5546787 L12.1706667,47.0979132 C12.056,47.2107216 11.9031111,47.2701864 11.7475556,47.2701864 L11.7475556,47.2701864 Z"></path>
                                    <path d="M48.3324444,49.7869489 C48.1768889,49.7869489 48.024,49.7274841 47.9093333,49.6146757 L41.9235556,43.7250317 L30.1368889,43.7250317 C26.3751111,43.7250317 23.3146667,40.7141863 23.3146667,37.0133736 C23.3146667,36.6880659 23.5822222,36.3767499 23.9128889,36.3767499 L40.9111111,36.3767499 C46.0817778,36.3767499 50.288,32.2386956 50.288,27.1518272 L50.288,21.0558052 C50.288,20.8660423 50.3813333,20.6876478 50.5377778,20.5774629 C50.6951111,20.467278 50.8968889,20.4384201 51.0791111,20.4987594 C53.8471111,21.4239626 55.7066667,23.9765789 55.7066667,26.849256 L55.7066667,37.0133736 C55.7066667,40.6984456 52.6711111,43.7005462 48.9306667,43.7250317 L48.9306667,49.1975473 C48.9306667,49.4354067 48.7848889,49.6505295 48.5608889,49.7414758 C48.488,49.7729572 48.4097778,49.7869489 48.3324444,49.7869489 L48.3324444,49.7869489 Z M24.5422222,37.5546787 C24.8382222,40.3731379 27.2346667,42.547103 30.1368889,42.547103 L42.1715556,42.547103 C42.3306667,42.547103 42.4826667,42.6091913 42.5946667,42.7193761 L47.7342222,47.7756377 L47.7342222,43.1356301 C47.7342222,42.8103224 48.0017778,42.547103 48.3324444,42.547103 L48.8844444,42.547103 C51.9866667,42.547103 54.5093333,40.0644453 54.5093333,37.0133736 L54.5093333,26.8501305 C54.5093333,24.7671116 53.3235556,22.8887218 51.4844444,21.9469035 L51.4844444,27.1527017 C51.4844444,32.8884366 46.7413333,37.5555532 40.9102222,37.5555532 L24.5422222,37.5555532 L24.5422222,37.5546787 Z"></path>
                                    <path d="M40.9111111,37.5546787 L23.9128889,37.5546787 C23.5822222,37.5546787 23.3146667,37.2914592 23.3146667,36.9661515 C23.3146667,36.6408438 23.5822222,36.3776244 23.9128889,36.3776244 L40.9111111,36.3776244 C46.0817778,36.3776244 50.288,32.2395701 50.288,27.1527017 L50.288,21.0566797 C50.288,20.7313719 50.5555556,20.4681525 50.8862222,20.4681525 C51.2168889,20.4681525 51.4844444,20.7313719 51.4844444,21.0566797 L51.4844444,27.1527017 C51.4853333,32.8884366 46.7413333,37.5546787 40.9111111,37.5546787 L40.9111111,37.5546787 Z"></path>
                                </g>
                            </g>
                        </g>
                        <text id="CHAT-WITH" sketch:type="MSTextLayer" font-family="Gotham HTF" font-size="13.6830892" font-weight="420" sketch:alignment="middle">
                            <tspan x="1.03967244" y="74.5739015">CHAT WITH</tspan>
                            <tspan x="10.7478242" y="89.5739015">FRIENDS</tspan>
                        </text>
                    </g>
                    <g id="noun_34840_cc-+-EXCURSIONS" transform="translate(379.000000, 129.989348)">
                        <g id="noun_34840_cc" transform="translate(25.000000, 0.000000)" sketch:type="MSShapeGroup">
                            <g id="Group">
                                <path d="M32.5048289,19.484719 L21.8951974,38.8082483 L1.75569737,35.4677702 L1.53925,36.7013533 L4.56518421,37.2029663 L2.70930263,44.9100039 L0.737157895,44.7885101 L0.629552632,46.4533361 L2.31289474,46.5567862 L0.539263158,53.9203933 L1.79094737,54.2054827 L3.61405263,46.6361782 L19.0220132,47.5810632 L20.78575,44.3686949 L31.7454079,54.5158332 L32.6328421,53.6094414 L21.4146842,43.2235256 L34.0168684,20.2696171 L32.5048289,19.484719 L32.5048289,19.484719 Z M18.0294474,45.8488743 L4.01107895,44.9887944 L5.83542105,37.4128739 L15.1129737,38.9519959 L15.02825,39.0386053 L19.4969605,43.1760107 L18.0294474,45.8488743 L18.0294474,45.8488743 Z M17.1686053,39.2930206 L21.2563684,39.9714612 L20.1252763,42.0314428 L17.1686053,39.2930206 L17.1686053,39.2930206 Z" id="Shape"></path>
                                <path d="M19.6404342,13.6776761 L33.4578158,18.1597148 L46.3920921,21.4304243 L46.3333421,20.5661342 C46.3246842,20.4434375 46.1082368,17.5203687 44.1905132,14.0301284 C42.4249211,10.8177601 38.8201447,6.50593301 31.6736711,4.21078275 C28.9489079,3.33626795 26.1783816,2.89299601 23.4387763,2.89299601 C14.27625,2.89299601 8.38640789,7.73350159 8.13965789,7.93919902 L7.35611842,8.59478439 L19.6163158,13.6680529 L19.6404342,13.6776761 L19.6404342,13.6776761 Z M43.0285,14.5696331 C44.2251447,16.730659 44.7223553,18.6859875 44.9227237,19.7668012 L34.5146974,17.1354379 C36.2778158,12.2450116 35.3013289,8.58696548 34.4138947,6.6394559 C38.2233684,8.4546455 41.11325,11.1118714 43.0285,14.5696331 L43.0285,14.5696331 Z M32.4838026,5.82207928 L32.4819474,5.82328219 C32.5159605,5.86598546 35.7243289,10.0545144 33.2778553,16.7823841 L20.6868026,12.6985082 C21.6657632,10.1020293 23.6465658,8.10099027 26.5797368,6.74771771 C28.8907763,5.68133893 30.9550658,5.44075714 30.9754737,5.43835133 L30.9593947,5.30182116 C31.0632895,5.33369825 31.1671842,5.36497388 31.2704605,5.39865533 C31.6835658,5.53157677 32.0880132,5.67352002 32.4838026,5.82207928 L32.4838026,5.82207928 Z M23.4387763,4.14341985 C25.1375789,4.14341985 26.8512237,4.3250591 28.5574474,4.68232306 C27.8233816,4.89283212 26.9674868,5.18814627 26.0676842,5.60074403 C22.8488026,7.0755104 20.5804342,9.37126211 19.4852105,12.2546348 L9.83784211,8.26278152 C11.7481447,6.97446605 16.7103553,4.14341985 23.4387763,4.14341985 L23.4387763,4.14341985 Z" id="Shape"></path>
                                <path d="M33.1863791,0.49129571 L33.823897,0.890150007 L33.1751114,4.03503147 L32.5375935,3.63617717 L33.1863791,0.49129571 L33.1863791,0.49129571 Z" id="Rectangle-path"></path>
                                <path d="M34.8417225,26.6239529 L14.358792,27.8485399 L11.4795575,27.8221308 L31.9624881,26.5975438 L34.8417225,26.6239529 L34.8417225,26.6239529 Z" id="Rectangle-path"></path>
                            </g>
                        </g>
                        <text id="EXCURSIONS" sketch:type="MSTextLayer" font-family="Gotham HTF" font-size="13.6830892" font-weight="420">
                            <tspan x="0" y="77.505992">EXCURSIONS</tspan>
                        </text>
                    </g>
                </g>
            </g>
        </g>
    </g>
</svg>