<?xml version="1.0" encoding="UTF-8" standalone="no"?>
<svg width="162px" height="162px" viewBox="0 0 162 162" version="1.1" xmlns="http://www.w3.org/2000/svg" xmlns:xlink="http://www.w3.org/1999/xlink" xmlns:sketch="http://www.bohemiancoding.com/sketch/ns">
    <!-- Generator: Sketch 3.3.3 (12081) - http://www.bohemiancoding.com/sketch -->
    <title>motocoach</title>
    <desc>Created with Sketch.</desc>
    <defs></defs>
    <g id="Page-1" stroke="none" stroke-width="1" fill="none" fill-rule="evenodd" sketch:type="MSPage">
        <g id="Ocean-Profile-Set-Up-08-Copy-2" sketch:type="MSArtboardGroup" transform="translate(-502.000000, -302.000000)" fill="#FFFFFF">
            <g id="motocoach" sketch:type="MSLayerGroup" transform="translate(502.000000, 302.000000)">
                <path d="M81,162 C125.735065,162 162,125.735065 162,81 C162,36.2649353 125.735065,0 81,0 C36.2649353,0 0,36.2649353 0,81 C0,125.735065 36.2649353,162 81,162 Z" id="Oval-95" fill-opacity="0.15" sketch:type="MSShapeGroup"></path>
                <path d="M115.886134,44.8378713 C114.855085,39.6382673 111.545963,37.5661386 106.560683,35.4977723 C101.688085,33.450099 89.97,31.014901 81.306561,30.9405941 C72.6271585,31.014901 60.9090732,33.450099 56.0017317,35.4987129 C51.0521341,37.5670792 47.7430122,39.6392079 46.7288659,44.8388119 L43,73.5344554 L43,113.125 L49.4229268,113.125 L49.4229268,119.299059 C49.3975732,126.890594 60.4517683,126.890594 60.4564634,119.299059 L60.4564634,113.125 L80.8680366,113.125 L80.9187439,113.125 L102.158537,113.125 L102.158537,119.299059 C102.14539,126.890594 113.200524,126.890594 113.192073,119.299059 L113.192073,113.125 L119.615,113.125 L119.615,73.5344554 L115.886134,44.8378713 L115.886134,44.8378713 Z M65.5328293,38.1972772 L80.9187439,38.1972772 L97.0812317,38.1972772 C100.166866,38.1888119 100.166866,42.8522772 97.0812317,42.8673267 L80.8680366,42.8673267 L65.5328293,42.8673267 C62.4321707,42.8522772 62.4321707,38.1888119 65.5328293,38.1972772 L65.5328293,38.1972772 Z M54.9134024,100.724208 C52.0014878,100.710099 49.6257561,98.3332178 49.6295122,95.3797525 C49.6257561,92.4648515 52.0014878,90.0870297 54.9134024,90.0870297 C57.8581829,90.0870297 60.2329756,92.4648515 60.249878,95.3797525 C60.2329756,98.3332178 57.8581829,100.71104 54.9134024,100.724208 L54.9134024,100.724208 Z M80.9187439,76.5424752 L52.7902683,76.5424752 C50.043622,76.5688119 49.466122,74.585099 49.735622,72.599505 L52.6353293,51.7399505 C53.0344146,49.2285644 53.8898659,47.5608911 57.1933537,47.5373762 L80.8689756,47.5373762 L105.423524,47.5373762 C108.708232,47.5608911 109.5665,49.2276238 109.981549,51.7399505 L112.883134,72.599505 C113.132915,74.5860396 112.556354,76.5688119 109.825671,76.5424752 L80.9187439,76.5424752 L80.9187439,76.5424752 Z M107.649951,100.724208 C104.738976,100.710099 102.365122,98.3332178 102.365122,95.3797525 C102.365122,92.4648515 104.738976,90.0870297 107.649951,90.0870297 C110.595671,90.0870297 112.971402,92.4648515 112.984549,95.3797525 C112.971402,98.3332178 110.595671,100.71104 107.649951,100.724208 L107.649951,100.724208 Z" id="Shape" sketch:type="MSShapeGroup"></path>
            </g>
        </g>
    </g>
</svg>