<?xml version="1.0" encoding="UTF-8" standalone="no"?>
<svg width="164px" height="164px" viewBox="0 0 164 164" version="1.1" xmlns="http://www.w3.org/2000/svg" xmlns:xlink="http://www.w3.org/1999/xlink" xmlns:sketch="http://www.bohemiancoding.com/sketch/ns">
    <!-- Generator: Sketch 3.3.3 (12081) - http://www.bohemiancoding.com/sketch -->
    <title>motocoach_1</title>
    <desc>Created with Sketch.</desc>
    <defs></defs>
    <g id="Page-1" stroke="none" stroke-width="1" fill="none" fill-rule="evenodd" sketch:type="MSPage">
        <g id="Ocean-Profile-Set-Up-08-Copy-2" sketch:type="MSArtboardGroup" transform="translate(-213.000000, -423.000000)" stroke="#FFFFFF">
            <g id="motocoach_1" sketch:type="MSLayerGroup" transform="translate(214.196256, 424.000000)">
                <path d="M81,162 C125.735065,162 162,125.735065 162,81 C162,36.2649353 125.735065,0 81,0 C36.2649353,0 0,36.2649353 0,81 C0,125.735065 36.2649353,162 81,162 Z M115.886134,44.8972772 C114.855085,39.6976733 111.545963,37.6255446 106.560683,35.5571782 C101.688085,33.509505 89.97,31.0743069 81.306561,31 C72.6271585,31.0743069 60.9090732,33.509505 56.0017317,35.5581188 C51.0521341,37.6264851 47.7430122,39.6986139 46.7288659,44.8982178 L43,73.5938614 L43,113.184406 L49.4229268,113.184406 L49.4229268,119.358465 C49.3975732,126.95 60.4517683,126.95 60.4564634,119.358465 L60.4564634,113.184406 L80.8680366,113.184406 L80.9187439,113.184406 L102.158537,113.184406 L102.158537,119.358465 C102.14539,126.95 113.200524,126.95 113.192073,119.358465 L113.192073,113.184406 L119.615,113.184406 L119.615,73.5938614 L115.886134,44.8972772 Z M65.5328293,38.2566832 L80.9187439,38.2566832 L97.0812317,38.2566832 C100.166866,38.2482178 100.166866,42.9116832 97.0812317,42.9267327 L80.8680366,42.9267327 L65.5328293,42.9267327 C62.4321707,42.9116832 62.4321707,38.2482178 65.5328293,38.2566832 L65.5328293,38.2566832 L65.5328293,38.2566832 Z M54.9134024,100.783614 C52.0014878,100.769505 49.6257561,98.3926238 49.6295122,95.4391584 C49.6257561,92.5242574 52.0014878,90.1464356 54.9134024,90.1464356 C57.8581829,90.1464356 60.2329756,92.5242574 60.249878,95.4391584 C60.2329756,98.3926238 57.8581829,100.770446 54.9134024,100.783614 L54.9134024,100.783614 L54.9134024,100.783614 Z M80.9187439,76.6018812 L52.7902683,76.6018812 C50.043622,76.6282178 49.466122,74.644505 49.735622,72.6589109 L52.6353293,51.7993564 C53.0344146,49.2879703 53.8898659,47.620297 57.1933537,47.5967822 L80.8689756,47.5967822 L105.423524,47.5967822 C108.708232,47.620297 109.5665,49.2870297 109.981549,51.7993564 L112.883134,72.6589109 C113.132915,74.6454455 112.556354,76.6282178 109.825671,76.6018812 L80.9187439,76.6018812 L80.9187439,76.6018812 Z M107.649951,100.783614 C104.738976,100.769505 102.365122,98.3926238 102.365122,95.4391584 C102.365122,92.5242574 104.738976,90.1464356 107.649951,90.1464356 C110.595671,90.1464356 112.971402,92.5242574 112.984549,95.4391584 C112.971402,98.3926238 110.595671,100.770446 107.649951,100.783614 L107.649951,100.783614 L107.649951,100.783614 Z" id="Oval-95" sketch:type="MSShapeGroup"></path>
            </g>
        </g>
    </g>
</svg>