<?xml version="1.0" encoding="UTF-8" standalone="no"?>
<svg width="236px" height="184px" viewBox="0 0 236 184" version="1.1" xmlns="http://www.w3.org/2000/svg" xmlns:xlink="http://www.w3.org/1999/xlink" xmlns:sketch="http://www.bohemiancoding.com/sketch/ns">
    <!-- Generator: Sketch 3.3.3 (12081) - http://www.bohemiancoding.com/sketch -->
    <title>motorcoach</title>
    <desc>Created with Sketch.</desc>
    <defs></defs>
    <g id="READY-TO-BOARD" stroke="none" stroke-width="1" fill="none" fill-rule="evenodd" sketch:type="MSPage">
        <g id="Ocean-Profile-Set-Up-08-Copy-2" sketch:type="MSArtboardGroup" transform="translate(-446.000000, -305.000000)">
            <g id="motorcoach" sketch:type="MSLayerGroup" transform="translate(446.000000, 305.000000)">
                <g id="Upload-Scanned-Passp-+-noun_185598_cc-+-Rectangle-64-+-1">
                    <g id="Upload-Scanned-Passp-+-noun_185598_cc-+-Rectangle-64">
                        <g id="Upload-Scanned-Passp-+-noun_185598_cc" transform="translate(62.152672, 24.352941)" font-weight="260" font-family="Gotham" fill="#FFFFFF" font-size="12.6" sketch:alignment="middle" sketch:type="MSTextLayer">
                            <text id="Motorcoach-(free)">
                                <tspan x="-0.446390076" y="10">Motorcoach (free)</tspan>
                            </text>
                        </g>
                        <rect id="Rectangle-64" stroke="#FFFFFF" stroke-width="0.9" sketch:type="MSShapeGroup" x="0" y="0" width="236" height="184" rx="9"></rect>
                    </g>
                </g>
                <g id="noun_146906_cc" transform="translate(69.625671, 70.352941)" fill="#FFFFFF" sketch:type="MSShapeGroup">
                    <path d="M32.6835776,0.620761246 C28.7128514,0.620761246 25.4623653,3.84659746 25.4623653,7.8245098 L25.4623653,71.605075 C25.4623653,75.1704729 28.1081723,78.1336794 31.5870928,78.6960784 L31.5870928,85.899827 C31.5870928,87.9252595 33.2130077,89.5766436 35.2541356,89.5766436 L40.1695049,89.5766436 C42.2106328,89.5766436 43.8741722,87.9252595 43.8741722,85.899827 L43.8741722,78.771684 L78.0143546,78.771684 L78.0143546,85.899827 C78.0143546,87.9252595 79.6416133,89.5766436 81.6827412,89.5766436 L86.6357349,89.5766436 C88.6405821,89.5766436 90.3027778,87.9252595 90.3027778,85.899827 L90.3027778,78.6960784 C93.783042,78.1336794 96.3912245,75.1704729 96.3912245,71.605075 L96.3912245,7.82318339 C96.3912245,3.84527105 93.1756754,0.619434833 89.2076367,0.619434833 L32.6835776,0.619434833 L32.6835776,0.620761246 L32.6835776,0.620761246 Z M32.6835776,2.75893887 L89.2076367,2.75893887 C92.0415661,2.75893887 94.2735039,5.00986159 94.2735039,7.8245098 L94.2735039,71.605075 C94.2735039,74.3812572 92.1181588,76.5950404 89.3581346,76.6693195 L89.2089805,76.6693195 L89.0195143,76.6693195 L79.3016492,76.6693195 C79.1524951,76.6321799 78.9993097,76.6321799 78.847468,76.6693195 L43.0047781,76.6693195 L42.5895651,76.6693195 L32.8340755,76.6693195 C32.7212021,76.6321799 32.6446094,76.6321799 32.5317359,76.6321799 L32.4941115,76.6321799 C29.7717117,76.5194348 27.6163667,74.3427912 27.6163667,71.605075 L27.6163667,7.82318339 C27.6177104,5.00986159 29.8483044,2.75893887 32.6835776,2.75893887 L32.6835776,2.75893887 L32.6835776,2.75893887 Z M52.8355166,5.7606113 C50.6412033,5.7606113 48.7908852,7.56055363 48.7908852,9.77433679 C48.7908852,11.9509804 50.6412033,13.7509227 52.8355166,13.7509227 L67.8853077,13.7509227 C70.1159017,13.7509227 71.9299391,11.9509804 71.9299391,9.77433679 C71.9299391,7.56055363 70.1159017,5.7606113 67.8853077,5.7606113 L52.8355166,5.7606113 L52.8355166,5.7606113 Z M52.8355166,7.86164937 L67.8853077,7.86164937 C68.9428243,7.86164937 69.774594,8.6866782 69.774594,9.77433679 C69.774594,10.8248558 68.9428243,11.6498847 67.8853077,11.6498847 L52.8355166,11.6498847 C51.778,11.6498847 50.9462303,10.8248558 50.9462303,9.77433679 C50.9462303,8.6866782 51.778,7.86164937 52.8355166,7.86164937 L52.8355166,7.86164937 L52.8355166,7.86164937 Z M36.7295527,17.5033449 C33.9695285,17.5033449 31.70131,19.717128 31.70131,22.4561707 L31.70131,47.2932526 C31.70131,50.0322953 33.9695285,52.244752 36.7295527,52.244752 L85.085069,52.244752 C87.8464369,52.244752 90.0770309,50.0322953 90.0770309,47.2932526 L90.0770309,22.4561707 C90.0770309,19.717128 87.8464369,17.5033449 85.085069,17.5033449 L36.7295527,17.5033449 L36.7295527,17.5033449 L36.7295527,17.5033449 Z M36.7295527,19.6415225 L85.085069,19.6415225 C86.7123276,19.6415225 87.9593103,20.8803922 87.9593103,22.4561707 L87.9593103,47.2932526 C87.9593103,48.9074971 86.7123276,50.143714 85.085069,50.143714 L36.7295527,50.143714 C35.1412622,50.143714 33.8176868,48.9061707 33.8176868,47.2932526 L33.8176868,22.4561707 C33.8176868,20.8803922 35.1412622,19.6415225 36.7295527,19.6415225 L36.7295527,19.6415225 L36.7295527,19.6415225 Z M11.5493709,41.7767013 C5.95272987,41.7767013 1.37866836,46.3541522 1.37866836,51.9821223 C1.37866836,56.2213379 3.94922643,59.822549 7.61761301,61.399654 L7.61761301,81.733564 L4.32815867,81.733564 C2.13518911,81.733564 0.357432539,83.4976932 0.357432539,85.6358708 C0.357432539,87.811188 2.13384538,89.5753172 4.32815867,89.5753172 L18.8082077,89.5753172 C20.9635528,89.5753172 22.7775901,87.811188 22.7775901,85.6358708 C22.7775901,83.4976932 20.962209,81.733564 18.8082077,81.733564 L15.4811289,81.733564 L15.4811289,61.399654 C19.1481717,59.8238754 21.7563543,56.2226644 21.7563543,51.9821223 C21.7563543,46.3541522 17.1822927,41.7767013 11.5493709,41.7767013 L11.5493709,41.7767013 L11.5493709,41.7767013 Z M11.5493709,43.8777393 C16.010559,43.8777393 19.6023529,47.5174164 19.6023529,51.9821223 C19.6023529,55.5077278 17.4093833,58.4722607 14.3093951,59.5970588 C14.119929,59.5970588 13.9694311,59.6726644 13.8175895,59.7469435 C13.0986932,59.9724337 12.3435162,60.0851788 11.5493709,60.0851788 C10.7552257,60.0851788 9.99870496,59.9724337 9.28115242,59.7469435 C9.13065451,59.6713379 8.97881287,59.5970588 8.78934675,59.5585928 C5.72698301,58.4337947 3.53401345,55.4692618 3.53401345,51.9807958 C3.53266971,47.5174164 7.08683913,43.8777393 11.5493709,43.8777393 L11.5493709,43.8777393 L11.5493709,43.8777393 Z M38.468341,56.1470588 C34.2342436,56.1470588 30.7929476,59.6355248 30.7929476,63.8747405 C30.7929476,68.1139562 34.2342436,71.6037486 38.468341,71.6037486 C42.7024385,71.6037486 46.1423908,68.1139562 46.1423908,63.8747405 C46.1423908,59.6355248 42.7024385,56.1470588 38.468341,56.1470588 L38.468341,56.1470588 L38.468341,56.1470588 Z M83.424217,56.1470588 C79.1887758,56.1470588 75.7111991,59.6355248 75.7111991,63.8747405 C75.7111991,68.1139562 79.1887758,71.6037486 83.424217,71.6037486 C87.6569708,71.6037486 91.0982667,68.1139562 91.0982667,63.8747405 C91.0982667,59.6355248 87.6569708,56.1470588 83.424217,56.1470588 L83.424217,56.1470588 L83.424217,56.1470588 Z M38.468341,58.3237024 C41.5683292,58.3237024 43.9883894,60.7616494 43.9883894,63.8760669 C43.9883894,66.9520185 41.5683292,69.4668973 38.468341,69.4668973 C35.3670091,69.4668973 32.9106682,66.9520185 32.9106682,63.8760669 C32.9106682,60.7616494 35.3683528,58.3237024 38.468341,58.3237024 L38.468341,58.3237024 L38.468341,58.3237024 Z M83.424217,58.3237024 C86.5242052,58.3237024 88.9805461,60.7616494 88.9805461,63.8760669 C88.9805461,66.9520185 86.5242052,69.4668973 83.424217,69.4668973 C80.3215413,69.4668973 77.8652004,66.9520185 77.8652004,63.8760669 C77.8652004,60.7616494 80.3215413,58.3237024 83.424217,58.3237024 L83.424217,58.3237024 L83.424217,58.3237024 Z M9.77161436,61.9991926 C10.338669,62.1119377 10.9433481,62.2246828 11.5480272,62.2246828 C12.1903308,62.2246828 12.7573854,62.1119377 13.3634083,61.9991926 L13.3634083,81.6964245 L9.77161436,81.6964245 L9.77161436,61.9991926 L9.77161436,61.9991926 Z M33.7048134,78.7703576 L41.7201709,78.7703576 L41.7201709,85.8985006 C41.7201709,86.7991349 41.0402428,87.4742791 40.1708486,87.4742791 L35.2554794,87.4742791 C34.3860852,87.4742791 33.7061571,86.7978085 33.7061571,85.8985006 L33.7061571,78.7703576 L33.7048134,78.7703576 L33.7048134,78.7703576 Z M80.1334189,78.7703576 L88.1877446,78.7703576 L88.1877446,85.8985006 C88.1877446,86.7991349 87.5051291,87.4742791 86.6370787,87.4742791 L81.6840849,87.4742791 C80.8160345,87.4742791 80.1334189,86.7978085 80.1334189,85.8985006 L80.1334189,78.7703576 L80.1334189,78.7703576 L80.1334189,78.7703576 Z M4.32815867,83.8346021 L18.8082077,83.8346021 C19.8294435,83.8346021 20.6235887,84.6238178 20.6235887,85.6358708 C20.6235887,86.6479239 19.8294435,87.4742791 18.8082077,87.4742791 L4.32815867,87.4742791 C3.30692285,87.4742791 2.47515314,86.6492503 2.47515314,85.6358708 C2.47515314,84.6224913 3.30692285,83.8346021 4.32815867,83.8346021 L4.32815867,83.8346021 L4.32815867,83.8346021 Z" id="Shape"></path>
                </g>
            </g>
        </g>
    </g>
</svg>