<?xml version="1.0" encoding="UTF-8" standalone="no"?>
<svg width="164px" height="164px" viewBox="0 0 164 164" version="1.1" xmlns="http://www.w3.org/2000/svg" xmlns:xlink="http://www.w3.org/1999/xlink" xmlns:sketch="http://www.bohemiancoding.com/sketch/ns">
    <!-- Generator: Sketch 3.3.3 (12081) - http://www.bohemiancoding.com/sketch -->
    <title>none_1</title>
    <desc>Created with Sketch.</desc>
    <defs></defs>
    <g id="Page-1" stroke="none" stroke-width="1" fill="none" fill-rule="evenodd" sketch:type="MSPage">
        <g id="Ocean-Profile-Set-Up-08-Copy-2" sketch:type="MSArtboardGroup" transform="translate(-213.000000, -813.000000)" stroke="#FFFFFF">
            <g id="none_1" sketch:type="MSLayerGroup" transform="translate(214.000000, 814.000000)">
                <path d="M81,162 C125.735065,162 162,125.735065 162,81 C162,36.2649353 125.735065,0 81,0 C36.2649353,0 0,36.2649353 0,81 C0,125.735065 36.2649353,162 81,162 Z M107.912774,50.5872257 C93.1464734,35.8209248 68.8535266,35.8209248 54.0872257,50.5872257 C39.3209248,65.3535266 39.3209248,89.6464734 54.0872257,104.412774 C68.8535266,119.179075 93.1464734,119.179075 107.912774,104.412774 C122.679075,89.6464734 122.679075,65.8298589 107.912774,50.5872257 Z M100.76779,57.73221 C110.770768,67.7351881 111.723433,83.4541536 103.625784,94.4097962 L64.0902038,54.397884 C75.5221787,46.3002351 90.7648119,47.729232 100.76779,57.73221 L100.76779,57.73221 Z M60.7558777,97.7441223 C50.7528997,87.7411442 49.8002351,72.0221787 57.897884,61.0665361 L97.9097962,101.078448 C86.001489,109.176097 70.7588558,107.7471 60.7558777,97.7441223 L60.7558777,97.7441223 Z" id="Oval-95" sketch:type="MSShapeGroup"></path>
            </g>
        </g>
    </g>
</svg>