<?xml version="1.0" encoding="UTF-8" standalone="no"?>
<svg width="189px" height="147px" viewBox="0 0 189 147" version="1.1" xmlns="http://www.w3.org/2000/svg" xmlns:xlink="http://www.w3.org/1999/xlink" xmlns:sketch="http://www.bohemiancoding.com/sketch/ns">
    <!-- Generator: Sketch 3.3.3 (12081) - http://www.bohemiancoding.com/sketch -->
    <title>anniversary</title>
    <desc>Created with Sketch.</desc>
    <defs></defs>
    <g id="READY-TO-BOARD" stroke="none" stroke-width="1" fill="none" fill-rule="evenodd" sketch:type="MSPage">
        <g id="Ocean-Profile-Set-Up-08-Copy-3" sketch:type="MSArtboardGroup" transform="translate(-634.000000, -321.000000)">
            <g id="anniversary" sketch:type="MSLayerGroup" transform="translate(634.000000, 321.000000)">
                <g id="motorcoach">
                    <g id="Upload-Scanned-Passp-+-noun_185598_cc-+-Rectangle-64-+-1">
                        <g id="Upload-Scanned-Passp-+-noun_185598_cc-+-Rectangle-64">
                            <g id="Upload-Scanned-Passp-+-noun_185598_cc" transform="translate(64.190063, 19.455882)" font-weight="260" font-family="Gotham" fill="#FFFFFF" font-size="10.08" sketch:alignment="middle" sketch:type="MSTextLayer">
                                <text id="Anniversary">
                                    <tspan x="0.985023625" y="8">Anniversary</tspan>
                                </text>
                            </g>
                            <rect id="Rectangle-64" stroke="#FFFFFF" stroke-width="0.72" sketch:type="MSShapeGroup" x="0" y="0" width="189" height="147" rx="7.2"></rect>
                        </g>
                    </g>
                </g>
                <g id="noun_31230_cc" transform="translate(48.050847, 56.722826)" fill="#FFFFFF" sketch:type="MSShapeGroup">
                    <g id="Group">
                        <path d="M50.9618243,67.8732836 C48.7759819,69.2252325 46.054608,70.9696826 44.7321733,71.8310049 L44.6884564,71.6783655 L44.6010227,71.7972061 C43.4862431,70.3591251 40.808586,67.0980936 38.7538941,64.6678565 C37.4533178,63.1414627 36.0543787,61.4951379 34.5898642,59.7386946 C33.6597882,61.1669632 32.7526636,62.4872939 31.9766895,63.6200962 C31.2444323,64.7332734 30.2935908,66.1495488 29.8575153,66.859322 L29.8345639,66.8811276 L29.5941212,67.2845317 L29.069519,67.0664754 C28.2826158,66.6314532 26.2934991,65.6491097 24.7098562,64.9088087 C16.8615888,61.1473381 3.86784826,54.9218317 1.63828893,48.3474353 C1.32134177,47.3443765 1.12461595,46.3642136 1.06996989,45.3818701 L1.06996989,45.3589742 L4.13014935,45.2401335 C4.19572463,45.9041148 4.32687517,46.6247908 4.56622493,47.3879877 C6.38047418,52.7412691 19.1785819,58.8359417 26.0530564,62.1176885 C26.9394156,62.5319954 27.7591065,62.9244967 28.4684124,63.274477 C28.7525719,62.8601701 29.0815412,62.3804463 29.4192538,61.8789169 C30.305613,60.5923849 31.3865121,58.9896714 32.5340794,57.2452212 C33.2346419,56.1658427 33.9559699,55.0319501 34.6652758,53.8762519 L34.6652758,53.8653491 C37.048937,49.9937601 39.310191,45.7427532 40.3047494,42.2429501 C40.4686875,41.665101 40.600931,41.0981547 40.6883647,40.5530141 L43.736522,40.8572026 C43.6381591,41.5222742 43.4862431,42.2091514 43.2895172,42.9287371 C42.1299278,47.1808343 39.4522708,52.0761974 36.7538483,56.4155171 C38.5134514,58.5295726 40.1746917,60.5040721 41.6392062,62.2267166 C43.0927914,63.9493611 44.4272483,65.4975606 45.4764526,66.8058982 C46.5027057,66.173535 47.6841535,65.4539494 48.995659,64.6569537 C60.624341,57.5265138 84.8544048,42.6986877 87.5539202,31.4796928 C89.1703507,24.2511276 86.3943308,19.3884729 83.7942712,16.6082555 C79.7067458,12.258033 73.236652,10.0338591 67.3239482,10.9496954 C62.3741079,11.7128923 56.7553998,15.3980432 52.7443789,20.6422964 C52.0449093,18.8008113 51.2361476,17.0236527 50.2962353,15.354432 L53.4886582,14.7220688 C56.5051208,10.8842785 61.2582353,8.04954706 66.7457928,7.22093325 C73.8814756,6.1197491 81.6423093,8.79093836 86.5604548,14.0351916 C91.1288656,18.8978463 92.7901059,25.4068258 91.2490869,32.3301123 C88.1648632,45.1191123 63.967587,59.9142299 50.9618243,67.8732836 L50.9618243,67.8732836 Z" id="Shape"></path>
                        <path d="M21.2452959,35.1975522 C22.1513276,33.1914345 23.6923466,31.4033731 25.6388393,30.1604524 C28.8957446,28.0344038 33.5953059,27.6091941 37.1800875,29.0919767 C40.6227894,30.5311481 42.9507117,33.4421992 43.7605663,37.3017951 C43.9682213,38.3702708 43.9463629,39.5695803 43.737615,40.8561123 L40.6894576,40.5519238 C40.8424666,39.5804831 40.8752542,38.6875427 40.7211523,37.913443 C39.9681296,34.3035215 37.7385703,32.6790023 35.9888034,31.9605069 C33.3002171,30.8375171 29.7711745,31.1646015 27.321938,32.7455095 C25.6060516,33.8466936 24.1196788,35.9182281 23.2125541,38.3713611 C22.9611823,38.9819187 22.7753856,39.6142818 22.6223767,40.2564575 L22.4037924,41.2050023 L21.715252,40.5290279 C20.63326,39.4496494 19.5621972,38.5883271 18.5020636,37.9341583 C16.9063986,36.9310995 15.3336849,36.3968616 13.7259978,36.2987363 C13.5631525,36.2987363 13.3871922,36.2878335 13.2352762,36.2878335 C10.3488712,36.2878335 7.48541755,37.6506852 5.77062413,39.8530535 C4.85257029,41.0196545 3.94544566,42.8077159 4.13124227,45.2390432 L1.07106281,45.3578839 C0.863407777,42.6550765 1.63938185,40.0929153 3.33231685,37.933068 C5.78046042,34.8257662 9.90077348,32.9613852 13.9128873,33.2121499 C14.6659101,33.2557611 15.3653797,33.3647893 16.0320616,33.5076161 C13.3106877,28.197946 11.7150227,23.1935547 12.1194036,19.0384926 C12.9500237,11.9516639 16.6768851,6.3476179 22.6005182,3.25230921 C28.9722491,-0.0850419437 37.1800875,-0.0621460358 43.5518183,3.31772609 C48.9847298,6.17426317 52.4383609,10.0665675 53.4875653,14.7220688 L50.2951424,15.354432 C48.2196849,11.6910867 45.4972181,8.58378491 41.7703567,6.64308414 C36.4598524,3.88576266 29.6498602,3.8192555 24.3502851,6.58857008 C20.9731585,8.36572864 16.7654118,12.0399767 15.8910748,19.442987 C15.4746718,23.6514729 17.747948,29.2555189 21.2452959,35.1975522 L21.2452959,35.1975522 Z" id="Shape"></path>
                    </g>
                </g>
            </g>
        </g>
    </g>
</svg>