<?xml version="1.0" encoding="UTF-8" standalone="no"?>
<svg width="189px" height="147px" viewBox="0 0 189 147" version="1.1" xmlns="http://www.w3.org/2000/svg" xmlns:xlink="http://www.w3.org/1999/xlink" xmlns:sketch="http://www.bohemiancoding.com/sketch/ns">
    <!-- Generator: Sketch 3.3.3 (12081) - http://www.bohemiancoding.com/sketch -->
    <title>honeymoon</title>
    <desc>Created with Sketch.</desc>
    <defs></defs>
    <g id="READY-TO-BOARD" stroke="none" stroke-width="1" fill="none" fill-rule="evenodd" sketch:type="MSPage">
        <g id="Ocean-Profile-Set-Up-08-Copy-3" sketch:type="MSArtboardGroup" transform="translate(-1078.000000, -321.000000)">
            <g id="honeymoon" sketch:type="MSLayerGroup" transform="translate(1078.000000, 321.000000)">
                <g>
                    <g id="Upload-Profile-Photo-+-noun_54985_cc-+-Oval-255-Copy" transform="translate(63.896623, 19.455882)" font-weight="260" font-family="Gotham" fill="#FFFFFF" font-size="10.08" sketch:alignment="middle" sketch:type="MSTextLayer">
                        <text id="Honeymoon">
                            <tspan x="0.577903915" y="8">Honeymoon</tspan>
                        </text>
                    </g>
                    <rect id="Rectangle-64-Copy-2" stroke="#FFFFFF" stroke-width="0.72" sketch:type="MSShapeGroup" x="0" y="0" width="189" height="147" rx="7.2"></rect>
                </g>
                <g id="noun_117717_cc" transform="translate(55.347458, 44.739130)" fill="#FFFFFF" sketch:type="MSShapeGroup">
                    <g id="Group">
                        <path d="M68.9618644,75.807971 L64.9576271,55.0362319 C73.9449153,52.6394928 79.6398305,43.673913 77.9491525,34.442029 C77.6822034,33.2880435 77.3262712,32.0452899 76.8813559,30.8913043 L70.9194915,12.9601449 L41.3771186,18.6413043 L42.4449153,37.4601449 C42.4449153,38.7028986 42.5338983,39.9456522 42.8008475,41.0996377 C44.4025424,49.4438406 51.7881356,55.5688406 60.3305085,55.5688406 C61.0423729,55.5688406 61.7542373,55.4800725 62.4661017,55.4800725 L66.470339,76.2518116 L60.5974576,77.317029 L61.1313559,79.8025362 L75.4576271,77.0507246 L74.9237288,74.5652174 L68.9618644,75.807971 L68.9618644,75.807971 Z M69.1398305,15.8007246 L72.7881356,26.9855072 C71.5423729,27.7844203 69.1398305,29.0271739 66.3813559,30.0923913 C60.2415254,32.4891304 57.3940678,31.6014493 56.1483051,30.4474638 C55.1694915,29.5597826 54.1016949,29.2047101 52.8559322,29.3822464 C50.8983051,29.5597826 48.5847458,30.8913043 46.0042373,33.2880435 C45.559322,33.7318841 45.1144068,34.1757246 44.7584746,34.5307971 L43.8686441,20.5942029 L69.1398305,15.8007246 L69.1398305,15.8007246 Z M45.2923729,40.567029 C45.1144068,39.5018116 45.0254237,38.4365942 45.0254237,37.3713768 C46.7161017,35.3297101 50.4533898,31.5126812 53.1228814,31.2463768 C53.8347458,31.1576087 54.3686441,31.423913 54.9025424,31.8677536 C57.3940678,34.1757246 61.4872881,34.1757246 67.2711864,31.9565217 C69.8516949,30.8913043 72.1652542,29.7373188 73.5,28.9384058 L74.3898305,31.6902174 L74.3898305,31.7789855 C74.8347458,32.8442029 75.190678,33.8206522 75.3686441,34.8858696 C76.970339,43.1413043 71.5423729,51.1304348 63.2669492,52.817029 C62.2881356,52.9945652 61.309322,53.0833333 60.3305085,53.0833333 C53.0338983,52.9057971 46.7161017,47.7572464 45.2923729,40.567029 L45.2923729,40.567029 Z" id="Shape"></path>
                        <path d="M7.47457627,12.7826087 L1.51271186,30.7137681 C0.978813559,31.7789855 0.622881356,33.0217391 0.444915254,34.2644928 C-1.33474576,43.4963768 4.36016949,52.5507246 13.4364407,54.8586957 L9.43220339,75.6304348 L3.55932203,74.5652174 L3.02542373,77.0507246 L17.3516949,79.8025362 L17.8855932,77.317029 L12.0127119,76.2518116 L16.0169492,55.4800725 C16.7288136,55.5688406 17.440678,55.5688406 18.1525424,55.5688406 L18.1525424,55.5688406 C26.6949153,55.5688406 34.1694915,49.5326087 35.6822034,41.0996377 C35.9491525,39.9456522 36.0381356,38.6141304 36.0381356,37.4601449 L37.1059322,18.6413043 L7.47457627,12.7826087 L7.47457627,12.7826087 Z M9.16525424,15.8007246 L34.3474576,20.682971 L33.4576271,34.6195652 C33.0127119,34.1757246 32.5677966,33.7318841 32.2118644,33.3768116 C29.6313559,30.8913043 27.3177966,29.5597826 25.3601695,29.4710145 C24.1144068,29.3822464 22.9576271,29.7373188 22.0677966,30.5362319 C20.8220339,31.6902174 18.0635593,32.5778986 11.8347458,30.1811594 C9.16525424,29.115942 6.67372881,27.7844203 5.4279661,27.0742754 L9.16525424,15.8007246 L9.16525424,15.8007246 Z M33.1016949,40.567029 C31.7669492,47.7572464 25.4491525,52.9945652 18.0635593,52.9945652 C17.0847458,52.9945652 16.1059322,52.9057971 15.1271186,52.7282609 C6.85169492,51.1304348 1.33474576,43.0525362 3.02542373,34.7971014 C3.20338983,33.7318841 3.55932203,32.7554348 4.00423729,31.6902174 L4.00423729,31.6014493 L4.98305085,28.8496377 C6.31779661,29.6485507 8.63135593,30.8913043 11.2118644,31.8677536 C16.9957627,34.0869565 21.0889831,34.0869565 23.5805085,31.7789855 C24.1144068,31.3351449 24.6483051,31.0688406 25.3601695,31.1576087 C28.1186441,31.423913 31.7669492,35.240942 33.4576271,37.2826087 C33.3686441,38.4365942 33.279661,39.5018116 33.1016949,40.567029 L33.1016949,40.567029 Z" id="Shape"></path>
                        <path d="M45.6483051,5.5923913 C45.6483051,3.81702899 44.2245763,2.39673913 42.4449153,2.39673913 C40.6652542,2.39673913 39.2415254,3.81702899 39.2415254,5.5923913 C39.2415254,7.36775362 40.6652542,8.78804348 42.4449153,8.78804348 C44.2245763,8.87681159 45.6483051,7.45652174 45.6483051,5.5923913 L45.6483051,5.5923913 Z M40.220339,5.5923913 C40.220339,4.4384058 41.2881356,3.37318841 42.4449153,3.37318841 C43.6016949,3.37318841 44.6694915,4.4384058 44.6694915,5.5923913 C44.6694915,6.74637681 43.6016949,7.8115942 42.4449153,7.8115942 C41.1991525,7.8115942 40.220339,6.83514493 40.220339,5.5923913 L40.220339,5.5923913 Z" id="Shape"></path>
                        <path d="M28.5635593,9.05434783 C28.5635593,10.8297101 29.9872881,12.25 31.7669492,12.25 C33.5466102,12.25 34.970339,10.8297101 34.970339,9.05434783 C34.970339,7.27898551 33.5466102,5.85869565 31.7669492,5.85869565 C29.9872881,5.76992754 28.5635593,7.27898551 28.5635593,9.05434783 L28.5635593,9.05434783 Z M31.8559322,6.83514493 C33.0127119,6.83514493 34.0805085,7.90036232 34.0805085,9.05434783 C34.0805085,10.2083333 33.0127119,11.2735507 31.8559322,11.2735507 C30.6991525,11.2735507 29.6313559,10.2083333 29.6313559,9.05434783 C29.6313559,7.90036232 30.6101695,6.83514493 31.8559322,6.83514493 L31.8559322,6.83514493 Z" id="Shape"></path>
                        <path d="M52.6779661,9.85326087 C53.8347458,9.85326087 54.9025424,8.78804348 54.9025424,7.63405797 C54.9025424,6.48007246 53.8347458,5.41485507 52.6779661,5.41485507 C51.5211864,5.41485507 50.4533898,6.48007246 50.4533898,7.63405797 C50.4533898,8.87681159 51.4322034,9.85326087 52.6779661,9.85326087 L52.6779661,9.85326087 Z M52.6779661,6.48007246 C53.3898305,6.48007246 53.8347458,7.01268116 53.8347458,7.63405797 C53.8347458,8.3442029 53.3008475,8.78804348 52.6779661,8.78804348 C52.0550847,8.78804348 51.5211864,8.25543478 51.5211864,7.63405797 C51.4322034,7.01268116 51.9661017,6.48007246 52.6779661,6.48007246 L52.6779661,6.48007246 Z" id="Shape"></path>
                        <path d="M29.0974576,4.4384058 C30.2542373,4.4384058 31.3220339,3.37318841 31.3220339,2.2192029 C31.3220339,1.06521739 30.2542373,0 29.0974576,0 C27.940678,0 26.8728814,1.06521739 26.8728814,2.2192029 C26.8728814,3.37318841 27.8516949,4.4384058 29.0974576,4.4384058 L29.0974576,4.4384058 Z M29.0974576,1.06521739 C29.809322,1.06521739 30.2542373,1.59782609 30.2542373,2.2192029 C30.2542373,2.84057971 29.720339,3.37318841 29.0974576,3.37318841 C28.3855932,3.37318841 27.940678,2.84057971 27.940678,2.2192029 C27.940678,1.59782609 28.4745763,1.06521739 29.0974576,1.06521739 L29.0974576,1.06521739 Z" id="Shape"></path>
                    </g>
                </g>
            </g>
        </g>
    </g>
</svg>