<?xml version="1.0" encoding="UTF-8" standalone="no"?>
<svg width="162px" height="162px" viewBox="0 0 162 162" version="1.1" xmlns="http://www.w3.org/2000/svg" xmlns:xlink="http://www.w3.org/1999/xlink" xmlns:sketch="http://www.bohemiancoding.com/sketch/ns">
    <!-- Generator: Sketch 3.3.3 (12081) - http://www.bohemiancoding.com/sketch -->
    <title>wheelchair</title>
    <desc>Created with Sketch.</desc>
    <defs></defs>
    <g id="Page-1" stroke="none" stroke-width="1" fill="none" fill-rule="evenodd" sketch:type="MSPage">
        <g id="Ocean-Profile-Set-Up-08-Copy-2" sketch:type="MSArtboardGroup" transform="translate(-502.000000, -302.000000)" fill="#FFFFFF">
            <g id="wheelchair" sketch:type="MSLayerGroup" transform="translate(502.000000, 302.000000)">
                <path d="M81,162 C125.735065,162 162,125.735065 162,81 C162,36.2649353 125.735065,0 81,0 C36.2649353,0 0,36.2649353 0,81 C0,125.735065 36.2649353,162 81,162 Z" id="Oval-95" fill-opacity="0.15" sketch:type="MSShapeGroup"></path>
                <g id="Shape-+-Oval" transform="translate(47.000000, 30.000000)" sketch:type="MSShapeGroup">
                    <path d="M58.3123182,75.0328889 C58.5203636,74.5545333 58.6374545,74.0218667 58.6374545,73.4641333 L58.6374545,50.8905556 C58.6374545,50.6033333 58.6071364,50.3307333 58.5496364,50.0623111 C58.1272727,47.7123111 56.0729545,45.9252667 53.5858182,45.9252667 L37.5516818,45.9252667 L37.5516818,25.8614889 C37.5516818,21.9824222 34.3891818,18.8386444 30.4865,18.8386444 C27.922,18.8386444 25.6836818,20.2006 24.4469091,22.2330889 L13.9244091,34.6974889 C13.4435,35.2677556 13.2135,35.9633556 13.2176818,36.6516444 C13.2176818,37.0307778 13.2856364,37.4130444 13.4372273,37.7848667 L16.9311364,46.3837778 C7.10386364,49.5703778 0,58.7541778 0,69.5871556 C0,83.0688444 10.9950455,94 24.5566818,94 C38.1183182,94 49.1144091,83.0688444 49.1144091,69.5871556 C49.1144091,64.5414444 47.5681818,59.8518889 44.9305,55.9582 L50.5644545,55.9582 L50.5644545,73.4641333 C50.5644545,74.0281333 50.6846818,74.5649778 50.8948182,75.0527333 C50.1922727,75.1404667 49.6496818,75.7284889 49.6496818,76.4512444 C49.6496818,77.2335333 50.2863636,77.8664667 51.0725455,77.8664667 L65.3984091,77.8664667 L65.3984091,81.4342889 C65.3984091,83.3863556 63.802,84.9749556 61.8375909,84.9749556 C61.7884545,84.9749556 61.7435,84.9833111 61.6943636,84.9874889 C60.9468636,81.7194222 58.0091364,79.2712444 54.4964091,79.2712444 C50.4212273,79.2712444 47.1092273,82.5675111 47.1092273,86.6168222 C47.1092273,90.6661333 50.4212273,93.9571778 54.4964091,93.9571778 C58.1596818,93.9571778 61.2082273,91.2886222 61.778,87.7991333 C61.7989091,87.8012222 61.8145909,87.8064444 61.8375909,87.8064444 C65.3722727,87.8064444 68.2493636,84.9488444 68.2493636,81.4342889 L68.2493636,75.0318444 L58.3123182,75.0318444 L58.3123182,75.0328889 Z M21.1485,55.7430444 C21.9754545,56.4052222 23.1285909,56.6162 24.1845,56.1952889 C24.6528636,56.0041556 25.0459545,55.7138 25.3533182,55.3534667 C32.8920909,55.7670667 38.8992727,61.993 38.8992727,69.5871556 C38.8992727,77.4497333 32.4655455,83.8459111 24.5577273,83.8459111 C16.6509545,83.8459111 10.2182727,77.4497333 10.2182727,69.5871556 C10.2161818,62.8954 14.881,57.2679333 21.1485,55.7430444 L21.1485,55.7430444 Z M19.7266818,37.1884889 L23.4223636,32.8101778 L23.4223636,45.2056444 C23.2780909,45.2119111 23.138,45.2223556 22.9947727,45.2317556 L19.7266818,37.1884889 L19.7266818,37.1884889 Z M44.1286364,69.5871556 C44.1286364,80.3167333 35.3489091,89.0430667 24.5566818,89.0430667 C13.7655,89.0430667 4.98472727,80.3177778 4.98472727,69.5871556 C4.98472727,60.8514222 10.8120909,53.4400444 18.8056364,50.9897778 L19.7015909,53.1956444 C12.5736818,55.2803556 7.36731818,61.8279778 7.36731818,69.5861111 C7.36731818,79.0258 15.0629091,86.6732222 24.5556364,86.6732222 C34.0494091,86.6732222 41.7439545,79.0258 41.7439545,69.5861111 C41.7439545,64.0202667 39.0655,59.0769111 34.9213182,55.9571556 L38.5051364,55.9571556 C41.9812727,59.4717111 44.1286364,64.2855556 44.1286364,69.5871556 L44.1286364,69.5871556 Z M54.4964091,90.4206889 C52.3835455,90.4206889 50.6679545,88.7119778 50.6679545,86.6168222 C50.6679545,84.5154 52.3835455,82.8108667 54.4964091,82.8108667 C56.6061364,82.8108667 58.3227727,84.5154 58.3227727,86.6168222 C58.3227727,88.7130222 56.6061364,90.4206889 54.4964091,90.4206889 L54.4964091,90.4206889 Z" id="Shape"></path>
                    <ellipse id="Oval" cx="33.7336818" cy="8.02655556" rx="8.073" ry="8.02655556"></ellipse>
                </g>
            </g>
        </g>
    </g>
</svg>