<?xml version="1.0" encoding="UTF-8" standalone="no"?>
<svg width="162px" height="162px" viewBox="0 0 162 162" version="1.1" xmlns="http://www.w3.org/2000/svg" xmlns:xlink="http://www.w3.org/1999/xlink" xmlns:sketch="http://www.bohemiancoding.com/sketch/ns">
    <!-- Generator: Sketch 3.3.3 (12081) - http://www.bohemiancoding.com/sketch -->
    <title>security</title>
    <desc>Created with Sketch.</desc>
    <defs></defs>
    <g id="Page-1" stroke="none" stroke-width="1" fill="none" fill-rule="evenodd" sketch:type="MSPage">
        <g id="Ocean-Profile-Set-Up-08" sketch:type="MSArtboardGroup" transform="translate(-759.000000, -343.000000)">
            <g id="security" sketch:type="MSLayerGroup" transform="translate(759.000000, 343.000000)">
                <g id="passport" fill-opacity="0.15" fill="#FFFFFF" sketch:type="MSShapeGroup">
                    <g id="Oval-95-+-noun_185598_cc">
                        <circle id="Oval-95" cx="81" cy="81" r="81"></circle>
                    </g>
                </g>
                <g id="Group" transform="translate(45.000000, 37.000000)" sketch:type="MSShapeGroup">
                    <path d="M59.8082725,62.7187631 L59.8082725,61.1149313 L59.8082725,60.8476261 C59.700802,56.9984299 59.0022442,54.3788381 55.0795734,51.9730904 C49.9209925,48.765427 44.1713243,45.985452 44.1713243,45.985452 C43.365296,45.5577635 42.8816791,44.3816202 42.613003,42.9381717 C42.5592678,42.5104832 42.4517973,42.0827947 42.3980621,41.6551063 C47.7715838,36.9505332 46.6431443,26.8463932 46.6431443,26.8463932 C46.1057921,15.512649 36.5946587,15.56611 35.6274248,15.6195711 C34.7139261,15.56611 25.1490574,15.512649 24.6117052,26.8463932 C24.6117052,26.8463932 23.4832657,36.9505332 28.8567874,41.6551063 C28.8030522,42.0827947 28.749317,42.5104832 28.6418465,42.9381717 C28.3731704,44.3816202 27.8895535,45.5577635 27.0835252,45.985452 C27.0835252,45.985452 21.333857,48.765427 16.1752761,51.9730904 C12.3063405,54.3788381 11.5540475,56.9984299 11.446577,60.794165 L11.446577,61.1149313 L11.446577,62.9326073 C11.446577,62.9326073 11.7783424,62.9326078 11.9442251,62.9326081 C12.2125194,62.9326085 12.7491082,62.9326092 12.7491082,62.9326092 L59.8082725,62.7187631 Z M66.7782212,62.3220696 L66.7782212,62.3220696 C66.7782212,62.1840212 66.7782212,62.2530454 66.7782212,62.3220696 L66.7782212,62.3220696 Z M4.61538462,62.3220696 L4.61538462,62.3220696 C4.61538462,62.2530454 4.61538462,62.1840212 4.61538462,62.3220696 L4.61538462,62.3220696 Z" id="Shape" fill-opacity="0.6" fill="#FFFFFF"></path>
                    <rect id="Rectangle-57" fill-opacity="0.6" fill="#FFFFFF" x="0" y="78.0612245" width="72" height="3.67346939" rx="40"></rect>
                    <rect id="Rectangle-57-Copy" fill-opacity="0.6" fill="#FFFFFF" x="0" y="86.3265306" width="72" height="3.67346939" rx="40"></rect>
                    <rect id="Rectangle-59" stroke-opacity="0.6" stroke="#FFFFFF" stroke-width="4" x="0" y="0" width="72" height="71.6326531" rx="4"></rect>
                </g>
            </g>
        </g>
    </g>
</svg>