<?xml version="1.0" encoding="UTF-8" standalone="no"?>
<svg width="262px" height="204px" viewBox="0 0 262 204" version="1.1" xmlns="http://www.w3.org/2000/svg" xmlns:xlink="http://www.w3.org/1999/xlink" xmlns:sketch="http://www.bohemiancoding.com/sketch/ns">
    <!-- Generator: Sketch 3.3.3 (12081) - http://www.bohemiancoding.com/sketch -->
    <title>custom</title>
    <desc>Created with Sketch.</desc>
    <defs></defs>
    <g id="SIGN-IN" stroke="none" stroke-width="1" fill="none" fill-rule="evenodd" sketch:type="MSPage">
        <g id="Ocean-Profile-Set-Up-03---Drop-down-menu" sketch:type="MSArtboardGroup" transform="translate(-1108.000000, -309.000000)">
            <g id="custom" sketch:type="MSLayerGroup" transform="translate(1108.000000, 309.000000)">
                <g id="Upload-Profile-Photo-+-noun_54985_cc-+-Oval-255-Copy-+-Rectangle-64-Copy-2">
                    <g id="Upload-Profile-Photo-+-noun_54985_cc-+-Oval-255-Copy" transform="translate(104.000000, 27.000000)" font-weight="260" font-family="Gotham" fill="#FFFFFF" font-size="14" sketch:alignment="middle" sketch:type="MSTextLayer">
                        <text id="Custom">
                            <tspan x="0.802" y="11">Custom</tspan>
                        </text>
                    </g>
                    <rect id="Rectangle-64-Copy-2" stroke="#FFFFFF" sketch:type="MSShapeGroup" x="0" y="0" width="262" height="204" rx="10"></rect>
                </g>
                <g id="Group" transform="translate(90.000000, 77.000000)" sketch:type="MSShapeGroup">
                    <g id="noun_198707_cc-copy" transform="translate(9.821429, 0.000000)" fill="#FFFFFF">
                        <path d="M30.3030303,70.8874459 C38.2395382,70.8874459 45.8152958,67.8210678 51.4069264,62.2294372 C62.4098124,51.2265512 62.950938,33.9105339 53.2106782,22.1861472 L65.8369408,9.55988456 L65.8369408,15.8730159 C65.8369408,17.3160173 67.0995671,18.5786436 68.5425685,18.5786436 C69.98557,18.5786436 71.2481962,17.3160173 71.2481962,15.8730159 L71.2481962,2.88600289 C71.2481962,2.52525253 71.2481962,2.16450216 71.0678211,1.98412698 L71.0678211,1.98412698 C70.7070707,1.26262626 70.3463203,0.721500722 69.6248196,0.541125541 L69.6248196,0.541125541 C69.2640693,0.360750361 68.9033189,0.360750361 68.7229437,0.360750361 L55.9163059,0.360750361 C54.4733045,0.360750361 53.2106782,1.62337662 53.2106782,3.06637807 C53.2106782,4.50937951 54.4733045,5.77200577 55.9163059,5.77200577 L62.2294372,5.77200577 L49.6031746,18.3982684 C44.1919192,13.8888889 37.5180375,11.5440115 30.4834055,11.5440115 C22.5468975,11.5440115 14.97114,14.6103896 9.37950938,20.2020202 C-2.16450216,31.7460317 -2.16450216,50.6854257 9.37950938,62.2294372 C14.7907648,67.8210678 22.3665224,70.8874459 30.3030303,70.8874459 L30.3030303,70.8874459 Z M12.987013,23.989899 C17.4963925,19.4805195 23.6291486,16.7748918 30.1226551,16.7748918 C36.6161616,16.7748918 42.7489177,19.3001443 47.2582973,23.989899 C56.8181818,33.5497835 56.8181818,48.8816739 47.2582973,58.4415584 C42.7489177,62.950938 36.6161616,65.6565657 30.1226551,65.6565657 C23.6291486,65.6565657 17.4963925,63.1313131 12.987013,58.4415584 C3.60750361,48.8816739 3.60750361,33.3694084 12.987013,23.989899 L12.987013,23.989899 Z" id="Shape"></path>
                    </g>
                    <g id="noun_198707_cc-copy-2" transform="translate(35.714286, 35.714286) scale(-1, 1) translate(-35.714286, -35.714286) " fill="#FFFFFF">
                        <path d="M30.3030303,70.8874459 C38.2395382,70.8874459 45.8152958,67.8210678 51.4069264,62.2294372 C62.4098124,51.2265512 62.950938,33.9105339 53.2106782,22.1861472 L65.8369408,9.55988456 L65.8369408,15.8730159 C65.8369408,17.3160173 67.0995671,18.5786436 68.5425685,18.5786436 C69.98557,18.5786436 71.2481962,17.3160173 71.2481962,15.8730159 L71.2481962,2.88600289 C71.2481962,2.52525253 71.2481962,2.16450216 71.0678211,1.98412698 L71.0678211,1.98412698 C70.7070707,1.26262626 70.3463203,0.721500722 69.6248196,0.541125541 L69.6248196,0.541125541 C69.2640693,0.360750361 68.9033189,0.360750361 68.7229437,0.360750361 L55.9163059,0.360750361 C54.4733045,0.360750361 53.2106782,1.62337662 53.2106782,3.06637807 C53.2106782,4.50937951 54.4733045,5.77200577 55.9163059,5.77200577 L62.2294372,5.77200577 L49.6031746,18.3982684 C44.1919192,13.8888889 37.5180375,11.5440115 30.4834055,11.5440115 C22.5468975,11.5440115 14.97114,14.6103896 9.37950938,20.2020202 C-2.16450216,31.7460317 -2.16450216,50.6854257 9.37950938,62.2294372 C14.7907648,67.8210678 22.3665224,70.8874459 30.3030303,70.8874459 L30.3030303,70.8874459 Z M12.987013,23.989899 C17.4963925,19.4805195 23.6291486,16.7748918 30.1226551,16.7748918 C36.6161616,16.7748918 42.7489177,19.3001443 47.2582973,23.989899 C56.8181818,33.5497835 56.8181818,48.8816739 47.2582973,58.4415584 C42.7489177,62.950938 36.6161616,65.6565657 30.1226551,65.6565657 C23.6291486,65.6565657 17.4963925,63.1313131 12.987013,58.4415584 C3.60750361,48.8816739 3.60750361,33.3694084 12.987013,23.989899 L12.987013,23.989899 Z" id="Shape"></path>
                    </g>
                    <g id="noun_198709_cc-copy" transform="translate(8.928571, 9.821429)" fill="#FFFFFF">
                        <path d="M28.3482143,61.6443452 L28.3482143,75.0372024 L21.8377976,75.0372024 C20.3497024,75.0372024 19.047619,76.3392857 19.047619,77.827381 C19.047619,79.3154762 20.3497024,80.6175595 21.8377976,80.6175595 L28.3482143,80.6175595 L28.3482143,86.9419643 C28.3482143,88.4300595 29.6502976,89.7321429 31.1383929,89.7321429 C32.6264881,89.7321429 33.9285714,88.4300595 33.9285714,86.9419643 L33.9285714,80.6175595 L40.4389881,80.6175595 C41.9270833,80.6175595 43.2291667,79.3154762 43.2291667,77.827381 C43.2291667,76.3392857 41.9270833,75.0372024 40.4389881,75.0372024 L33.9285714,75.0372024 L33.9285714,61.6443452 C49.5535714,60.15625 61.8303571,47.1354167 61.8303571,31.1383929 C61.8303571,14.2113095 48.0654762,0.446428571 31.1383929,0.446428571 C14.2113095,0.446428571 0.446428571,14.2113095 0.446428571,31.1383929 C0.446428571,47.1354167 12.7232143,60.3422619 28.3482143,61.6443452 L28.3482143,61.6443452 Z M31.1383929,6.02678571 C44.9032738,6.02678571 56.25,17.3735119 56.25,31.1383929 C56.25,44.9032738 44.9032738,56.25 31.1383929,56.25 C17.3735119,56.25 6.02678571,44.9032738 6.02678571,31.1383929 C6.02678571,17.3735119 17.3735119,6.02678571 31.1383929,6.02678571 L31.1383929,6.02678571 Z" id="Shape"></path>
                    </g>
                    <path d="M9.375,20.0892857 L20.0892857,9.375" id="Line" stroke="#FFFFFF" stroke-width="6" stroke-linecap="round"></path>
                </g>
            </g>
        </g>
    </g>
</svg>