<?xml version="1.0" encoding="UTF-8" standalone="no"?>
<svg width="162px" height="162px" viewBox="0 0 162 162" version="1.1" xmlns="http://www.w3.org/2000/svg" xmlns:xlink="http://www.w3.org/1999/xlink" xmlns:sketch="http://www.bohemiancoding.com/sketch/ns">
    <!-- Generator: Sketch 3.3.3 (12081) - http://www.bohemiancoding.com/sketch -->
    <title>Custom</title>
    <desc>Created with Sketch.</desc>
    <defs></defs>
    <g id="Page-1" stroke="none" stroke-width="1" fill="none" fill-rule="evenodd" sketch:type="MSPage">
        <g id="Ocean-Profile-Set-Up-03---Drop-down-menu" sketch:type="MSArtboardGroup" transform="translate(-1016.000000, -302.000000)">
            <g id="Custom" sketch:type="MSLayerGroup" transform="translate(1016.000000, 302.000000)">
                <path d="M81,162 C125.735065,162 162,125.735065 162,81 C162,36.2649353 125.735065,0 81,0 C36.2649353,0 0,36.2649353 0,81 C0,125.735065 36.2649353,162 81,162 Z" id="Oval-95" fill-opacity="0.15" fill="#FFFFFF" sketch:type="MSShapeGroup"></path>
                <g id="Group" transform="translate(47.343750, 45.516356)" sketch:type="MSShapeGroup">
                    <g id="noun_198707_cc-copy" transform="translate(8.894918, 0.000000)" fill="#FFFFFF">
                        <path d="M24.3589744,56.9826007 C30.7387057,56.9826007 36.8284493,54.5177045 41.3232601,50.0228938 C50.1678877,41.1782662 50.6028694,27.2588523 42.773199,17.8342491 L52.9227717,7.68467643 L52.9227717,12.7594628 C52.9227717,13.9194139 53.9377289,14.9343712 55.0976801,14.9343712 C56.2576313,14.9343712 57.2725885,13.9194139 57.2725885,12.7594628 L57.2725885,2.31990232 C57.2725885,2.02991453 57.2725885,1.73992674 57.1275946,1.59493284 L57.1275946,1.59493284 C56.8376068,1.01495726 56.547619,0.57997558 55.9676435,0.434981685 L55.9676435,0.434981685 C55.6776557,0.28998779 55.3876679,0.28998779 55.242674,0.28998779 L44.9481074,0.28998779 C43.7881563,0.28998779 42.773199,1.30494505 42.773199,2.46489621 C42.773199,3.62484737 43.7881563,4.63980464 44.9481074,4.63980464 L50.0228938,4.63980464 L39.8733211,14.7893773 C35.5235043,11.1645299 30.1587302,9.27960928 24.5039683,9.27960928 C18.1242369,9.27960928 12.0344933,11.7445055 7.53968254,16.2393162 C-1.73992674,25.5189255 -1.73992674,40.7432845 7.53968254,50.0228938 C11.8894994,54.5177045 17.979243,56.9826007 24.3589744,56.9826007 L24.3589744,56.9826007 Z M10.4395604,19.284188 C14.0644078,15.6593407 18.9942002,13.4844322 24.2139805,13.4844322 C29.4337607,13.4844322 34.3635531,15.5143468 37.9884005,19.284188 C45.6730769,26.9688645 45.6730769,39.2933455 37.9884005,46.978022 C34.3635531,50.6028694 29.4337607,52.7777778 24.2139805,52.7777778 C18.9942002,52.7777778 14.0644078,50.7478632 10.4395604,46.978022 C2.8998779,39.2933455 2.8998779,26.8238706 10.4395604,19.284188 L10.4395604,19.284188 Z" id="Shape"></path>
                    </g>
                    <g id="noun_198707_cc-copy-2" transform="translate(29.417582, 28.500000) scale(-1, 1) translate(-29.417582, -28.500000) translate(0.417582, 0.000000)" fill="#FFFFFF">
                        <path d="M24.3589744,56.9826007 C30.7387057,56.9826007 36.8284493,54.5177045 41.3232601,50.0228938 C50.1678877,41.1782662 50.6028694,27.2588523 42.773199,17.8342491 L52.9227717,7.68467643 L52.9227717,12.7594628 C52.9227717,13.9194139 53.9377289,14.9343712 55.0976801,14.9343712 C56.2576313,14.9343712 57.2725885,13.9194139 57.2725885,12.7594628 L57.2725885,2.31990232 C57.2725885,2.02991453 57.2725885,1.73992674 57.1275946,1.59493284 L57.1275946,1.59493284 C56.8376068,1.01495726 56.547619,0.57997558 55.9676435,0.434981685 L55.9676435,0.434981685 C55.6776557,0.28998779 55.3876679,0.28998779 55.242674,0.28998779 L44.9481074,0.28998779 C43.7881563,0.28998779 42.773199,1.30494505 42.773199,2.46489621 C42.773199,3.62484737 43.7881563,4.63980464 44.9481074,4.63980464 L50.0228938,4.63980464 L39.8733211,14.7893773 C35.5235043,11.1645299 30.1587302,9.27960928 24.5039683,9.27960928 C18.1242369,9.27960928 12.0344933,11.7445055 7.53968254,16.2393162 C-1.73992674,25.5189255 -1.73992674,40.7432845 7.53968254,50.0228938 C11.8894994,54.5177045 17.979243,56.9826007 24.3589744,56.9826007 L24.3589744,56.9826007 Z M10.4395604,19.284188 C14.0644078,15.6593407 18.9942002,13.4844322 24.2139805,13.4844322 C29.4337607,13.4844322 34.3635531,15.5143468 37.9884005,19.284188 C45.6730769,26.9688645 45.6730769,39.2933455 37.9884005,46.978022 C34.3635531,50.6028694 29.4337607,52.7777778 24.2139805,52.7777778 C18.9942002,52.7777778 14.0644078,50.7478632 10.4395604,46.978022 C2.8998779,39.2933455 2.8998779,26.8238706 10.4395604,19.284188 L10.4395604,19.284188 Z" id="Shape"></path>
                    </g>
                    <g id="noun_198709_cc-copy" transform="translate(8.177198, 7.894918)" fill="#FFFFFF">
                        <path d="M22.787603,49.5525698 L22.787603,60.3183665 L17.5542296,60.3183665 C16.35803,60.3183665 15.3113553,61.3650412 15.3113553,62.5612408 C15.3113553,63.7574405 16.35803,64.8041152 17.5542296,64.8041152 L22.787603,64.8041152 L22.787603,69.8879636 C22.787603,71.0841632 23.8342777,72.1308379 25.0304773,72.1308379 C26.226677,72.1308379 27.2733516,71.0841632 27.2733516,69.8879636 L27.2733516,64.8041152 L32.506725,64.8041152 C33.7029247,64.8041152 34.7495994,63.7574405 34.7495994,62.5612408 C34.7495994,61.3650412 33.7029247,60.3183665 32.506725,60.3183665 L27.2733516,60.3183665 L27.2733516,49.5525698 C39.8334478,48.3563702 49.7020948,37.8896234 49.7020948,25.0304773 C49.7020948,11.4237065 38.6372482,0.35885989 25.0304773,0.35885989 C11.4237065,0.35885989 0.35885989,11.4237065 0.35885989,25.0304773 C0.35885989,37.8896234 10.2275069,48.5058951 22.787603,49.5525698 L22.787603,49.5525698 Z M25.0304773,4.84460852 C36.0953239,4.84460852 45.2163462,13.9656307 45.2163462,25.0304773 C45.2163462,36.0953239 36.0953239,45.2163462 25.0304773,45.2163462 C13.9656307,45.2163462 4.84460852,36.0953239 4.84460852,25.0304773 C4.84460852,13.9656307 13.9656307,4.84460852 25.0304773,4.84460852 L25.0304773,4.84460852 Z" id="Shape"></path>
                    </g>
                    <path d="M8.53605769,16.1486951 L17.1486951,7.53605769" id="Line" stroke="#FFFFFF" stroke-width="6" stroke-linecap="round"></path>
                </g>
            </g>
        </g>
    </g>
</svg>