<?xml version="1.0" encoding="UTF-8" standalone="no"?>
<svg width="262px" height="204px" viewBox="0 0 262 204" version="1.1" xmlns="http://www.w3.org/2000/svg" xmlns:xlink="http://www.w3.org/1999/xlink" xmlns:sketch="http://www.bohemiancoding.com/sketch/ns">
    <!-- Generator: Sketch 3.3.3 (12081) - http://www.bohemiancoding.com/sketch -->
    <title>Dietary Restrictions</title>
    <desc>Created with Sketch.</desc>
    <defs></defs>
    <g id="SIGN-IN" stroke="none" stroke-width="1" fill="none" fill-rule="evenodd" sketch:type="MSPage">
        <g id="Ocean-Profile-Set-Up-08-Copy-2" sketch:type="MSArtboardGroup" transform="translate(-709.000000, -309.000000)">
            <g id="Dietary-Restrictions" sketch:type="MSLayerGroup" transform="translate(709.000000, 309.000000)">
                <g id="Upload-Security-Phot-Copy-+-noun_177763_cc-+-Rectangle-63-+-Rectangle-64-Copy-+-2-+-noun_10184_cc">
                    <g id="Upload-Security-Phot-Copy-+-noun_177763_cc-+-Rectangle-63-+-Rectangle-64-Copy-+-2">
                        <g id="Upload-Security-Phot-Copy-+-noun_177763_cc-+-Rectangle-63-+-Rectangle-64-Copy">
                            <g id="Upload-Security-Phot-Copy-+-noun_177763_cc-+-Rectangle-63" transform="translate(63.000000, 27.000000)" font-weight="260" font-family="Gotham" fill="#FFFFFF" font-size="14" sketch:alignment="middle" sketch:type="MSTextLayer">
                                <text id="Dietary-Restrictions">
                                    <tspan x="0.74" y="11">Dietary Restrictions</tspan>
                                </text>
                            </g>
                            <rect id="Rectangle-64-Copy" stroke="#FFFFFF" sketch:type="MSShapeGroup" x="0" y="0" width="262" height="204" rx="10"></rect>
                        </g>
                    </g>
                </g>
                <g id="noun_35435_cc" transform="translate(78.000000, 76.000000)" fill="#FFFFFF" sketch:type="MSShapeGroup">
                    <g id="Group">
                        <path d="M81.1794872,37.5 C82.6615385,36.9397436 85.7064103,35.0794872 95.0128205,25.424359 C100.026923,20.2217949 104.5,15.1807692 104.544872,15.1307692 C105.232051,14.3564103 105.160256,13.1717949 104.387179,12.4846154 C103.611538,11.7987179 102.426923,11.8705128 101.741026,12.6448718 C95.0025641,20.2474359 83.1012821,32.7666667 79.8564103,33.9935897 C79.2102564,34.2371795 78.6,34.425641 77.9525641,34.624359 C74.0461538,35.825641 70.0115385,37.0666667 56.9423077,50.1064103 C56.3961538,49.5807692 55.8461538,49.05 55.2948718,48.5179487 C68.3538462,35.4294872 69.5948718,31.3935897 70.7948718,27.4871795 C70.9935897,26.8397436 71.1820513,26.2282051 71.4269231,25.5794872 C72.6525641,22.3320513 85.175641,10.4307692 92.7794872,3.69102564 C93.5551282,3.00384615 93.625641,1.82051282 92.9397436,1.04487179 C92.2538462,0.270512821 91.0692308,0.198717949 90.2935897,0.884615385 C90.2435897,0.929487179 85.2,5.4025641 79.9974359,10.4179487 C70.3423077,19.725641 68.4807692,22.7717949 67.9205128,24.2538462 C67.6333333,25.0128205 67.4192308,25.7115385 67.2115385,26.3858974 C66.1423077,29.8628205 65.0384615,33.4564103 52.5948718,45.9141026 C31.5769231,25.6615385 7.46410256,2.56923077 7.07820513,2.2 C6.61282051,1.75384615 5.95128205,1.57948718 5.32692308,1.73589744 C4.03974359,2.05769231 1.58846154,3.31410256 0.576923077,5.97820513 C-0.592307692,9.05769231 0.442307692,13 3.6525641,17.6923077 C10.8589744,28.225641 18.8807692,36.7435897 23.0205128,40.8846154 C28.4833333,46.3487179 35.1089744,52.7923077 37.875641,54.1410256 C38.5858974,54.4871795 39.3294872,54.6538462 40.1487179,54.6538462 C40.8538462,54.6538462 41.4871795,54.5282051 42.0987179,54.4115385 C42.6205128,54.3115385 43.1128205,54.2141026 43.5846154,54.2141026 C43.6807692,54.2141026 43.7820513,54.2192308 43.8897436,54.2294872 C40.5679487,57.2692308 37.0038462,60.4346154 33.5333333,63.5141026 C16.4871795,78.6448718 6.12307692,88.2474359 5.95128205,94.0294872 C5.91410256,95.2769231 6.33333333,96.375641 7.16410256,97.2076923 L8.22051282,98.2641026 C9.01794872,99.0602564 10.0602564,99.4782051 11.2435897,99.4782051 C11.2935897,99.4782051 11.3448718,99.4782051 11.3948718,99.475641 C17.1717949,99.3051282 26.774359,88.9461538 41.9,71.9038462 C45.1435897,68.25 48.4833333,64.4897436 51.6705128,61.0217949 C52.6192308,62.0102564 53.6461538,63.0794872 54.7217949,64.2012821 C61.5307692,71.3051282 70.8576923,81.0128205 73.3935897,83.9397436 L73.8602564,84.4384615 C80.3666667,91.9705128 87.7487179,99.5871795 93.1641026,99.5871795 L93.1653846,99.5871795 C94.5602564,99.5871795 95.8,99.1692308 96.7525641,98.2179487 C98.0487179,96.9230769 98.6935897,95.5692308 98.6717949,94.024359 C98.6192308,90.3205128 94.8179487,86.7282051 88.5205128,80.7730769 C86.3525641,78.724359 83.8974359,76.4038462 81.2217949,73.7269231 C77.4807692,69.9858974 69.2782051,62.0205128 59.6371795,52.7102564 C72,40.3782051 75.5833333,39.274359 79.0525641,38.2076923 C79.7269231,38.0012821 80.4230769,37.7871795 81.1794872,37.5 L81.1794872,37.5 Z M39.0974359,69.4153846 C28.7448718,81.0794872 15.8615385,95.5923077 11.2846154,95.7294872 C10.9974359,95.7346154 10.9217949,95.6615385 10.8730769,95.6115385 L9.81666667,94.5551282 C9.76666667,94.5051282 9.69102564,94.4294872 9.7,94.1423077 C9.83589744,89.5602564 24.3576923,76.6717949 36.025641,66.3179487 C39.7679487,62.9974359 43.6205128,59.5769231 47.1730769,56.3064103 C47.6730769,56.8371795 48.3179487,57.5153846 49.075641,58.3089744 C45.8141026,61.85 42.4064103,65.6884615 39.0974359,69.4153846 L39.0974359,69.4153846 Z M85.9448718,83.4974359 C90.9448718,88.2230769 94.8935897,91.9564103 94.924359,94.0769231 C94.9282051,94.3974359 94.8474359,94.9076923 94.1025641,95.6538462 C93.8512821,95.9038462 93.5717949,96.0115385 93.1666667,96.0115385 L93.1666667,96.0115385 C90.2269231,96.0115385 84.6871795,91.3217949 76.6987179,82.0717949 L76.2269231,81.5282051 C73.6307692,78.5307692 64.6461538,69.1589744 57.4282051,61.6294872 C54.1192308,58.1769231 51.2615385,55.1961538 49.8,53.6423077 C47.7653846,51.4782051 45.7897436,50.4705128 43.5858974,50.4705128 C42.7551282,50.4705128 42.0307692,50.6089744 41.3910256,50.7333333 C40.9115385,50.825641 40.4974359,50.9064103 40.15,50.9064103 C39.9025641,50.9064103 39.7141026,50.8653846 39.5192308,50.7717949 C37.8230769,49.9435897 33.1641026,45.725641 25.6730769,38.2346154 C21.625641,34.1858974 13.7833333,25.8589744 6.7474359,15.575641 C4.35769231,12.0807692 3.40641026,9.15897436 4.06923077,7.34487179 C4.35384615,6.56794872 4.90769231,6.07179487 5.38461538,5.77051282 C10.4474359,10.6205128 35.7435897,34.8602564 55.6474359,54.0717949 L55.6487179,54.0717949 C55.6487179,54.074359 55.65,54.074359 55.6512821,54.074359 C65.8679487,63.9346154 74.6641026,72.474359 78.5717949,76.3794872 C81.2846154,79.0897436 83.7615385,81.4320513 85.9448718,83.4974359 L85.9448718,83.4974359 Z" id="Shape"></path>
                        <path d="M74.1230769,24.5782051 C73.3897436,25.3089744 73.3897436,26.4961538 74.1217949,27.2282051 C74.4884615,27.5935897 74.9679487,27.7782051 75.4474359,27.7782051 C75.9269231,27.7782051 76.4064103,27.5935897 76.7717949,27.2282051 L77.425641,26.574359 L77.4269231,26.574359 L79.3884615,24.6115385 L84.6217949,19.3794872 C84.6230769,19.3782051 84.624359,19.3782051 84.624359,19.3769231 L96.3974359,7.60384615 C97.1294872,6.87179487 97.1294872,5.68461538 96.3974359,4.9525641 C95.6653846,4.22051282 94.4782051,4.22051282 93.7474359,4.9525641 L76.7397436,21.9615385 L74.1230769,24.5782051 L74.1230769,24.5782051 Z" id="Shape"></path>
                        <path d="M78.2653846,28.7217949 C77.5346154,29.4538462 77.5346154,30.6410256 78.2653846,31.3717949 C78.6307692,31.7384615 79.1115385,31.9217949 79.5910256,31.9217949 C80.0705128,31.9217949 80.5512821,31.7384615 80.9166667,31.3717949 L81.5692308,30.7192308 L81.5705128,30.7179487 L100.541026,11.7474359 C101.273077,11.0153846 101.273077,9.82820513 100.541026,9.09615385 C99.8102564,8.36410256 98.6230769,8.36410256 97.8910256,9.09615385 L86.1153846,20.8717949 L78.2653846,28.7217949 L78.2653846,28.7217949 Z" id="Shape"></path>
                    </g>
                </g>
            </g>
        </g>
    </g>
</svg>