<?xml version="1.0" encoding="UTF-8" standalone="no"?>
<svg width="262px" height="204px" viewBox="0 0 262 204" version="1.1" xmlns="http://www.w3.org/2000/svg" xmlns:xlink="http://www.w3.org/1999/xlink" xmlns:sketch="http://www.bohemiancoding.com/sketch/ns">
    <!-- Generator: Sketch 3.3.3 (12081) - http://www.bohemiancoding.com/sketch -->
    <title>Female</title>
    <desc>Created with Sketch.</desc>
    <defs></defs>
    <g id="SIGN-IN" stroke="none" stroke-width="1" fill="none" fill-rule="evenodd" sketch:type="MSPage">
        <g id="Ocean-Profile-Set-Up-03---Drop-down-menu" sketch:type="MSArtboardGroup" transform="translate(-709.000000, -309.000000)">
            <g id="Female" sketch:type="MSLayerGroup" transform="translate(709.000000, 309.000000)">
                <g id="Upload-Security-Phot-Copy-+-noun_177763_cc-+-Rectangle-63-+-Rectangle-64-Copy-+-2">
                    <g id="Upload-Security-Phot-Copy-+-noun_177763_cc-+-Rectangle-63-+-Rectangle-64-Copy">
                        <g id="Upload-Security-Phot-Copy-+-noun_177763_cc-+-Rectangle-63" transform="translate(106.000000, 27.000000)" font-weight="260" font-family="Gotham" fill="#FFFFFF" font-size="14" sketch:alignment="middle" sketch:type="MSTextLayer">
                            <text id="Female">
                                <tspan x="0.419" y="11">Female</tspan>
                            </text>
                        </g>
                        <rect id="Rectangle-64-Copy" stroke="#FFFFFF" sketch:type="MSShapeGroup" x="0" y="0" width="262" height="204" rx="10"></rect>
                    </g>
                </g>
                <g id="noun_198709_cc" transform="translate(96.000000, 77.000000)" fill="#FFFFFF" sketch:type="MSShapeGroup">
                    <path d="M31.75,69.0416667 L31.75,84.0416667 L24.4583333,84.0416667 C22.7916667,84.0416667 21.3333333,85.5 21.3333333,87.1666667 C21.3333333,88.8333333 22.7916667,90.2916667 24.4583333,90.2916667 L31.75,90.2916667 L31.75,97.375 C31.75,99.0416667 33.2083333,100.5 34.875,100.5 C36.5416667,100.5 38,99.0416667 38,97.375 L38,90.2916667 L45.2916667,90.2916667 C46.9583333,90.2916667 48.4166667,88.8333333 48.4166667,87.1666667 C48.4166667,85.5 46.9583333,84.0416667 45.2916667,84.0416667 L38,84.0416667 L38,69.0416667 C55.5,67.375 69.25,52.7916667 69.25,34.875 C69.25,15.9166667 53.8333333,0.5 34.875,0.5 C15.9166667,0.5 0.5,15.9166667 0.5,34.875 C0.5,52.7916667 14.25,67.5833333 31.75,69.0416667 L31.75,69.0416667 Z M34.875,6.75 C50.2916667,6.75 63,19.4583333 63,34.875 C63,50.2916667 50.2916667,63 34.875,63 C19.4583333,63 6.75,50.2916667 6.75,34.875 C6.75,19.4583333 19.4583333,6.75 34.875,6.75 L34.875,6.75 Z" id="Shape"></path>
                </g>
            </g>
        </g>
    </g>
</svg>