<?xml version="1.0" encoding="UTF-8" standalone="no"?>
<svg width="163px" height="162px" viewBox="0 0 163 162" version="1.1" xmlns="http://www.w3.org/2000/svg" xmlns:xlink="http://www.w3.org/1999/xlink" xmlns:sketch="http://www.bohemiancoding.com/sketch/ns">
    <!-- Generator: Sketch 3.3.3 (12081) - http://www.bohemiancoding.com/sketch -->
    <title>Female</title>
    <desc>Created with Sketch.</desc>
    <defs></defs>
    <g id="Page-1" stroke="none" stroke-width="1" fill="none" fill-rule="evenodd" sketch:type="MSPage">
        <g id="Ocean-Profile-Set-Up-03---Drop-down-menu" sketch:type="MSArtboardGroup" transform="translate(-758.000000, -302.000000)" fill="#FFFFFF">
            <g id="Female" sketch:type="MSLayerGroup" transform="translate(758.000000, 302.000000)">
                <path d="M81.9165039,162 C126.651569,162 162.916504,125.735065 162.916504,81 C162.916504,36.2649353 126.651569,0 81.9165039,0 C37.1814392,0 0.916503906,36.2649353 0.916503906,81 C0.916503906,125.735065 37.1814392,162 81.9165039,162 Z" id="Oval-95" fill-opacity="0.15" sketch:type="MSShapeGroup"></path>
                <path d="M112.653064,112.885812 C114.935395,113.838761 117.221118,114.78719 119.42432,115.898399 C110.798033,125.54094 98.4876851,131.81933 84.7032606,132.514543 L83.2857054,132.514543 L82.7385788,132.514543 L79.5858184,132.514543 C66.0964353,131.835156 54.0189552,125.807721 45.4243201,116.513351 C47.9847369,115.127448 50.6808048,114.009456 53.3712206,112.885812 C56.076332,111.756515 58.7995302,110.664523 61.4955981,109.516009 C69.1418051,106.07499 70.1603196,103.441096 70.2767536,103.027359 C70.3321445,102.786579 70.3728399,102.540146 70.3965789,102.289191 C70.4508393,101.716064 70.4937956,101.141808 70.5322301,100.567551 L70.5322301,99.0787786 C54.0076509,99.2257341 49.1400331,92.1436101 49.1400331,92.1436101 C49.1400331,92.1436101 58.5824882,91.997785 57.9980576,67.0741347 C57.4136269,42.1504843 68.903285,38.0346003 73.1864722,36.4056553 C85.6584712,31.6635148 91.9255575,39.204592 91.9255575,39.204592 C106.382586,37.8672971 110.371862,53.6604901 108.595962,71.6478416 C106.820061,89.635193 116.701122,92.4341298 116.701122,92.4341298 C109.911779,99.3692983 95.6017055,98.9306927 95.6017055,98.9306927 L95.6017055,101.987367 C95.6107489,102.087975 95.6175315,102.187452 95.6277053,102.28806 C95.6514443,102.539015 95.6910092,102.785448 95.7475305,103.026229 C95.8639645,103.439965 96.8824791,106.07386 104.528686,109.514879 C107.224754,110.664523 109.947952,111.756515 112.653064,112.885812 L112.653064,112.885812 Z" id="Shape" sketch:type="MSShapeGroup"></path>
            </g>
        </g>
    </g>
</svg>