<?xml version="1.0" encoding="UTF-8" standalone="no"?>
<svg width="262px" height="204px" viewBox="0 0 262 204" version="1.1" xmlns="http://www.w3.org/2000/svg" xmlns:xlink="http://www.w3.org/1999/xlink" xmlns:sketch="http://www.bohemiancoding.com/sketch/ns">
    <!-- Generator: Sketch 3.3.3 (12081) - http://www.bohemiancoding.com/sketch -->
    <title>Handicap</title>
    <desc>Created with Sketch.</desc>
    <defs></defs>
    <g id="SIGN-IN" stroke="none" stroke-width="1" fill="none" fill-rule="evenodd" sketch:type="MSPage">
        <g id="Ocean-Profile-Set-Up-08-Copy-2" sketch:type="MSArtboardGroup" transform="translate(-311.000000, -309.000000)">
            <g id="Handicap" sketch:type="MSLayerGroup" transform="translate(311.000000, 309.000000)">
                <g id="Upload-Scanned-Passp-+-noun_185598_cc-+-Rectangle-64-+-1-+-noun_133">
                    <g id="Upload-Scanned-Passp-+-noun_185598_cc-+-Rectangle-64-+-1">
                        <g id="Upload-Scanned-Passp-+-noun_185598_cc-+-Rectangle-64">
                            <g id="Upload-Scanned-Passp-+-noun_185598_cc" transform="translate(98.000000, 27.000000)" font-weight="260" font-family="Gotham" fill="#FFFFFF" font-size="14" sketch:alignment="middle" sketch:type="MSTextLayer">
                                <text id="Handicap">
                                    <tspan x="0.873" y="11">Handicap</tspan>
                                </text>
                            </g>
                            <rect id="Rectangle-64" stroke="#FFFFFF" sketch:type="MSShapeGroup" x="0" y="0" width="262" height="204" rx="10"></rect>
                        </g>
                    </g>
                </g>
                <g id="noun_123162_cc" transform="translate(86.000000, 78.000000)" fill="#FFFFFF" sketch:type="MSShapeGroup">
                    <g id="Group">
                        <path d="M87.2591837,84.9571429 L76.9795918,84.9571429 L57.6408163,60.7877551 L31.2632653,60.7877551 L24.2326531,26.3979592 C24.0061224,25.2938776 24.7183673,24.2163265 25.822449,23.9897959 C26.9244898,23.7530612 28.0040816,24.4755102 28.2306122,25.5795918 L34.5959184,56.7040816 L59.6020408,56.7040816 L78.9408163,80.8734694 L87.2591837,80.8734694 C88.3877551,80.8734694 89.3,81.7857143 89.3,82.9142857 C89.3,84.0428571 88.3877551,84.9571429 87.2591837,84.9571429 L87.2591837,84.9571429 Z" id="Shape"></path>
                        <path d="M26.2346939,19.7142857 C20.8,19.7142857 16.3795918,15.2918367 16.3795918,9.85918367 C16.3795918,4.42653061 20.8020408,0.00408163265 26.2346939,0.00408163265 C31.6673469,0.00408163265 36.0897959,4.42653061 36.0897959,9.85918367 C36.0897959,15.2918367 31.6693878,19.7142857 26.2346939,19.7142857 L26.2346939,19.7142857 Z M26.2346939,4.08571429 C23.0510204,4.08571429 20.4612245,6.6755102 20.4612245,9.85918367 C20.4612245,13.0428571 23.0510204,15.6326531 26.2346939,15.6326531 C29.4183673,15.6326531 32.0081633,13.0428571 32.0081633,9.85918367 C32.0081633,6.6755102 29.4183673,4.08571429 26.2346939,4.08571429 L26.2346939,4.08571429 Z" id="Shape"></path>
                        <path d="M48.1938776,44.4142857 C48.0142857,44.4142857 47.8326531,44.3897959 47.6510204,44.3408163 L28.6693878,39.1285714 C27.5816327,38.8306122 26.9428571,37.7061224 27.2408163,36.6204082 C27.5387755,35.5326531 28.6612245,34.8877551 29.7489796,35.1918367 L48.7306122,40.4040816 C49.8183673,40.7020408 50.4571429,41.8265306 50.1571429,42.9122449 C49.9122449,43.8183673 49.0897959,44.4142857 48.1938776,44.4142857 L48.1938776,44.4142857 Z" id="Shape"></path>
                        <path d="M35.5938776,97.9591837 C27.7,97.9591837 20.0897959,95.3183673 13.8102041,90.3408163 C6.45102041,84.5040816 1.80612245,76.1510204 0.730612245,66.8204082 C-0.765306122,53.8877551 4.96530612,41.2489796 15.6877551,33.8367347 C16.6183673,33.1979592 17.8857143,33.4285714 18.5285714,34.355102 C19.1693878,35.2836735 18.9367347,36.555102 18.0102041,37.1959184 C8.53061224,43.7469388 3.46530612,54.922449 4.7877551,66.3530612 C5.73877551,74.6020408 9.84489796,81.9857143 16.3510204,87.144898 C22.855102,92.3061224 30.9877551,94.6244898 39.2244898,93.6714286 C48.4530612,92.6081633 56.655102,87.5285714 61.7285714,79.7346939 C62.3408163,78.7918367 63.6040816,78.5244898 64.5530612,79.1387755 C65.4979592,79.7530612 65.7653061,81.0183673 65.1489796,81.9632653 C59.4102041,90.777551 50.1326531,96.5244898 39.6918367,97.7265306 C38.3204082,97.8816327 36.9530612,97.9591837 35.5938776,97.9591837 L35.5938776,97.9591837 Z" id="Shape"></path>
                    </g>
                </g>
            </g>
        </g>
    </g>
</svg>