<?xml version="1.0" encoding="UTF-8" standalone="no"?>
<svg width="262px" height="204px" viewBox="0 0 262 204" version="1.1" xmlns="http://www.w3.org/2000/svg" xmlns:xlink="http://www.w3.org/1999/xlink" xmlns:sketch="http://www.bohemiancoding.com/sketch/ns">
    <!-- Generator: Sketch 3.3.3 (12081) - http://www.bohemiancoding.com/sketch -->
    <title>Male</title>
    <desc>Created with Sketch.</desc>
    <defs></defs>
    <g id="SIGN-IN" stroke="none" stroke-width="1" fill="none" fill-rule="evenodd" sketch:type="MSPage">
        <g id="Ocean-Profile-Set-Up-03---Drop-down-menu" sketch:type="MSArtboardGroup" transform="translate(-311.000000, -309.000000)">
            <g id="Male" sketch:type="MSLayerGroup" transform="translate(311.000000, 309.000000)">
                <g id="Upload-Scanned-Passp-+-noun_185598_cc-+-Rectangle-64-+-1">
                    <g id="Upload-Scanned-Passp-+-noun_185598_cc-+-Rectangle-64">
                        <g id="Upload-Scanned-Passp-+-noun_185598_cc" transform="translate(115.000000, 27.000000)" font-weight="260" font-family="Gotham" fill="#FFFFFF" font-size="14" sketch:alignment="middle" sketch:type="MSTextLayer">
                            <text id="Male">
                                <tspan x="0.575" y="11">Male</tspan>
                            </text>
                        </g>
                        <rect id="Rectangle-64" stroke="#FFFFFF" sketch:type="MSShapeGroup" x="0" y="0" width="262" height="204" rx="10"></rect>
                    </g>
                </g>
                <g id="noun_198707_cc" transform="translate(91.000000, 79.000000)" fill="#FFFFFF" sketch:type="MSShapeGroup">
                    <path d="M33.9393939,79.3939394 C42.8282828,79.3939394 51.3131313,75.959596 57.5757576,69.6969697 C69.8989899,57.3737374 70.5050505,37.979798 59.5959596,24.8484848 L73.7373737,10.7070707 L73.7373737,17.7777778 C73.7373737,19.3939394 75.1515152,20.8080808 76.7676768,20.8080808 C78.3838384,20.8080808 79.7979798,19.3939394 79.7979798,17.7777778 L79.7979798,3.23232323 C79.7979798,2.82828283 79.7979798,2.42424242 79.5959596,2.22222222 L79.5959596,2.22222222 C79.1919192,1.41414141 78.7878788,0.808080808 77.979798,0.606060606 L77.979798,0.606060606 C77.5757576,0.404040404 77.1717172,0.404040404 76.969697,0.404040404 L62.6262626,0.404040404 C61.010101,0.404040404 59.5959596,1.81818182 59.5959596,3.43434343 C59.5959596,5.05050505 61.010101,6.46464646 62.6262626,6.46464646 L69.6969697,6.46464646 L55.5555556,20.6060606 C49.4949495,15.5555556 42.020202,12.9292929 34.1414141,12.9292929 C25.2525253,12.9292929 16.7676768,16.3636364 10.5050505,22.6262626 C-2.42424242,35.5555556 -2.42424242,56.7676768 10.5050505,69.6969697 C16.5656566,75.959596 25.0505051,79.3939394 33.9393939,79.3939394 L33.9393939,79.3939394 Z M14.5454545,26.8686869 C19.5959596,21.8181818 26.4646465,18.7878788 33.7373737,18.7878788 C41.010101,18.7878788 47.8787879,21.6161616 52.9292929,26.8686869 C63.6363636,37.5757576 63.6363636,54.7474747 52.9292929,65.4545455 C47.8787879,70.5050505 41.010101,73.5353535 33.7373737,73.5353535 C26.4646465,73.5353535 19.5959596,70.7070707 14.5454545,65.4545455 C4.04040404,54.7474747 4.04040404,37.3737374 14.5454545,26.8686869 L14.5454545,26.8686869 Z" id="Shape"></path>
                </g>
            </g>
        </g>
    </g>
</svg>