<?xml version="1.0" encoding="UTF-8" standalone="no"?>
<svg width="162px" height="162px" viewBox="0 0 162 162" version="1.1" xmlns="http://www.w3.org/2000/svg" xmlns:xlink="http://www.w3.org/1999/xlink" xmlns:sketch="http://www.bohemiancoding.com/sketch/ns">
    <!-- Generator: Sketch 3.3.3 (12081) - http://www.bohemiancoding.com/sketch -->
    <title>Male</title>
    <desc>Created with Sketch.</desc>
    <defs></defs>
    <g id="Page-1" stroke="none" stroke-width="1" fill="none" fill-rule="evenodd" sketch:type="MSPage">
        <g id="Ocean-Profile-Set-Up-03---Drop-down-menu" sketch:type="MSArtboardGroup" transform="translate(-502.000000, -302.000000)" fill="#FFFFFF">
            <g id="Male" sketch:type="MSLayerGroup" transform="translate(502.000000, 302.000000)">
                <path d="M81,162 C125.735065,162 162,125.735065 162,81 C162,36.2649353 125.735065,0 81,0 C36.2649353,0 0,36.2649353 0,81 C0,125.735065 36.2649353,162 81,162 Z" id="Oval-95" fill-opacity="0.15" sketch:type="MSShapeGroup"></path>
                <path d="M91.7406735,130.302048 C103.875913,127.655776 114.414892,120.736973 121.702374,111.200873 C120.807736,107.737292 118.772581,104.446567 114.423239,103.341854 C103.984231,100.690179 95.3234881,96.6468683 95.3234881,96.6468683 C93.6127672,94.2909878 93.306491,89.3591273 93.306491,89.3591273 C96.573048,85.8468507 98.0217456,81.4495178 98.6308042,77.7299517 C98.8474101,77.8894947 99.0954588,77.994304 99.3702921,77.9873168 C100.350841,77.9663549 101.665616,76.5316318 103.082871,71.093193 C104.866958,64.2468157 103.192338,62.8971047 101.573617,62.9099147 C101.200961,62.9122438 101.140405,62.9052565 100.815496,63.0030785 L100.810838,62.8540164 C100.810838,62.8540164 105.60994,46.8542924 94.0657763,39.8180938 C94.0657763,39.8180938 96.0932542,38.1760812 95.9372048,35.8108843 C95.9372048,35.8108843 90.645499,36.4106265 85.5727282,36.4211074 C83.2680879,36.4269302 81.0077003,36.3081463 79.3121186,35.9587819 C78.6343517,35.8190362 77.9484329,35.7631379 77.2683369,35.7806061 C72.5053359,35.9017191 67.9414726,39.6096397 67.1379345,43.18946 C67.1379345,43.18946 67.0680616,43.1836373 66.9399613,43.1836373 C65.4353654,43.1813082 55.9769071,43.9033279 60.5151504,62.916902 C60.5151504,62.916902 60.5198086,62.942522 60.5256313,62.9879394 C60.3055318,62.9413575 60.0761158,62.9110792 59.8432062,62.9087501 C58.2186619,62.8877883 56.5312319,64.2270184 58.3199776,71.0920285 C59.7500424,76.5770492 61.0729689,77.9908104 62.0570119,77.9861522 C62.3854144,77.9849877 62.6742223,77.8266091 62.9176128,77.6100032 C63.5161904,81.3598476 64.9637235,85.817737 68.2722042,89.3696082 L68.0963574,89.3591273 C68.0963574,89.3591273 67.8261823,93.726182 66.3693329,96.2055046 C66.3064473,96.2369474 57.3825165,100.699495 46.9807743,103.344183 C42.63186,104.447639 40.5969156,107.737524 39.7023736,111.20078 C47.0221534,120.779188 57.6223389,127.717039 69.8255753,130.336978 C73.3707792,130.729491 76.9752716,130.931159 80.6280577,130.931159 C84.3874593,130.931159 88.0956484,130.717515 91.7406735,130.302048 Z" id="Oval-95" sketch:type="MSShapeGroup"></path>
            </g>
        </g>
    </g>
</svg>