<?xml version="1.0" encoding="UTF-8" standalone="no"?>
<svg width="262px" height="204px" viewBox="0 0 262 204" version="1.1" xmlns="http://www.w3.org/2000/svg" xmlns:xlink="http://www.w3.org/1999/xlink" xmlns:sketch="http://www.bohemiancoding.com/sketch/ns">
    <!-- Generator: Sketch 3.3.3 (12081) - http://www.bohemiancoding.com/sketch -->
    <title>Medical Needs</title>
    <desc>Created with Sketch.</desc>
    <defs></defs>
    <g id="SIGN-IN" stroke="none" stroke-width="1" fill="none" fill-rule="evenodd" sketch:type="MSPage">
        <g id="Ocean-Profile-Set-Up-08-Copy-2" sketch:type="MSArtboardGroup" transform="translate(-1108.000000, -309.000000)">
            <g id="Medical-Needs" sketch:type="MSLayerGroup" transform="translate(1108.000000, 309.000000)">
                <g id="medical-needs">
                    <g id="Upload-Profile-Photo-+-noun_54985_cc-+-Oval-255-Copy-+-Rectangle-64-Copy-2">
                        <g id="Upload-Profile-Photo-+-noun_54985_cc-+-Oval-255-Copy" transform="translate(81.000000, 27.000000)" font-weight="260" font-family="Gotham" fill="#FFFFFF" font-size="14" sketch:alignment="middle" sketch:type="MSTextLayer">
                            <text id="Medical-Needs">
                                <tspan x="0.31" y="11">Medical Needs</tspan>
                            </text>
                        </g>
                        <rect id="Rectangle-64-Copy-2" stroke="#FFFFFF" sketch:type="MSShapeGroup" x="0" y="0" width="262" height="204" rx="10"></rect>
                    </g>
                </g>
                <g id="noun_178597_cc" transform="translate(72.000000, 78.000000)" fill="#FFFFFF" sketch:type="MSShapeGroup">
                    <path d="M103.846154,99.1717949 L14.1025641,99.1717949 C6.32692308,99.1717949 0,92.8448718 0,85.0692308 L0,33.0576923 C0,25.2820513 6.32692308,18.9551282 14.1025641,18.9551282 L103.846154,18.9551282 C111.621795,18.9551282 117.948718,25.2820513 117.948718,33.0576923 L117.948718,85.0692308 C117.948718,92.8448718 111.621795,99.1717949 103.846154,99.1717949 L103.846154,99.1717949 Z M14.1025641,21.5192308 C7.74102564,21.5192308 2.56410256,26.6961538 2.56410256,33.0576923 L2.56410256,85.0692308 C2.56410256,91.4307692 7.74102564,96.6076923 14.1025641,96.6076923 L103.846154,96.6076923 C110.207692,96.6076923 115.384615,91.4307692 115.384615,85.0692308 L115.384615,33.0576923 C115.384615,26.6961538 110.207692,21.5192308 103.846154,21.5192308 L14.1025641,21.5192308 L14.1025641,21.5192308 Z M63.1897436,78.8833333 L54.7602564,78.8833333 C51.8858974,78.8833333 49.5474359,76.5435897 49.5474359,73.6679487 L49.5474359,68.4897436 L44.3692308,68.4897436 C41.4935897,68.4897436 39.1551282,66.15 39.1551282,63.274359 L39.1551282,54.8461538 C39.1551282,51.9705128 41.4948718,49.6320513 44.3692308,49.6320513 L49.5474359,49.6320513 L49.5474359,44.4564103 C49.5474359,41.5820513 51.8858974,39.2448718 54.7602564,39.2448718 L63.1897436,39.2448718 C66.0628205,39.2448718 68.4012821,41.5833333 68.4012821,44.4564103 L68.4012821,49.6320513 L73.5769231,49.6320513 C76.4525641,49.6320513 78.7923077,51.9705128 78.7923077,54.8461538 L78.7923077,63.2730769 C78.7923077,66.1487179 76.4525641,68.4884615 73.5769231,68.4884615 L68.4012821,68.4884615 L68.4012821,73.6666667 C68.4012821,76.5435897 66.0628205,78.8833333 63.1897436,78.8833333 L63.1897436,78.8833333 Z M44.3692308,52.1961538 C42.9076923,52.1961538 41.7192308,53.3846154 41.7192308,54.8461538 L41.7192308,63.2730769 C41.7192308,64.7358974 42.9076923,65.924359 44.3692308,65.924359 L50.8294872,65.924359 C51.5371795,65.924359 52.1115385,66.4987179 52.1115385,67.2064103 L52.1115385,73.6666667 C52.1115385,75.1294872 53.3,76.3179487 54.7602564,76.3179487 L63.1897436,76.3179487 C64.65,76.3179487 65.8371795,75.1282051 65.8371795,73.6666667 L65.8371795,67.2064103 C65.8371795,66.4987179 66.4115385,65.924359 67.1192308,65.924359 L73.5769231,65.924359 C75.0397436,65.924359 76.2282051,64.7346154 76.2282051,63.2730769 L76.2282051,54.8461538 C76.2282051,53.3846154 75.0384615,52.1961538 73.5769231,52.1961538 L67.1192308,52.1961538 C66.4115385,52.1961538 65.8371795,51.6217949 65.8371795,50.9141026 L65.8371795,44.4564103 C65.8371795,42.9961538 64.65,41.8089744 63.1897436,41.8089744 L54.7602564,41.8089744 C53.3,41.8089744 52.1115385,42.9974359 52.1115385,44.4564103 L52.1115385,50.9141026 C52.1115385,51.6217949 51.5371795,52.1961538 50.8294872,52.1961538 L44.3692308,52.1961538 L44.3692308,52.1961538 Z" id="Shape"></path>
                    <g id="Group" transform="translate(38.179487, 0.000000)">
                        <path d="M40.2948718,17.6730769 C39.5871795,17.6730769 39.0128205,17.0987179 39.0128205,16.3910256 L39.0128205,14.4589744 C39.0128205,8.35769231 34.0487179,3.39358974 27.9474359,3.39358974 L13.6397436,3.39358974 C7.53846154,3.39358974 2.57435897,8.35769231 2.57435897,14.4589744 L2.57435897,16.3910256 C2.57435897,17.0987179 2,17.6730769 1.29230769,17.6730769 C0.584615385,17.6730769 0.0102564103,17.0987179 0.0102564103,16.3910256 L0.0102564103,14.4589744 C0.0102564103,6.94358974 6.12435897,0.829487179 13.6397436,0.829487179 L27.9474359,0.829487179 C35.4628205,0.829487179 41.5769231,6.94358974 41.5769231,14.4589744 L41.5769231,16.3910256 C41.5769231,17.0987179 41.0038462,17.6730769 40.2948718,17.6730769 L40.2948718,17.6730769 Z" id="Shape"></path>
                        <path d="M33.2410256,17.0320513 C32.8871795,17.0320513 32.6,16.7448718 32.6,16.3910256 L32.6,14.4589744 C32.6,11.8948718 30.5141026,9.80769231 27.9487179,9.80769231 L13.6410256,9.80769231 C11.0769231,9.80769231 8.99230769,11.8948718 8.99230769,14.4589744 L8.99230769,16.3910256 C8.99230769,16.7448718 8.70512821,17.0320513 8.35128205,17.0320513 C7.9974359,17.0320513 7.71025641,16.7448718 7.71025641,16.3910256 L7.71025641,14.4589744 C7.71025641,11.1871795 10.3705128,8.52564103 13.6410256,8.52564103 L27.9487179,8.52564103 C31.2205128,8.52564103 33.8820513,11.1871795 33.8820513,14.4589744 L33.8820513,16.3910256 C33.8820513,16.7448718 33.5948718,17.0320513 33.2410256,17.0320513 L33.2410256,17.0320513 Z" id="Shape"></path>
                    </g>
                    <path d="M15.7705128,94.6576923 C15.4166667,94.6576923 15.1294872,94.3705128 15.1294872,94.0166667 L15.1294872,24.7858974 C15.1294872,24.4320513 15.4166667,24.1448718 15.7705128,24.1448718 C16.124359,24.1448718 16.4115385,24.4320513 16.4115385,24.7858974 L16.4115385,94.0166667 C16.4115385,94.3717949 16.124359,94.6576923 15.7705128,94.6576923 L15.7705128,94.6576923 Z" id="Shape"></path>
                    <path d="M21.9230769,94.6576923 C21.5692308,94.6576923 21.2820513,94.3705128 21.2820513,94.0166667 L21.2820513,24.7858974 C21.2820513,24.4320513 21.5692308,24.1448718 21.9230769,24.1448718 C22.2769231,24.1448718 22.5641026,24.4320513 22.5641026,24.7858974 L22.5641026,94.0166667 C22.5641026,94.3717949 22.2769231,94.6576923 21.9230769,94.6576923 L21.9230769,94.6576923 Z" id="Shape"></path>
                    <path d="M102.178205,94.6576923 C101.824359,94.6576923 101.537179,94.3705128 101.537179,94.0166667 L101.537179,24.7858974 C101.537179,24.4320513 101.824359,24.1448718 102.178205,24.1448718 C102.532051,24.1448718 102.819231,24.4320513 102.819231,24.7858974 L102.819231,94.0166667 C102.819231,94.3717949 102.533333,94.6576923 102.178205,94.6576923 L102.178205,94.6576923 Z" id="Shape"></path>
                    <path d="M96.025641,94.6576923 C95.6717949,94.6576923 95.3846154,94.3705128 95.3846154,94.0166667 L95.3846154,24.7858974 C95.3846154,24.4320513 95.6717949,24.1448718 96.025641,24.1448718 C96.3794872,24.1448718 96.6666667,24.4320513 96.6666667,24.7858974 L96.6666667,94.0166667 C96.6666667,94.3717949 96.3807692,94.6576923 96.025641,94.6576923 L96.025641,94.6576923 Z" id="Shape"></path>
                </g>
            </g>
        </g>
    </g>
</svg>