<?xml version="1.0" encoding="UTF-8" standalone="no"?>
<svg width="262px" height="204px" viewBox="0 0 262 204" version="1.1" xmlns="http://www.w3.org/2000/svg" xmlns:xlink="http://www.w3.org/1999/xlink" xmlns:sketch="http://www.bohemiancoding.com/sketch/ns">
    <!-- Generator: Sketch 3.3.3 (12081) - http://www.bohemiancoding.com/sketch -->
    <title>passport</title>
    <desc>Created with Sketch.</desc>
    <defs></defs>
    <g id="SIGN-IN" stroke="none" stroke-width="1" fill="none" fill-rule="evenodd" sketch:type="MSPage">
        <g id="Ocean-Profile-Set-Up-08" sketch:type="MSArtboardGroup" transform="translate(-311.000000, -309.000000)">
            <g id="passport" sketch:type="MSLayerGroup" transform="translate(311.000000, 309.000000)">
                <g id="Upload-Scanned-Passp-+-noun_185598_cc" transform="translate(39.000000, 27.000000)">
                    <text id="Upload-Scanned-Passp" sketch:type="MSTextLayer" font-family="Gotham" font-size="14" font-weight="260" sketch:alignment="middle" fill="#FFFFFF">
                        <tspan x="2.502" y="11">Upload Scanned Passport </tspan>
                    </text>
                    <g id="noun_185598_cc" transform="translate(16.000000, 36.000000)" sketch:type="MSShapeGroup">
                        <path d="M48.8492308,35.1643784 C47.6138462,33.5961216 46.1246154,32.1805676 44.3923077,30.9864324 C43.4923077,30.3649324 42.5353846,29.8121486 41.5461538,29.3402973 L43.7492308,37.5037838 C45.5369231,36.952527 47.2523077,36.1676351 48.8492308,35.1643784 L48.8492308,35.1643784 Z" id="Shape"></path>
                        <path d="M110.650769,89.1325676 L93.0461538,84.4507027 C93.2061538,86.1380676 92.8492308,87.8315405 91.9876923,89.3326081 L109.349231,93.9503378 C109.567692,94.0083649 109.786154,94.0373784 110.001538,94.0373784 C111.110769,94.0373784 112.126154,93.3028784 112.426154,92.1866216 C112.786154,90.8565811 111.990769,89.4898919 110.650769,89.1325676 L110.650769,89.1325676 Z" id="Shape"></path>
                        <path d="M53.9246154,41.1350541 L59.8276923,39.5652703 C58.8646154,36.6349054 57.0876923,34.1565405 54.8169231,32.3088378 C53.7369231,33.5319865 52.5492308,34.6253378 51.2707692,35.5751486 C52.4061538,37.2854189 53.3015385,39.152973 53.9246154,41.1350541 L53.9246154,41.1350541 Z" id="Shape"></path>
                        <path d="M35.5492308,47.7867838 L29.6507692,49.3550405 C30.6153846,52.2899865 32.3892308,54.7714054 34.6584615,56.6175811 C35.7246154,55.4051216 36.9,54.3209324 38.1630769,53.3772297 C37.0384615,51.6577973 36.1584615,49.778027 35.5492308,47.7867838 L35.5492308,47.7867838 Z" id="Shape"></path>
                        <path d="M37.4353846,30.4672432 C34.4215385,32.0171757 32.0476923,34.4619459 30.5707692,37.3694054 C31.9523077,37.8275135 33.3615385,38.1405541 34.7738462,38.3115811 C35.1492308,35.5720946 36.0446154,32.9165946 37.4353846,30.4672432 L37.4353846,30.4672432 Z" id="Shape"></path>
                        <path d="M68.8338462,7.12510811 C68.2323077,4.89717568 66.2015385,3.42664865 63.9830769,3.42664865 C63.5523077,3.42664865 63.1153846,3.48162162 62.6784615,3.59767568 L8.61692308,17.9761622 C5.93538462,18.6892838 4.34307692,21.4226622 5.06307692,24.0842703 L25.7953846,100.883041 C26.3969231,103.110973 28.4261538,104.583027 30.6461538,104.583027 C31.0769231,104.583027 31.5138462,104.528054 31.9492308,104.412 L86.0107692,90.0335135 C88.6923077,89.3203919 90.2830769,86.5839595 89.5661538,83.9238784 L68.8338462,7.12510811 L68.8338462,7.12510811 Z M27.7692308,49.0649054 C27.7630769,49.040473 27.7584615,49.0175676 27.7507692,48.9931351 C27.7492308,48.9885541 27.7476923,48.983973 27.7461538,48.9793919 C27.7446154,48.9732838 27.7430769,48.9671757 27.7415385,48.9610676 C25.2553846,39.7057568 30.7769231,30.1480946 40.0969231,27.6178108 L40.2692308,27.572 C44.7846154,26.3946622 49.4938462,27.0237973 53.5353846,29.3387703 C57.5738462,31.6537432 60.4769231,35.3873243 61.7076923,39.8538784 C61.7138462,39.8767838 61.72,39.9012162 61.7261538,39.9241216 C61.7276923,39.9287027 61.7292308,39.9332838 61.7307692,39.9393919 C61.7323077,39.9455 61.7338462,39.9546622 61.7353846,39.9607703 C64.22,49.2145541 58.6984615,58.7706892 49.3769231,61.2994459 L49.2953846,61.3238784 L49.2923077,61.3238784 C49.2907692,61.3238784 49.2892308,61.3238784 49.2876923,61.3254054 C44.7676923,62.5256486 40.0430769,61.9148378 35.9830769,59.6029189 C31.9230769,57.292527 29.0061538,53.5497838 27.7692308,49.0649054 L27.7692308,49.0649054 Z M73.4446154,75.5557703 L37.1984615,85.1958919 C36.98,85.2539189 36.7615385,85.2829324 36.5461538,85.2829324 C35.4369231,85.2829324 34.4215385,84.5484324 34.12,83.4337027 C33.7615385,82.1021351 34.5569231,80.7339189 35.8969231,80.3781216 L72.1430769,70.738 C73.4861538,70.3791486 74.8630769,71.1701486 75.22,72.5017162 C75.5815385,73.8317568 74.7861538,75.1984459 73.4446154,75.5557703 L73.4446154,75.5557703 Z" id="Shape"></path>
                        <path d="M34.9276923,45.2335946 C34.6107692,43.4866757 34.5092308,41.7351757 34.6076923,40.0096351 C33.0169231,39.8187568 31.4338462,39.4644865 29.8784615,38.9346081 C28.8461538,41.6603514 28.5615385,44.689973 29.2046154,47.7104324 L35.1107692,46.1391216 C35.0476923,45.8398243 34.9830769,45.5359459 34.9276923,45.2335946 L34.9276923,45.2335946 Z" id="Shape"></path>
                        <path d="M42.0923077,37.9450946 L39.8876923,29.7816081 C38.04,32.4615405 36.9246154,35.4300811 36.5,38.4505405 C38.3876923,38.5253649 40.2661538,38.3528108 42.0923077,37.9450946 L42.0923077,37.9450946 Z" id="Shape"></path>
                        <path d="M52.2323077,58.3522838 C55.1553846,56.7992973 57.4584615,54.3942297 58.9061538,51.5524324 C57.5446154,51.0989054 56.1569231,50.7889189 54.7692308,50.6163649 C54.42,53.3161486 53.5661538,55.9319459 52.2323077,58.3522838 L52.2323077,58.3522838 Z" id="Shape"></path>
                        <path d="M36.3338462,40.1485946 C36.2292308,42.0130946 36.3830769,43.8791216 36.7815385,45.6947568 L43.6876923,43.8577432 L42.5353846,39.5912297 C40.5123077,40.0508649 38.4276923,40.2417432 36.3338462,40.1485946 L36.3338462,40.1485946 Z" id="Shape"></path>
                        <path d="M44.1953846,39.1514459 L45.3476923,43.4164324 L52.2538462,41.5794189 C51.6907692,39.8157027 50.8876923,38.1222297 49.8523077,36.5524459 C48.0815385,37.6732838 46.1769231,38.5436892 44.1953846,39.1514459 L44.1953846,39.1514459 Z" id="Shape"></path>
                        <path d="M39.1538462,54.7714054 C38.0384615,55.6082162 36.9984615,56.5641351 36.0476923,57.628473 C38.7338462,59.3738649 41.9384615,60.3129865 45.2476923,60.2091486 C44.8753846,59.9831486 44.5076923,59.7449324 44.1492308,59.4975541 C42.22,58.1659865 40.5430769,56.5702432 39.1538462,54.7714054 L39.1538462,54.7714054 Z" id="Shape"></path>
                        <path d="M45.2846154,49.7703919 L44.1323077,45.5038784 L37.2169231,47.3424189 C37.7646154,49.1152973 38.5584615,50.8179324 39.5830769,52.3968784 C41.3630769,51.2638243 43.2815385,50.3827297 45.2846154,49.7703919 L45.2846154,49.7703919 Z" id="Shape"></path>
                        <path d="M47.3861538,50.9767432 L49.6338462,59.3036216 C51.5138462,56.5748243 52.6353846,53.5497838 53.0430769,50.4743514 C51.1353846,50.3918919 49.2323077,50.5629189 47.3861538,50.9767432 L47.3861538,50.9767432 Z" id="Shape"></path>
                        <path d="M40.5707692,53.7925811 C41.8261538,55.4142838 43.3507692,56.8725946 45.1276923,58.1003243 C46.0276923,58.7218243 46.9846154,59.2746081 47.9769231,59.7449324 L45.7292308,51.416527 C43.92,51.9754189 42.1830769,52.772527 40.5707692,53.7925811 L40.5707692,53.7925811 Z" id="Shape"></path>
                        <path d="M53.1969231,48.7762973 C53.2861538,46.9087432 53.12,45.0396622 52.7046154,43.224027 L45.7907692,45.0625676 L46.9430769,49.3290811 C48.98,48.8663919 51.0861538,48.6755135 53.1969231,48.7762973 L53.1969231,48.7762973 Z" id="Shape"></path>
                        <path d="M54.5938462,43.8531622 C54.9,45.5435811 55.0061538,47.2431622 54.92,48.9183108 C56.4938462,49.1091892 58.06,49.4634595 59.5984615,49.9857027 C60.6307692,47.2614865 60.9138462,44.2318649 60.2707692,41.2114054 L54.3738462,42.7796622 C54.4553846,43.1354595 54.5276923,43.4912568 54.5938462,43.8531622 L54.5938462,43.8531622 Z" id="Shape"></path>
                        <path d="M104.787692,35.932473 L104.618462,35.8866622 C95.4076923,33.4877027 85.9676923,38.8384054 83.2953846,47.8432838 L84.3230769,51.6486351 C84.3738462,50.9431486 84.4692308,50.2346081 84.6184615,49.5260676 L90.5184615,51.0943243 C90.0415385,53.1222162 89.8569231,55.1852297 89.9661538,57.2345 C88.6523077,57.3933108 87.3461538,57.6742838 86.0553846,58.0636757 L86.4984615,59.7098108 C87.6953846,59.3463784 88.9061538,59.0822027 90.1215385,58.931027 C90.4169231,61.1803378 91.0661538,63.393 92.0661538,65.5048784 C92.2523077,65.8973243 92.4523077,66.2851892 92.6615385,66.6669459 C90.34,65.4300541 88.4153846,63.6495405 86.9938462,61.5452973 L88.0461538,65.4453243 C90.1476923,67.4289324 92.7215385,68.875027 95.5953846,69.6400676 C95.5969231,69.6400676 95.5984615,69.6415946 95.6,69.6415946 L95.6030769,69.6415946 L95.6892308,69.6645 C105.033846,72.1001081 114.630769,66.5646351 117.138462,57.3154324 C117.14,57.3108514 117.143077,57.3032162 117.146154,57.2955811 C117.147692,57.291 117.146154,57.2848919 117.147692,57.2787838 C117.155385,57.2558784 117.163077,57.2314459 117.169231,57.2100676 C118.352308,52.7297703 117.72,48.0570676 115.389231,44.0470946 C113.053846,40.0371216 109.292308,37.1540946 104.787692,35.932473 L104.787692,35.932473 Z M114.307692,45.6886486 C112.929231,46.1452297 111.524615,46.4567432 110.116923,46.6277703 C109.812308,44.4334324 109.170769,42.2726892 108.193846,40.2112027 C107.966154,39.7286622 107.716923,39.2537568 107.453846,38.7864865 C110.456923,40.3364189 112.827692,42.7842432 114.307692,45.6886486 L114.307692,45.6886486 Z M100.758462,53.8185405 L107.672308,55.6570811 C107.12,57.4360676 106.321538,59.1356486 105.303077,60.7100135 C103.526154,59.5769595 101.606154,58.6973919 99.6076923,58.0850541 L100.758462,53.8185405 L100.758462,53.8185405 Z M99.5446154,51.7310946 L92.64,49.8940811 C93.2076923,48.1242568 94.0153846,46.4307838 95.0446154,44.8686351 C96.8123077,45.9879459 98.7169231,46.8583514 100.698462,47.4645811 L99.5446154,51.7310946 L99.5446154,51.7310946 Z M101.201538,52.1739324 L102.353846,47.9074189 C104.378462,48.3670541 106.467692,48.5579324 108.563077,48.4647838 C108.667692,50.3384459 108.512308,52.204473 108.110769,54.0109459 L101.201538,52.1739324 L101.201538,52.1739324 Z M105.003077,38.0962703 C105.623077,38.9956892 106.175385,39.9485541 106.64,40.9334865 C107.536923,42.828527 108.113846,44.7922838 108.395385,46.7636757 C106.506154,46.840027 104.626154,46.667473 102.798462,46.2582297 L105.003077,38.0962703 L105.003077,38.0962703 Z M101.141538,45.8184459 C99.3569231,45.2671892 97.6415385,44.4838243 96.0446154,43.4805676 C97.9353846,41.077027 100.396923,39.0598243 103.344615,37.6549595 L101.141538,45.8184459 L101.141538,45.8184459 Z M100.876923,37.0334595 C98.4384615,38.4627568 96.3246154,40.3180946 94.6184615,42.5063243 C93.4830769,41.6557703 92.4215385,40.6876351 91.4538462,39.6019189 C94.1984615,37.8198784 97.4861538,36.8792297 100.876923,37.0334595 L100.876923,37.0334595 Z M90.9707692,49.4527703 L85.0630769,47.8814595 C86.0276923,44.9449865 87.8,42.4620405 90.0676923,40.6143378 C91.1476923,41.8451216 92.3415385,42.938473 93.6230769,43.8928649 C92.6676923,45.3374324 91.8723077,46.9056892 91.2676923,48.5762568 C91.1615385,48.8648649 91.0646154,49.1595811 90.9707692,49.4527703 L90.9707692,49.4527703 Z M92.1861538,51.5386892 L99.1015385,53.3787568 L97.9492308,57.6452703 C95.9092308,57.1810541 93.8015385,56.9917027 91.6907692,57.0909595 C91.5984615,55.2142432 91.7676923,53.3451622 92.1861538,51.5386892 L92.1861538,51.5386892 Z M95.2569231,67.6182838 C94.6369231,66.7188649 94.0846154,65.766 93.6215385,64.7810676 C92.6984615,62.8356351 92.1153846,60.8153784 91.8430769,58.7874865 C93.7538462,58.705027 95.6584615,58.8775811 97.5061538,59.2914054 L95.2569231,67.6182838 L95.2569231,67.6182838 Z M99.1630769,59.7327162 C100.970769,60.2900811 102.704615,61.0856622 104.316923,62.1057162 C102.413846,64.5657568 99.9184615,66.6318243 96.9138462,68.0595946 L99.1630769,59.7327162 L99.1630769,59.7327162 Z M99.6461538,68.5253378 C102.02,67.0914595 104.076923,65.2483378 105.736923,63.0845405 C106.855385,63.9259324 107.898462,64.8818514 108.849231,65.9492432 C106.164615,67.6931081 102.96,68.6307027 99.6461538,68.5253378 L99.6461538,68.5253378 Z M110.236923,64.9352973 C109.169231,63.7197838 107.990769,62.6355946 106.724615,61.6903649 C107.643077,60.2809189 108.406154,58.7569459 108.993846,57.1398243 C109.118462,56.7931892 109.235385,56.4480811 109.343077,56.0999189 L115.241538,57.6681757 C114.275385,60.6061757 112.504615,63.0891216 110.236923,64.9352973 L110.236923,64.9352973 Z M115.686154,56.0250946 L109.781538,54.4553108 C110.241538,52.4289459 110.407692,50.3689865 110.284615,48.3227703 C111.870769,48.1334189 113.450769,47.7776216 115,47.2538514 C116.038462,49.9795946 116.326154,53.0076892 115.686154,56.0250946 L115.686154,56.0250946 Z" id="Shape"></path>
                        <path d="M104.316923,62.1057162 C102.704615,61.0856622 100.970769,60.2916081 99.1630769,59.7327162 L96.9138462,68.0595946 C99.9169231,66.6318243 102.412308,64.5657568 104.316923,62.1057162 L104.316923,62.1057162 Z" id="Shape" fill="#FFFFFF"></path>
                        <path d="M91.8415385,58.7874865 C92.1138462,60.8153784 92.6984615,62.8341081 93.62,64.7810676 C94.0846154,65.767527 94.6353846,66.7203919 95.2553846,67.6182838 L97.5030769,59.2914054 C95.6584615,58.8775811 93.7523077,58.705027 91.8415385,58.7874865 L91.8415385,58.7874865 Z" id="Shape" fill="#FFFFFF"></path>
                        <path d="M108.993846,57.1398243 C108.406154,58.7569459 107.643077,60.2809189 106.724615,61.6903649 C107.990769,62.6355946 109.169231,63.7197838 110.236923,64.9352973 C112.504615,63.0891216 114.275385,60.6061757 115.24,57.6697027 L109.341538,56.1014459 C109.235385,56.4496081 109.118462,56.7947162 108.993846,57.1398243 L108.993846,57.1398243 Z" id="Shape" fill="#FFFFFF"></path>
                        <path d="M97.9492308,57.6452703 L99.1015385,53.3787568 L92.1861538,51.5386892 C91.7692308,53.3451622 91.5984615,55.2142432 91.6907692,57.0909595 C93.8015385,56.9917027 95.9092308,57.1810541 97.9492308,57.6452703 L97.9492308,57.6452703 Z" id="Shape" fill="#FFFFFF"></path>
                        <path d="M107.672308,55.6570811 L100.758462,53.8185405 L99.6076923,58.0850541 C101.606154,58.6958649 103.526154,59.5769595 105.303077,60.7100135 C106.321538,59.1371757 107.12,57.4360676 107.672308,55.6570811 L107.672308,55.6570811 Z" id="Shape" fill="#FFFFFF"></path>
                        <path d="M92.64,49.8956081 L99.5446154,51.7326216 L100.696923,47.4676351 C98.7153846,46.8614054 96.8123077,45.992527 95.0430769,44.8716892 C94.0138462,46.4323108 93.2076923,48.1257838 92.64,49.8956081 L92.64,49.8956081 Z" id="Shape" fill="#FFFFFF"></path>
                        <path d="M108.563077,48.4632568 C106.467692,48.5564054 104.378462,48.365527 102.353846,47.9058919 L101.201538,52.1724054 L108.110769,54.0094189 C108.512308,52.204473 108.669231,50.3369189 108.563077,48.4632568 L108.563077,48.4632568 Z" id="Shape" fill="#FFFFFF"></path>
                        <path d="M105.736923,63.0845405 C104.076923,65.2498649 102.02,67.0914595 99.6461538,68.5253378 C102.96,68.6307027 106.164615,67.6931081 108.849231,65.9477162 C107.898462,64.8803243 106.853846,63.9244054 105.736923,63.0845405 L105.736923,63.0845405 Z" id="Shape" fill="#FFFFFF"></path>
                        <path d="M90.0676923,40.6143378 C87.8,42.4620405 86.0276923,44.9449865 85.0630769,47.8814595 L90.9707692,49.4527703 C91.0661538,49.1595811 91.1615385,48.8663919 91.2661538,48.5762568 C91.8723077,46.9056892 92.6661538,45.3374324 93.6215385,43.8928649 C92.34,42.938473 91.1476923,41.8451216 90.0676923,40.6143378 L90.0676923,40.6143378 Z" id="Shape" fill="#FFFFFF"></path>
                        <path d="M110.286154,48.3227703 C110.409231,50.3674595 110.243077,52.4274189 109.783077,54.4553108 L115.687692,56.0250946 C116.327692,53.0076892 116.04,49.9795946 115.003077,47.2538514 C113.450769,47.7776216 111.872308,48.1334189 110.286154,48.3227703 L110.286154,48.3227703 Z" id="Shape" fill="#FFFFFF"></path>
                        <path d="M94.6184615,42.5063243 C96.3246154,40.3180946 98.4384615,38.4627568 100.876923,37.0334595 C97.4861538,36.8792297 94.1969231,37.8198784 91.4538462,39.6019189 C92.4215385,40.6876351 93.4830769,41.6557703 94.6184615,42.5063243 L94.6184615,42.5063243 Z" id="Shape" fill="#FFFFFF"></path>
                        <path d="M110.116923,46.6277703 C111.524615,46.4567432 112.927692,46.1467568 114.307692,45.6886486 C112.827692,42.7842432 110.456923,40.3364189 107.453846,38.7864865 C107.718462,39.2522297 107.966154,39.7271351 108.193846,40.2112027 C109.170769,42.2726892 109.812308,44.4334324 110.116923,46.6277703 L110.116923,46.6277703 Z" id="Shape" fill="#FFFFFF"></path>
                        <path d="M108.395385,46.7652027 C108.113846,44.7938108 107.536923,42.828527 106.64,40.9350135 C106.173846,39.9500811 105.623077,38.9972162 105.003077,38.0977973 L102.798462,46.2612838 C104.626154,46.669 106.506154,46.8415541 108.395385,46.7652027 L108.395385,46.7652027 Z" id="Shape" fill="#FFFFFF"></path>
                        <path d="M96.0446154,43.4820946 C97.6415385,44.4853514 99.3569231,45.2671892 101.141538,45.819973 L103.344615,37.6564865 C100.396923,39.0613514 97.9353846,41.077027 96.0446154,43.4820946 L96.0446154,43.4820946 Z" id="Shape" fill="#FFFFFF"></path>
                        <path d="M136.273846,26.2908243 L82.2123077,11.9123378 C81.7753846,11.7962838 81.3384615,11.7413108 80.9076923,11.7413108 C78.6876923,11.7413108 76.6569231,13.2103108 76.0553846,15.4412973 L75.3015385,18.2372838 L73.7384615,12.4498514 L72.0692308,6.26539189 C71.0892308,2.63717568 67.7646154,0.102310811 63.9815385,0.102310811 C63.2492308,0.102310811 62.52,0.198513514 61.8107692,0.387864865 L7.74923077,14.7663514 C5.58769231,15.3389865 3.78,16.7148378 2.66153846,18.6388919 C1.54153846,20.5629459 1.24615385,22.8030946 1.82615385,24.9485676 L22.5584615,101.747338 C23.5369231,105.375554 26.8630769,107.910419 30.6461538,107.910419 C31.3769231,107.910419 32.1061538,107.814216 32.8169231,107.624865 L56.9676923,101.202189 L63.2846154,99.5209324 L112.936923,112.725135 C113.372308,112.841189 113.810769,112.896162 114.243077,112.896162 C116.46,112.896162 118.492308,111.425635 119.092308,109.197703 L139.826154,32.3989324 C140.544615,29.7388514 138.953846,27.0039459 136.273846,26.2908243 L136.273846,26.2908243 Z M86.0123077,90.0350405 L31.9507692,104.413527 C31.5153846,104.529581 31.0784615,104.584554 30.6476923,104.584554 C28.4276923,104.584554 26.3969231,103.1125 25.7969231,100.884568 L5.06461538,24.0857973 C4.34461538,21.4241892 5.93538462,18.6892838 8.61846154,17.9776892 L62.68,3.5992027 C63.1153846,3.48314865 63.5523077,3.42817568 63.9846154,3.42817568 C66.2030769,3.42817568 68.2338462,4.89717568 68.8353846,7.12663514 L89.5676923,83.9254054 C90.2861538,86.5854865 88.6938462,89.3219189 86.0123077,90.0350405 L86.0123077,90.0350405 Z M112.426154,92.1866216 C112.126154,93.3013514 111.110769,94.0373784 110.001538,94.0373784 C109.786154,94.0373784 109.567692,94.0083649 109.349231,93.9503378 L91.9876923,89.3326081 C92.8507692,87.8315405 93.2076923,86.1380676 93.0461538,84.4507027 L110.649231,89.1325676 C111.990769,89.4898919 112.786154,90.8565811 112.426154,92.1866216 L112.426154,92.1866216 Z M117.167692,57.2085405 C117.161538,57.2314459 117.153846,57.2543514 117.146154,57.2772568 C117.144615,57.2833649 117.146154,57.2879459 117.144615,57.2940541 C117.141538,57.3001622 117.138462,57.3077973 117.136923,57.3139054 C114.627692,66.5631081 105.032308,72.0985811 95.6876923,69.662973 L95.6015385,69.6400676 L95.6,69.6400676 C95.5969231,69.6400676 95.5953846,69.6385405 95.5938462,69.6385405 C92.72,68.8735 90.1461538,67.4274054 88.0446154,65.4437973 L86.9923077,61.5437703 C88.4138462,63.6495405 90.3384615,65.4300541 92.66,66.6654189 C92.4507692,66.2836622 92.2507692,65.8957973 92.0646154,65.5033514 C91.0661538,63.391473 90.4169231,61.1788108 90.12,58.9295 C88.9046154,59.0806757 87.6938462,59.3433243 86.4969231,59.7082838 L86.0538462,58.0621486 C87.3446154,57.6727568 88.6507692,57.3917838 89.9646154,57.232973 C89.8569231,55.1837027 90.0415385,53.1206892 90.5169231,51.0927973 L84.6169231,49.5245405 C84.4661538,50.2330811 84.3723077,50.9416216 84.3215385,51.6471081 L83.2938462,47.8417568 C85.9661538,38.8368784 95.4061538,33.4861757 104.616923,35.8851351 L104.786154,35.9309459 C109.290769,37.1525676 113.052308,40.0355946 115.386154,44.0440405 C117.72,48.0555405 118.350769,52.7297703 117.167692,57.2085405 L117.167692,57.2085405 Z" id="Shape" fill="#FFFFFF"></path>
                        <path d="M49.2876923,61.3269324 C49.2892308,61.3254054 49.2907692,61.3254054 49.2923077,61.3254054 L49.2953846,61.3254054 L49.3769231,61.300973 C58.6984615,58.7722162 64.22,49.2145541 61.7353846,39.9622973 C61.7338462,39.9561892 61.7323077,39.947027 61.7307692,39.9409189 C61.7292308,39.9363378 61.7276923,39.9317568 61.7261538,39.9256486 C61.72,39.9012162 61.7153846,39.8783108 61.7076923,39.8554054 C60.4784615,35.3888514 57.5753846,31.6537432 53.5353846,29.3402973 C49.4938462,27.0253243 44.7846154,26.3961892 40.2692308,27.573527 L40.0969231,27.6193378 C30.7753846,30.1496216 25.2553846,39.7072838 27.7415385,48.9625946 C27.7430769,48.9687027 27.7446154,48.9748108 27.7461538,48.9809189 C27.7476923,48.9855 27.7492308,48.9900811 27.7507692,48.9946622 C27.7569231,49.0190946 27.7630769,49.043527 27.7692308,49.0664324 C29.0046154,53.5513108 31.9215385,57.2940541 35.9815385,59.605973 C40.0430769,61.9163649 44.7692308,62.5271757 49.2876923,61.3269324 L49.2876923,61.3269324 Z M36.0476923,57.6269459 C36.9984615,56.5626081 38.0384615,55.6066892 39.1538462,54.7698784 C40.5430769,56.5702432 42.22,58.1644595 44.1492308,59.496027 C44.5076923,59.7434054 44.8753846,59.9800946 45.2476923,60.2076216 C41.9384615,60.3114595 38.7338462,59.3723378 36.0476923,57.6269459 L36.0476923,57.6269459 Z M44.1323077,45.5038784 L45.2846154,49.7703919 C43.2815385,50.3827297 41.3630769,51.2638243 39.5830769,52.3968784 C38.5584615,50.8179324 37.7646154,49.1152973 37.2169231,47.3424189 L44.1323077,45.5038784 L44.1323077,45.5038784 Z M36.7815385,45.6947568 C36.3830769,43.8791216 36.2292308,42.0130946 36.3338462,40.1485946 C38.4276923,40.2417432 40.5138462,40.0493378 42.5353846,39.5912297 L43.6876923,43.8577432 L36.7815385,45.6947568 L36.7815385,45.6947568 Z M45.3461538,43.4164324 L44.1938462,39.1514459 C46.1769231,38.5452162 48.0815385,37.6732838 49.8492308,36.5524459 C50.8846154,38.1222297 51.6876923,39.8172297 52.2507692,41.5794189 L45.3461538,43.4164324 L45.3461538,43.4164324 Z M52.7030769,43.224027 C53.1184615,45.0381351 53.2846154,46.9087432 53.1953846,48.7762973 C51.0846154,48.6770405 48.9784615,48.8663919 46.94,49.3290811 L45.7876923,45.0625676 L52.7030769,43.224027 L52.7030769,43.224027 Z M45.1276923,58.1003243 C43.3492308,56.8725946 41.8261538,55.4127568 40.5707692,53.7925811 C42.1830769,52.772527 43.92,51.9769459 45.7292308,51.4180541 L47.9769231,59.7464595 C46.9861538,59.2730811 46.0276923,58.7218243 45.1276923,58.1003243 L45.1276923,58.1003243 Z M47.3861538,50.9767432 C49.2323077,50.5629189 51.1353846,50.3918919 53.0430769,50.4743514 C52.6338462,53.5513108 51.5138462,56.5763514 49.6338462,59.3036216 L47.3861538,50.9767432 L47.3861538,50.9767432 Z M52.2323077,58.3522838 C53.5661538,55.9319459 54.42,53.3161486 54.7676923,50.6178919 C56.1569231,50.7904459 57.5446154,51.1004324 58.9046154,51.5539595 C57.46,54.3942297 55.1569231,56.7992973 52.2323077,58.3522838 L52.2323077,58.3522838 Z M59.5984615,49.9857027 C58.06,49.4634595 56.4953846,49.1091892 54.92,48.9183108 C55.0061538,47.2431622 54.8984615,45.5435811 54.5938462,43.8531622 C54.5292308,43.4912568 54.4553846,43.1339324 54.3723077,42.7796622 L60.2692308,41.2114054 C60.9138462,44.2333919 60.6307692,47.2630135 59.5984615,49.9857027 L59.5984615,49.9857027 Z M54.8153846,32.3088378 C57.0861538,34.1550135 58.8630769,36.6349054 59.8261538,39.5652703 L53.9230769,41.1350541 C53.3,39.152973 52.4046154,37.2854189 51.2692308,35.5751486 C52.5476923,34.6253378 53.7369231,33.5319865 54.8153846,32.3088378 L54.8153846,32.3088378 Z M53.4276923,31.299473 C52.4646154,32.3790811 51.4061538,33.3441622 50.2723077,34.1901351 C48.9030769,32.4416892 47.2584615,30.8887027 45.3753846,29.5876757 C44.9338462,29.2837973 44.4784615,28.9936622 44.0153846,28.7218514 C47.3969231,28.5737297 50.6815385,29.5174324 53.4276923,31.299473 L53.4276923,31.299473 Z M44.3923077,30.9864324 C46.1246154,32.1805676 47.6138462,33.5961216 48.8492308,35.1643784 C47.2523077,36.1676351 45.5369231,36.951 43.7492308,37.5037838 L41.5461538,29.3402973 C42.5353846,29.8121486 43.4923077,30.3649324 44.3923077,30.9864324 L44.3923077,30.9864324 Z M42.0923077,37.9450946 C40.2661538,38.3543378 38.3876923,38.5268919 36.5,38.4520676 C36.9246154,35.4300811 38.04,32.4630676 39.8876923,29.7831351 L42.0923077,37.9450946 L42.0923077,37.9450946 Z M37.4353846,30.4672432 C36.0446154,32.9165946 35.1476923,35.5720946 34.7738462,38.3115811 C33.3615385,38.1405541 31.9538462,37.8275135 30.5707692,37.3694054 C32.0476923,34.4619459 34.4230769,32.0171757 37.4353846,30.4672432 L37.4353846,30.4672432 Z M29.8784615,38.9346081 C31.4338462,39.4629595 33.0184615,39.8187568 34.6076923,40.0096351 C34.5076923,41.7367027 34.6107692,43.4882027 34.9276923,45.2335946 C34.9830769,45.5359459 35.0476923,45.8398243 35.1123077,46.1391216 L29.2061538,47.7104324 C28.5615385,44.6884459 28.8461538,41.6603514 29.8784615,38.9346081 L29.8784615,38.9346081 Z M34.6569231,56.6175811 C32.3876923,54.7714054 30.6153846,52.2915135 29.6492308,49.3550405 L35.5476923,47.7867838 C36.1569231,49.778027 37.0369231,51.6577973 38.16,53.3787568 C36.8984615,54.3209324 35.7246154,55.4051216 34.6569231,56.6175811 L34.6569231,56.6175811 Z" id="Shape" fill="#FFFFFF"></path>
                        <path d="M72.1446154,70.736473 L35.8984615,80.3765946 C34.5584615,80.7323919 33.7630769,82.1006081 34.1215385,83.4321757 C34.4215385,84.5453784 35.4369231,85.2814054 36.5476923,85.2814054 C36.7630769,85.2814054 36.9815385,85.2523919 37.2,85.1943649 L73.4461538,75.5542432 C74.7876923,75.1984459 75.5830769,73.8302297 75.2230769,72.5001892 C74.8646154,71.1686216 73.4876923,70.3776216 72.1446154,70.736473 L72.1446154,70.736473 Z" id="Shape" fill="#FFFFFF"></path>
                    </g>
                </g>
                <rect id="Rectangle-64" stroke="#FFFFFF" sketch:type="MSShapeGroup" x="0" y="0" width="262" height="204" rx="10"></rect>
            </g>
        </g>
    </g>
</svg>