<?xml version="1.0" encoding="UTF-8" standalone="no"?>
<svg width="162px" height="162px" viewBox="0 0 162 162" version="1.1" xmlns="http://www.w3.org/2000/svg" xmlns:xlink="http://www.w3.org/1999/xlink" xmlns:sketch="http://www.bohemiancoding.com/sketch/ns">
    <!-- Generator: Sketch 3.3.3 (12081) - http://www.bohemiancoding.com/sketch -->
    <title>passport</title>
    <desc>Created with Sketch.</desc>
    <defs></defs>
    <g id="Page-1" stroke="none" stroke-width="1" fill="none" fill-rule="evenodd" sketch:type="MSPage">
        <g id="Ocean-Profile-Set-Up-08" sketch:type="MSArtboardGroup" transform="translate(-393.000000, -343.000000)">
            <g id="passport" sketch:type="MSLayerGroup" transform="translate(393.000000, 343.000000)">
                <g id="Oval-95-+-noun_185598_cc" sketch:type="MSShapeGroup">
                    <circle id="Oval-95" fill-opacity="0.15" fill="#FFFFFF" cx="81" cy="81" r="81"></circle>
                    <g id="noun_185598_cc" transform="translate(32.000000, 43.000000)">
                        <path d="M33.8455385,24.2727568 C32.9895934,23.1902432 31.9577692,22.2131351 30.7575275,21.3888649 C30.133956,20.9598649 29.4709451,20.5782973 28.7855495,20.2525946 L30.311967,25.8875676 C31.5505824,25.5070541 32.7390989,24.9652703 33.8455385,24.2727568 L33.8455385,24.2727568 Z" id="Shape"></path>
                        <path d="M76.6651758,61.5251351 L64.4676923,58.2934054 C64.5785495,59.4581351 64.3312527,60.6270811 63.7343297,61.6632162 L75.7633956,64.8506757 C75.9147582,64.8907297 76.0661209,64.9107568 76.2153516,64.9107568 C76.9838901,64.9107568 77.6874066,64.4037568 77.8952637,63.6332432 C78.1446923,62.7151622 77.5936044,61.7717838 76.6651758,61.5251351 L76.6651758,61.5251351 Z" id="Shape"></path>
                        <path d="M37.3620549,28.3941081 L41.452044,27.3105405 C40.7847692,25.2878108 39.5536154,23.5770811 37.9802967,22.3016757 C37.232011,23.145973 36.4091099,23.9006757 35.5233187,24.5562973 C36.309978,25.7368378 36.9303516,27.0259459 37.3620549,28.3941081 L37.3620549,28.3941081 Z" id="Shape"></path>
                        <path d="M24.6305385,32.9855676 L20.5437473,34.0680811 C21.2120879,36.093973 22.4411099,37.8068108 24.0133626,39.0811622 C24.7520549,38.2442432 25.5664286,37.4958649 26.4415604,36.8444595 C25.6623626,35.6575946 25.0526484,34.3600541 24.6305385,32.9855676 L24.6305385,32.9855676 Z" id="Shape"></path>
                        <path d="M25.9373736,21.0304865 C23.8492088,22.1003514 22.2044725,23.7878919 21.1811758,25.7948108 C22.1383846,26.111027 23.1147802,26.3271081 24.0933077,26.4451622 C24.3533956,24.5541892 24.9737692,22.7211892 25.9373736,21.0304865 L25.9373736,21.0304865 Z" id="Shape"></path>
                        <path d="M47.692022,4.91821622 C47.2752418,3.38035135 45.8682088,2.3652973 44.3311319,2.3652973 C44.0326703,2.3652973 43.7299451,2.40324324 43.4272198,2.48335135 L5.9702967,12.4083243 C4.11237363,12.9005676 3.00913187,14.7873243 3.50798901,16.6245405 L17.8725165,69.6360811 C18.2892967,71.1739459 19.6952637,72.1900541 21.2334066,72.1900541 C21.5318681,72.1900541 21.8345934,72.1521081 22.1362527,72.072 L59.5931758,62.147027 C61.4510989,61.6547838 62.5532747,59.7659189 62.0565495,57.9297568 L47.692022,4.91821622 L47.692022,4.91821622 Z M19.2401099,33.8678108 C19.2358462,33.8509459 19.2326484,33.8351351 19.2273187,33.8182703 C19.2262527,33.8151081 19.2251868,33.8119459 19.2241209,33.8087838 C19.2230549,33.8045676 19.221989,33.8003514 19.2209231,33.7961351 C17.4983736,27.4075135 21.324011,20.8101892 27.7814396,19.0636216 L27.9008242,19.032 C31.0293407,18.2193243 34.2921648,18.6535946 37.0923736,20.2515405 C39.8904505,21.8494865 41.9018681,24.4266486 42.7546154,27.5097568 C42.7588791,27.5255676 42.7631429,27.5424324 42.7674066,27.5582432 C42.7684725,27.5614054 42.7695385,27.5645676 42.7706044,27.5687838 C42.7716703,27.573 42.7727363,27.5793243 42.7738022,27.5835405 C44.4952857,33.9711081 40.6696484,40.5673784 34.2111538,42.3128919 L34.1546593,42.3297568 L34.1525275,42.3297568 C34.1514615,42.3297568 34.1503956,42.3297568 34.1493297,42.3308108 C31.0176154,43.1592973 27.7441319,42.7376757 24.9311319,41.1418378 C22.1181319,39.5470541 20.0971209,36.9635676 19.2401099,33.8678108 L19.2401099,33.8678108 Z M50.8866264,52.1535405 L25.7732198,58.8077838 C25.6218571,58.8478378 25.4704945,58.8678649 25.3212637,58.8678649 C24.5527253,58.8678649 23.8492088,58.3608649 23.6402857,57.5914054 C23.3919231,56.6722703 23.943011,55.7278378 24.8714396,55.4822432 L49.9848462,48.828 C50.9154066,48.5802973 51.8694176,49.1262973 52.1167143,50.0454324 C52.3672088,50.9635135 51.8161209,51.9068919 50.8866264,52.1535405 L50.8866264,52.1535405 Z" id="Shape"></path>
                        <path d="M24.1999011,31.2231892 C23.9803187,30.0173514 23.909967,28.8083514 23.9781868,27.6172703 C22.876011,27.4855135 21.7791648,27.240973 20.7015055,26.8752162 C19.9862637,28.7567027 19.7890659,30.8479459 20.2346264,32.9328649 L24.3267473,31.8482432 C24.283044,31.6416486 24.2382747,31.4318919 24.1999011,31.2231892 L24.1999011,31.2231892 Z" id="Shape"></path>
                        <path d="M29.163956,26.1921892 L27.6364725,20.5572162 C26.3562857,22.4070811 25.5834835,24.4561622 25.2892857,26.5410811 C26.5971868,26.5927297 27.8986923,26.4736216 29.163956,26.1921892 L29.163956,26.1921892 Z" id="Shape"></path>
                        <path d="M36.1895275,40.2785676 C38.2148022,39.2065946 39.8105055,37.5464595 40.8135495,35.5848649 C39.8701978,35.2718108 38.9087253,35.0578378 37.9472527,34.9387297 C37.7052857,36.8022973 37.1136923,38.6078919 36.1895275,40.2785676 L36.1895275,40.2785676 Z" id="Shape"></path>
                        <path d="M25.1741648,27.7131892 C25.1016813,29.0001892 25.2082747,30.2882432 25.4843516,31.5415135 L30.2693297,30.2734865 L29.4709451,27.3284595 C28.0692418,27.6457297 26.6249011,27.7774865 25.1741648,27.7131892 L25.1741648,27.7131892 Z" id="Shape"></path>
                        <path d="M30.6210879,27.0248919 L31.4194725,29.9688649 L36.2044505,28.7008378 C35.8143187,27.4834054 35.2579011,26.3144595 34.5405275,25.2308919 C33.3136374,26.0045676 31.994011,26.6053784 30.6210879,27.0248919 L30.6210879,27.0248919 Z" id="Shape"></path>
                        <path d="M27.128022,37.8068108 C26.3552198,38.3844324 25.6346484,39.0442703 24.9759011,39.7789459 C26.837022,40.9837297 29.0573626,41.631973 31.3501868,41.5602973 C31.0922308,41.4042973 30.8374725,41.2398649 30.5891099,41.0691081 C29.2524286,40.149973 28.0905604,39.0484865 27.128022,37.8068108 L27.128022,37.8068108 Z" id="Shape"></path>
                        <path d="M31.3757692,34.3547838 L30.5773846,31.4097568 L25.786011,32.6788378 C26.1654835,33.9025946 26.7155055,35.0778649 27.4254176,36.1677568 C28.6587033,35.3856486 29.9879231,34.7774595 31.3757692,34.3547838 L31.3757692,34.3547838 Z" id="Shape"></path>
                        <path d="M32.8318352,35.1874865 L34.3891648,40.9352432 C35.6917363,39.0516486 36.4688022,36.9635676 36.7512747,34.8407027 C35.4295165,34.7837838 34.110956,34.9018378 32.8318352,35.1874865 L32.8318352,35.1874865 Z" id="Shape"></path>
                        <path d="M28.1097473,37.1311622 C28.9795495,38.2505676 30.0358901,39.2571892 31.267044,40.1046486 C31.8906154,40.5336486 32.5536264,40.9152162 33.2411538,41.2398649 L31.6838242,35.4910541 C30.4302857,35.8768378 29.2268462,36.4270541 28.1097473,37.1311622 L28.1097473,37.1311622 Z" id="Shape"></path>
                        <path d="M36.8578681,33.6685946 C36.9196923,32.3794865 36.8045714,31.0893243 36.5167692,29.8360541 L31.7264615,31.1051351 L32.5248462,34.0501622 C33.9361429,33.7307838 35.3954066,33.599027 36.8578681,33.6685946 L36.8578681,33.6685946 Z" id="Shape"></path>
                        <path d="M37.8257363,30.2703243 C38.0378571,31.4371622 38.1114066,32.6103243 38.0517143,33.7666216 C39.1421648,33.8983784 40.2272857,34.1429189 41.2932198,34.5034054 C42.0084615,32.622973 42.2045934,30.5317297 41.759033,28.4468108 L37.6733077,29.5293243 C37.7298022,29.7749189 37.7799011,30.0205135 37.8257363,30.2703243 L37.8257363,30.2703243 Z" id="Shape"></path>
                        <path d="M72.6029011,24.8029459 L72.4856484,24.7713243 C66.1039011,23.1154054 59.5633297,26.8088108 57.7118022,33.0245676 L58.4238462,35.6512703 C58.459022,35.1642973 58.5251099,34.6752162 58.6285055,34.1861351 L62.7163626,35.2686486 C62.3859231,36.6684324 62.258011,38.0924595 62.3336923,39.507 C61.4233846,39.6166216 60.5184066,39.8105676 59.6240879,40.0793514 L59.9310769,41.2156216 C60.7603736,40.9647568 61.5992637,40.7824054 62.4413516,40.6780541 C62.646011,42.2306757 63.0958352,43.758 63.7886923,45.2157568 C63.9176703,45.4866486 64.0562418,45.7543784 64.2012088,46.0178919 C62.5927143,45.1641081 61.2592308,43.9350811 60.2743077,42.4825946 L61.0034066,45.1746486 C62.4594725,46.5438649 64.2427802,47.5420541 66.2339451,48.0701351 C66.235011,48.0701351 66.2360769,48.0711892 66.2371429,48.0711892 L66.2392747,48.0711892 L66.298967,48.087 C72.7734505,49.7682162 79.4227473,45.9472703 81.1602198,39.5628649 C81.1612857,39.5597027 81.1634176,39.5544324 81.1655495,39.5491622 C81.1666154,39.546 81.1655495,39.5417838 81.1666154,39.5375676 C81.1719451,39.5217568 81.1772747,39.5048919 81.1815385,39.4901351 C82.0012418,36.3975405 81.5631429,33.1721351 79.9482527,30.4041892 C78.3301648,27.6362432 75.723956,25.6461892 72.6029011,24.8029459 L72.6029011,24.8029459 Z M79.1989011,31.5372973 C78.2438242,31.8524595 77.2706264,32.0674865 76.2952967,32.1855405 C76.0842418,30.6708649 75.6397473,29.1793784 74.9628791,27.7564054 C74.8051209,27.4233243 74.6324396,27.0955135 74.4501648,26.772973 C76.5308681,27.8428378 78.1734725,29.5324865 79.1989011,31.5372973 L79.1989011,31.5372973 Z M69.8112198,37.1490811 L74.6015275,38.4181622 C74.2188571,39.6461351 73.6656374,40.8192973 72.959989,41.906027 C71.7288352,41.1239189 70.3985495,40.5167838 69.0139011,40.0941081 L69.8112198,37.1490811 L69.8112198,37.1490811 Z M68.9701978,35.7081892 L64.1862857,34.4401622 C64.5796154,33.2185135 65.1392308,32.0495676 65.8523407,30.9712703 C67.0770989,31.7438919 68.3967253,32.3447027 69.7696484,32.7631622 L68.9701978,35.7081892 L68.9701978,35.7081892 Z M70.1182088,36.0138649 L70.9165934,33.0688378 C72.3193626,33.3861081 73.7669011,33.5178649 75.2187033,33.4535676 C75.2911868,34.7468919 75.1835275,36.0349459 74.9053187,37.2818919 L70.1182088,36.0138649 L70.1182088,36.0138649 Z M72.7521319,26.2965405 C73.1817033,26.9173784 73.5643736,27.5751081 73.8862857,28.254973 C74.5077253,29.5630541 74.9074505,30.9185676 75.1025165,32.2793514 C73.7935495,32.3320541 72.490978,32.2129459 71.2246484,31.9304595 L72.7521319,26.2965405 L72.7521319,26.2965405 Z M70.0766374,31.6268919 C68.8401538,31.2463784 67.6516374,30.7056486 66.5451978,30.0131351 C67.8552308,28.3540541 69.5607253,26.9616486 71.6030549,25.9919189 L70.0766374,31.6268919 L70.0766374,31.6268919 Z M69.8932967,25.5629189 C68.2037912,26.5495135 66.7391978,27.8301892 65.5570769,29.3406486 C64.7704176,28.7535405 64.0349231,28.0852703 63.3644505,27.3358378 C65.2660769,26.1057568 67.543978,25.4564595 69.8932967,25.5629189 L69.8932967,25.5629189 Z M63.0297473,34.1355405 L58.9365604,33.0509189 C59.6049011,31.023973 60.8328571,29.3100811 62.404044,28.0346757 C63.1523297,28.8842432 63.9794945,29.6389459 64.8674176,30.2977297 C64.2054725,31.2948649 63.6543846,32.3773784 63.2354725,33.5305135 C63.1619231,33.7297297 63.0947692,33.9331622 63.0297473,34.1355405 L63.0297473,34.1355405 Z M63.8718352,35.5753784 L68.6632088,36.8455135 L67.8648242,39.7905405 C66.4513956,39.4701081 64.9910659,39.3394054 63.5286044,39.4079189 C63.4646484,38.1124865 63.5819011,36.8223243 63.8718352,35.5753784 L63.8718352,35.5753784 Z M65.9994396,46.6745676 C65.5698681,46.0537297 65.1871978,45.396 64.8663516,44.7161351 C64.2267912,43.3732703 63.8228022,41.9787568 63.6341319,40.578973 C64.958022,40.5220541 66.2776484,40.6411622 67.5578352,40.9268108 L65.9994396,46.6745676 L65.9994396,46.6745676 Z M68.7058462,41.2314324 C69.9583187,41.6161622 71.1596264,42.1653243 72.2767253,42.8694324 C70.9581648,44.5675135 69.2292198,45.9936486 67.1474505,46.9791892 L68.7058462,41.2314324 L68.7058462,41.2314324 Z M69.0405495,47.3006757 C70.6852857,46.3109189 72.1104396,45.0386757 73.2605824,43.5450811 C74.0355165,44.1258649 74.7582198,44.7857027 75.416967,45.5224865 C73.5569121,46.7262162 71.3365714,47.3734054 69.0405495,47.3006757 L69.0405495,47.3006757 Z M76.3784396,44.8225946 C75.6386813,43.9835676 74.8221758,43.2351892 73.9449121,42.5827297 C74.5812747,41.6098378 75.109978,40.5578919 75.5171648,39.4416486 C75.6035055,39.2023784 75.6845165,38.9641622 75.7591319,38.7238378 L79.8459231,39.8063514 C79.1765165,41.8343514 77.9496264,43.5482432 76.3784396,44.8225946 L76.3784396,44.8225946 Z M80.153978,38.6721892 L76.0629231,37.5886216 C76.3816374,36.1898919 76.4967582,34.767973 76.4114835,33.3555405 C77.5104615,33.2248378 78.6051758,32.9792432 79.6785714,32.6177027 C80.3980769,34.4991892 80.5974066,36.5893784 80.153978,38.6721892 L80.153978,38.6721892 Z" id="Shape"></path>
                        <path d="M72.2767253,42.8694324 C71.1596264,42.1653243 69.9583187,41.6172162 68.7058462,41.2314324 L67.1474505,46.9791892 C69.2281538,45.9936486 70.9570989,44.5675135 72.2767253,42.8694324 L72.2767253,42.8694324 Z" id="Shape" fill="#FFFFFF"></path>
                        <path d="M63.6330659,40.578973 C63.8217363,41.9787568 64.2267912,43.3722162 64.8652857,44.7161351 C65.1871978,45.3970541 65.5688022,46.0547838 65.9983736,46.6745676 L67.5557033,40.9268108 C66.2776484,40.6411622 64.956956,40.5220541 63.6330659,40.578973 L63.6330659,40.578973 Z" id="Shape" fill="#FFFFFF"></path>
                        <path d="M75.5171648,39.4416486 C75.109978,40.5578919 74.5812747,41.6098378 73.9449121,42.5827297 C74.8221758,43.2351892 75.6386813,43.9835676 76.3784396,44.8225946 C77.9496264,43.5482432 79.1765165,41.8343514 79.8448571,39.8074054 L75.7580659,38.7248919 C75.6845165,38.9652162 75.6035055,39.2034324 75.5171648,39.4416486 L75.5171648,39.4416486 Z" id="Shape" fill="#FFFFFF"></path>
                        <path d="M67.8648242,39.7905405 L68.6632088,36.8455135 L63.8718352,35.5753784 C63.582967,36.8223243 63.4646484,38.1124865 63.5286044,39.4079189 C64.9910659,39.3394054 66.4513956,39.4701081 67.8648242,39.7905405 L67.8648242,39.7905405 Z" id="Shape" fill="#FFFFFF"></path>
                        <path d="M74.6015275,38.4181622 L69.8112198,37.1490811 L69.0139011,40.0941081 C70.3985495,40.5157297 71.7288352,41.1239189 72.959989,41.906027 C73.6656374,40.8203514 74.2188571,39.6461351 74.6015275,38.4181622 L74.6015275,38.4181622 Z" id="Shape" fill="#FFFFFF"></path>
                        <path d="M64.1862857,34.4412162 L68.9701978,35.7092432 L69.7685824,32.7652703 C68.3956593,32.3468108 67.0770989,31.7470541 65.8512747,30.9733784 C65.1381648,32.0506216 64.5796154,33.2195676 64.1862857,34.4412162 L64.1862857,34.4412162 Z" id="Shape" fill="#FFFFFF"></path>
                        <path d="M75.2187033,33.4525135 C73.7669011,33.5168108 72.3193626,33.3850541 70.9165934,33.0677838 L70.1182088,36.0128108 L74.9053187,37.2808378 C75.1835275,36.0349459 75.2922527,34.7458378 75.2187033,33.4525135 L75.2187033,33.4525135 Z" id="Shape" fill="#FFFFFF"></path>
                        <path d="M73.2605824,43.5450811 C72.1104396,45.0397297 70.6852857,46.3109189 69.0405495,47.3006757 C71.3365714,47.3734054 73.5569121,46.7262162 75.416967,45.5214324 C74.7582198,44.7846486 74.0344505,44.1248108 73.2605824,43.5450811 L73.2605824,43.5450811 Z" id="Shape" fill="#FFFFFF"></path>
                        <path d="M62.404044,28.0346757 C60.8328571,29.3100811 59.6049011,31.023973 58.9365604,33.0509189 L63.0297473,34.1355405 C63.0958352,33.9331622 63.1619231,33.7307838 63.2344066,33.5305135 C63.6543846,32.3773784 64.2044066,31.2948649 64.8663516,30.2977297 C63.9784286,29.6389459 63.1523297,28.8842432 62.404044,28.0346757 L62.404044,28.0346757 Z" id="Shape" fill="#FFFFFF"></path>
                        <path d="M76.4125495,33.3555405 C76.4978242,34.7669189 76.3827033,36.1888378 76.063989,37.5886216 L80.155044,38.6721892 C80.5984725,36.5893784 80.3991429,34.4991892 79.6807033,32.6177027 C78.6051758,32.9792432 77.5115275,33.2248378 76.4125495,33.3555405 L76.4125495,33.3555405 Z" id="Shape" fill="#FFFFFF"></path>
                        <path d="M65.5570769,29.3406486 C66.7391978,27.8301892 68.2037912,26.5495135 69.8932967,25.5629189 C67.543978,25.4564595 65.265011,26.1057568 63.3644505,27.3358378 C64.0349231,28.0852703 64.7704176,28.7535405 65.5570769,29.3406486 L65.5570769,29.3406486 Z" id="Shape" fill="#FFFFFF"></path>
                        <path d="M76.2952967,32.1855405 C77.2706264,32.0674865 78.2427582,31.8535135 79.1989011,31.5372973 C78.1734725,29.5324865 76.5308681,27.8428378 74.4501648,26.772973 C74.6335055,27.0944595 74.8051209,27.4222703 74.9628791,27.7564054 C75.6397473,29.1793784 76.0842418,30.6708649 76.2952967,32.1855405 L76.2952967,32.1855405 Z" id="Shape" fill="#FFFFFF"></path>
                        <path d="M75.1025165,32.2804054 C74.9074505,30.9196216 74.5077253,29.5630541 73.8862857,28.256027 C73.5633077,27.5761622 73.1817033,26.9184324 72.7521319,26.2975946 L71.2246484,31.9325676 C72.490978,32.214 73.7935495,32.3331081 75.1025165,32.2804054 L75.1025165,32.2804054 Z" id="Shape" fill="#FFFFFF"></path>
                        <path d="M66.5451978,30.0141892 C67.6516374,30.7067027 68.8401538,31.2463784 70.0766374,31.6279459 L71.6030549,25.992973 C69.5607253,26.9627027 67.8552308,28.3540541 66.5451978,30.0141892 L66.5451978,30.0141892 Z" id="Shape" fill="#FFFFFF"></path>
                        <path d="M94.4183077,18.1476486 L56.9613846,8.22267568 C56.6586593,8.14256757 56.3559341,8.10462162 56.0574725,8.10462162 C54.5193297,8.10462162 53.1122967,9.11862162 52.6955165,10.6585946 L52.1732088,12.5885676 L51.0902198,8.5937027 L49.9336813,4.32478378 C49.2546813,1.82035135 46.9511978,0.0706216216 44.3300659,0.0706216216 C43.8226813,0.0706216216 43.3174286,0.137027027 42.826033,0.26772973 L5.36910989,10.1927027 C3.87147253,10.587973 2.619,11.5376757 1.84406593,12.8657838 C1.06806593,14.1938919 0.863406593,15.7401892 1.26526374,17.2211351 L15.6297912,70.2326757 C16.3077253,72.7371081 18.6122747,74.4868378 21.2334066,74.4868378 C21.7397253,74.4868378 22.244978,74.4204324 22.7374396,74.2897297 L39.4704725,69.8563784 L43.8471978,68.6958649 L78.2491538,77.8102703 C78.5508132,77.8903784 78.8546044,77.9283243 79.1541319,77.9283243 C80.6901429,77.9283243 82.0982418,76.9132703 82.513956,75.3754054 L96.8795495,22.3638649 C97.3773407,20.5277027 96.2751648,18.6398919 94.4183077,18.1476486 L94.4183077,18.1476486 Z M59.5942418,62.1480811 L22.1373187,72.0730541 C21.8356593,72.1531622 21.5329341,72.1911081 21.2344725,72.1911081 C19.6963297,72.1911081 18.2892967,71.175 17.8735824,69.6371351 L3.50905495,16.6255946 C3.0101978,14.7883784 4.11237363,12.9005676 5.97136264,12.4093784 L43.4282857,2.48440541 C43.7299451,2.4042973 44.0326703,2.36635135 44.3321978,2.36635135 C45.8692747,2.36635135 47.2763077,3.38035135 47.6930879,4.91927027 L62.0576154,57.9308108 C62.5554066,59.766973 61.4521648,61.6558378 59.5942418,62.1480811 L59.5942418,62.1480811 Z M77.8952637,63.6332432 C77.6874066,64.4027027 76.9838901,64.9107568 76.2153516,64.9107568 C76.0661209,64.9107568 75.9147582,64.8907297 75.7633956,64.8506757 L63.7343297,61.6632162 C64.3323187,60.6270811 64.5796154,59.4581351 64.4676923,58.2934054 L76.6641099,61.5251351 C77.5936044,61.7717838 78.1446923,62.7151622 77.8952637,63.6332432 L77.8952637,63.6332432 Z M81.1804725,39.4890811 C81.1762088,39.5048919 81.1708791,39.5207027 81.1655495,39.5365135 C81.1644835,39.5407297 81.1655495,39.5438919 81.1644835,39.5481081 C81.1623516,39.5523243 81.1602198,39.5575946 81.1591538,39.5618108 C79.4206154,45.9462162 72.7723846,49.7671622 66.2979011,48.0859459 L66.2382088,48.0701351 L66.2371429,48.0701351 C66.235011,48.0701351 66.2339451,48.0690811 66.2328791,48.0690811 C64.2417143,47.541 62.4584066,46.5428108 61.0023407,45.1735946 L60.2732418,42.4815405 C61.2581648,43.9350811 62.5916484,45.1641081 64.2001429,46.0168378 C64.0551758,45.7533243 63.9166044,45.4855946 63.7876264,45.2147027 C63.0958352,43.7569459 62.646011,42.2296216 62.4402857,40.677 C61.5981978,40.7813514 60.7593077,40.9626486 59.930011,41.2145676 L59.623022,40.0782973 C60.5173407,39.8095135 61.4223187,39.6155676 62.3326264,39.5059459 C62.258011,38.0914054 62.3859231,36.6673784 62.7152967,35.2675946 L58.6274396,34.1850811 C58.522978,34.6741622 58.457956,35.1632432 58.4227802,35.6502162 L57.7107363,33.0235135 C59.5622637,26.8077568 66.1028352,23.1143514 72.4845824,24.7702703 L72.6018352,24.8018919 C75.7228901,25.6451351 78.3290989,27.6351892 79.9461209,30.4020811 C81.5631429,33.1710811 82.0001758,36.3975405 81.1804725,39.4890811 L81.1804725,39.4890811 Z" id="Shape" fill="#FFFFFF"></path>
                        <path d="M34.1493297,42.3318649 C34.1503956,42.3308108 34.1514615,42.3308108 34.1525275,42.3308108 L34.1546593,42.3308108 L34.2111538,42.3139459 C40.6696484,40.5684324 44.4952857,33.9711081 42.7738022,27.5845946 C42.7727363,27.5803784 42.7716703,27.5740541 42.7706044,27.5698378 C42.7695385,27.5666757 42.7684725,27.5635135 42.7674066,27.5592973 C42.7631429,27.5424324 42.7599451,27.5266216 42.7546154,27.5108108 C41.9029341,24.4277027 39.8915165,21.8494865 37.0923736,20.2525946 C34.2921648,18.6546486 31.0293407,18.2203784 27.9008242,19.0330541 L27.7814396,19.0646757 C21.3229451,20.8112432 17.4983736,27.4085676 19.2209231,33.7971892 C19.221989,33.8014054 19.2230549,33.8056216 19.2241209,33.8098378 C19.2251868,33.813 19.2262527,33.8161622 19.2273187,33.8193243 C19.2315824,33.8361892 19.2358462,33.8530541 19.2401099,33.8688649 C20.0960549,36.9646216 22.1170659,39.5481081 24.9300659,41.1439459 C27.7441319,42.7387297 31.0186813,43.1603514 34.1493297,42.3318649 L34.1493297,42.3318649 Z M24.9759011,39.7778919 C25.6346484,39.0432162 26.3552198,38.3833784 27.128022,37.8057568 C28.0905604,39.0484865 29.2524286,40.1489189 30.5891099,41.0680541 C30.8374725,41.2388108 31.0922308,41.4021892 31.3501868,41.5592432 C29.0573626,41.6309189 26.837022,40.9826757 24.9759011,39.7778919 L24.9759011,39.7778919 Z M30.5773846,31.4097568 L31.3757692,34.3547838 C29.9879231,34.7774595 28.6587033,35.3856486 27.4254176,36.1677568 C26.7155055,35.0778649 26.1654835,33.9025946 25.786011,32.6788378 L30.5773846,31.4097568 L30.5773846,31.4097568 Z M25.4843516,31.5415135 C25.2082747,30.2882432 25.1016813,29.0001892 25.1741648,27.7131892 C26.6249011,27.7774865 28.0703077,27.6446757 29.4709451,27.3284595 L30.2693297,30.2734865 L25.4843516,31.5415135 L25.4843516,31.5415135 Z M31.4184066,29.9688649 L30.620022,27.0248919 C31.994011,26.6064324 33.3136374,26.0045676 34.5383956,25.2308919 C35.2557692,26.3144595 35.8121868,27.4844595 36.2023187,28.7008378 L31.4184066,29.9688649 L31.4184066,29.9688649 Z M36.5157033,29.8360541 C36.8035055,31.0882703 36.9186264,32.3794865 36.8568022,33.6685946 C35.3943407,33.6000811 33.9350769,33.7307838 32.5227143,34.0501622 L31.7243297,31.1051351 L36.5157033,29.8360541 L36.5157033,29.8360541 Z M31.267044,40.1046486 C30.0348242,39.2571892 28.9795495,38.2495135 28.1097473,37.1311622 C29.2268462,36.4270541 30.4302857,35.8778919 31.6838242,35.4921081 L33.2411538,41.2409189 C32.5546923,40.9141622 31.8906154,40.5336486 31.267044,40.1046486 L31.267044,40.1046486 Z M32.8318352,35.1874865 C34.110956,34.9018378 35.4295165,34.7837838 36.7512747,34.8407027 C36.4677363,36.9646216 35.6917363,39.0527027 34.3891648,40.9352432 L32.8318352,35.1874865 L32.8318352,35.1874865 Z M36.1895275,40.2785676 C37.1136923,38.6078919 37.7052857,36.8022973 37.9461868,34.9397838 C38.9087253,35.0588919 39.8701978,35.2728649 40.8124835,35.5859189 C39.8115714,37.5464595 38.2158681,39.2065946 36.1895275,40.2785676 L36.1895275,40.2785676 Z M41.2932198,34.5034054 C40.2272857,34.1429189 39.1432308,33.8983784 38.0517143,33.7666216 C38.1114066,32.6103243 38.0367912,31.4371622 37.8257363,30.2703243 C37.780967,30.0205135 37.7298022,29.7738649 37.6722418,29.5293243 L41.757967,28.4468108 C42.2045934,30.5327838 42.0084615,32.624027 41.2932198,34.5034054 L41.2932198,34.5034054 Z M37.9792308,22.3016757 C39.5525495,23.576027 40.7837033,25.2878108 41.450978,27.3105405 L37.360989,28.3941081 C36.9292857,27.0259459 36.3089121,25.7368378 35.5222527,24.5562973 C36.408044,23.9006757 37.232011,23.145973 37.9792308,22.3016757 L37.9792308,22.3016757 Z M37.0177582,21.6049459 C36.3504835,22.3501622 35.6171209,23.0163243 34.8315275,23.6002703 C33.8828462,22.3933784 32.7433626,21.3214054 31.4386593,20.4233514 C31.1327363,20.2135946 30.8172198,20.0133243 30.4963736,19.8257027 C32.8392967,19.7234595 35.1150659,20.3748649 37.0177582,21.6049459 L37.0177582,21.6049459 Z M30.7575275,21.3888649 C31.9577692,22.2131351 32.9895934,23.1902432 33.8455385,24.2727568 C32.7390989,24.9652703 31.5505824,25.506 30.311967,25.8875676 L28.7855495,20.2525946 C29.4709451,20.5782973 30.133956,20.9598649 30.7575275,21.3888649 L30.7575275,21.3888649 Z M29.163956,26.1921892 C27.8986923,26.4746757 26.5971868,26.5937838 25.2892857,26.5421351 C25.5834835,24.4561622 26.3562857,22.4081351 27.6364725,20.5582703 L29.163956,26.1921892 L29.163956,26.1921892 Z M25.9373736,21.0304865 C24.9737692,22.7211892 24.3523297,24.5541892 24.0933077,26.4451622 C23.1147802,26.3271081 22.1394505,26.111027 21.1811758,25.7948108 C22.2044725,23.7878919 23.8502747,22.1003514 25.9373736,21.0304865 L25.9373736,21.0304865 Z M20.7015055,26.8752162 C21.7791648,27.2399189 22.8770769,27.4855135 23.9781868,27.6172703 C23.9089011,28.8094054 23.9803187,30.0184054 24.1999011,31.2231892 C24.2382747,31.4318919 24.283044,31.6416486 24.3278132,31.8482432 L20.2356923,32.9328649 C19.7890659,30.8468919 19.9862637,28.7567027 20.7015055,26.8752162 L20.7015055,26.8752162 Z M24.0122967,39.0811622 C22.440044,37.8068108 21.2120879,36.095027 20.5426813,34.0680811 L24.6294725,32.9855676 C25.0515824,34.3600541 25.6612967,35.6575946 26.4394286,36.8455135 C25.5653626,37.4958649 24.7520549,38.2442432 24.0122967,39.0811622 L24.0122967,39.0811622 Z" id="Shape" fill="#FFFFFF"></path>
                        <path d="M49.9859121,48.8269459 L24.8725055,55.4811892 C23.9440769,55.7267838 23.392989,56.6712162 23.6413516,57.5903514 C23.8492088,58.3587568 24.5527253,58.8668108 25.3223297,58.8668108 C25.4715604,58.8668108 25.6229231,58.8467838 25.7742857,58.8067297 L50.8876923,52.1524865 C51.8171868,51.9068919 52.3682747,50.9624595 52.1188462,50.0443784 C51.8704835,49.1252432 50.9164725,48.5792432 49.9859121,48.8269459 L49.9859121,48.8269459 Z" id="Shape" fill="#FFFFFF"></path>
                    </g>
                </g>
            </g>
        </g>
    </g>
</svg>