<?xml version="1.0" encoding="UTF-8" standalone="no"?>
<svg width="262px" height="204px" viewBox="0 0 262 204" version="1.1" xmlns="http://www.w3.org/2000/svg" xmlns:xlink="http://www.w3.org/1999/xlink" xmlns:sketch="http://www.bohemiancoding.com/sketch/ns">
    <!-- Generator: Sketch 3.3.3 (12081) - http://www.bohemiancoding.com/sketch -->
    <title>profile</title>
    <desc>Created with Sketch.</desc>
    <defs></defs>
    <g id="SIGN-IN" stroke="none" stroke-width="1" fill="none" fill-rule="evenodd" sketch:type="MSPage">
        <g id="Ocean-Profile-Set-Up-08" sketch:type="MSArtboardGroup" transform="translate(-1108.000000, -309.000000)">
            <g id="profile" sketch:type="MSLayerGroup" transform="translate(1108.000000, 309.000000)">
                <g id="Upload-Profile-Photo-+-noun_54985_cc-+-Oval-255-Copy" transform="translate(63.000000, 27.000000)">
                    <text id="Upload-Profile-Photo" sketch:type="MSTextLayer" font-family="Gotham" font-size="14" font-weight="260" sketch:alignment="middle" fill="#FFFFFF">
                        <tspan x="0.988" y="11">Upload Profile Photo</tspan>
                    </text>
                    <g id="noun_54985_cc-+-Oval-255-Copy" transform="translate(18.000000, 42.000000)" sketch:type="MSShapeGroup">
                        <g id="noun_54985_cc" transform="translate(15.384615, 20.879121)" fill="#FFFFFF">
                            <path d="M34.0659341,2.35012512 C43.0941988,2.35012512 50.4389727,9.61279513 50.4389727,18.5401371 C50.4389727,27.4674791 43.0941988,34.7301491 34.0659341,34.7301491 C25.0376693,34.7301491 17.6928955,27.4674791 17.6928955,18.5401371 C17.6928955,9.61279513 25.0376693,2.35012512 34.0659341,2.35012512 L34.0659341,2.35012512 Z M34.0659341,0 C23.7106823,0 15.3162024,8.30064193 15.3162024,18.5401371 C15.3162024,28.7796322 23.7106823,37.0802742 34.0659341,37.0802742 C44.4211858,37.0802742 52.8156657,28.7796322 52.8156657,18.5401371 C52.8156657,8.30064193 44.4211858,0 34.0659341,0 L34.0659341,0 L34.0659341,0 Z" id="Shape"></path>
                            <path d="M16.2787631,35.4312697 C20.9339126,40.187923 27.3177102,42.8835165 34.0659341,42.8835165 C40.8133657,42.8835165 47.1963711,40.1894897 51.853105,35.4320531 C59.986941,39.8369709 65.0984155,51.5257099 65.0984155,58.2431509 C65.0984155,68.6910238 52.3371582,75.987379 34.0659341,75.987379 C15.7947099,75.987379 3.03345259,68.6910238 3.03345259,58.2439343 C3.03345259,51.5257099 8.14492717,39.8377543 16.2787631,35.4312697 L16.2787631,35.4312697 Z M16.8562995,32.5523664 C7.15067723,36.545229 0.65675952,49.9401589 0.65675952,58.2439343 C0.65675952,70.8468719 15.6140813,78.3375041 34.0659341,78.3375041 C52.5169946,78.3375041 67.4751086,70.8468719 67.4751086,58.2439343 C67.4751086,49.9401589 60.9827754,36.545229 51.2763608,32.5539332 C47.168643,37.4288761 40.9844876,40.5333914 34.0659341,40.5333914 C27.1473805,40.5333914 20.9624329,37.4288761 16.8562995,32.5523664 L16.8562995,32.5523664 L16.8562995,32.5523664 Z" id="Shape"></path>
                        </g>
                        <circle id="Oval-255-Copy" stroke="#FFFFFF" stroke-width="3" cx="49.5644782" cy="49.8438142" r="49.4505495"></circle>
                    </g>
                </g>
                <rect id="Rectangle-64-Copy-2" stroke="#FFFFFF" sketch:type="MSShapeGroup" x="0" y="0" width="262" height="204" rx="10"></rect>
            </g>
        </g>
    </g>
</svg>