<?xml version="1.0" encoding="UTF-8" standalone="no"?>
<svg width="262px" height="204px" viewBox="0 0 262 204" version="1.1" xmlns="http://www.w3.org/2000/svg" xmlns:xlink="http://www.w3.org/1999/xlink" xmlns:sketch="http://www.bohemiancoding.com/sketch/ns">
    <!-- Generator: Sketch 3.3.3 (12081) - http://www.bohemiancoding.com/sketch -->
    <title>security</title>
    <desc>Created with Sketch.</desc>
    <defs></defs>
    <g id="SIGN-IN" stroke="none" stroke-width="1" fill="none" fill-rule="evenodd" sketch:type="MSPage">
        <g id="Ocean-Profile-Set-Up-08" sketch:type="MSArtboardGroup" transform="translate(-709.000000, -309.000000)">
            <g id="security" sketch:type="MSLayerGroup" transform="translate(709.000000, 309.000000)">
                <g id="Upload-Security-Phot-Copy-+-noun_177763_cc-+-Rectangle-63" transform="translate(56.000000, 27.000000)">
                    <text id="Upload-Security-Phot-Copy" sketch:type="MSTextLayer" font-family="Gotham" font-size="14" font-weight="260" sketch:alignment="middle" fill="#FFFFFF">
                        <tspan x="0.562" y="11">Upload Security Photo</tspan>
                    </text>
                    <g id="noun_177763_cc-+-Rectangle-63" transform="translate(19.000000, 50.000000)" sketch:type="MSShapeGroup">
                        <g id="noun_177763_cc" transform="translate(0.000000, 8.831169)" fill="#FFFFFF">
                            <g id="Group">
                                <path d="M100.7325,1.08812616 L10.2675,1.08812616 C4.57875,1.08812616 0,5.57664657 0,11.1532931 L0,65.015538 C0,70.5921846 4.57875,75.080705 10.2675,75.080705 L100.7325,75.080705 C106.42125,75.080705 111,70.5921846 111,65.015538 L111,11.1532931 C111,5.57664657 106.2825,1.08812616 100.7325,1.08812616 L100.7325,1.08812616 Z M108.91875,65.015538 C108.91875,69.3680427 105.31125,73.0404685 100.7325,73.0404685 L10.2675,73.0404685 C5.8275,73.0404685 2.08125,69.5040584 2.08125,65.015538 L2.08125,11.1532931 C2.08125,6.8007885 5.68875,3.12836271 10.2675,3.12836271 L100.7325,3.12836271 C105.1725,3.12836271 108.91875,6.66477273 108.91875,11.1532931 L108.91875,65.015538 L108.91875,65.015538 Z" id="Shape"></path>
                                <path d="M96.98625,14.8257189 L62.4375,14.8257189 C61.8825,14.8257189 61.46625,15.2337662 61.46625,15.7778293 C61.46625,16.3218924 61.8825,16.7299397 62.4375,16.7299397 L96.98625,16.7299397 C97.54125,16.7299397 97.9575,16.3218924 97.9575,15.7778293 C97.9575,15.2337662 97.54125,14.8257189 96.98625,14.8257189 L96.98625,14.8257189 Z" id="Shape"></path>
                                <path d="M96.98625,21.898539 L62.4375,21.898539 C61.8825,21.898539 61.46625,22.3065863 61.46625,22.8506494 C61.46625,23.3947124 61.8825,23.8027597 62.4375,23.8027597 L96.98625,23.8027597 C97.54125,23.8027597 97.9575,23.3947124 97.9575,22.8506494 C97.9575,22.442602 97.54125,21.898539 96.98625,21.898539 L96.98625,21.898539 Z" id="Shape"></path>
                                <path d="M96.98625,29.1073748 L62.4375,29.1073748 C61.8825,29.1073748 61.46625,29.5154221 61.46625,30.0594852 C61.46625,30.6035482 61.8825,31.0115955 62.4375,31.0115955 L96.98625,31.0115955 C97.54125,31.0115955 97.9575,30.6035482 97.9575,30.0594852 C97.9575,29.5154221 97.54125,29.1073748 96.98625,29.1073748 L96.98625,29.1073748 Z" id="Shape"></path>
                                <path d="M82.695,37.1323052 L62.4375,37.1323052 C61.8825,37.1323052 61.46625,37.5403525 61.46625,38.0844156 C61.46625,38.6284787 61.8825,39.036526 62.4375,39.036526 L82.55625,39.036526 C83.11125,39.036526 83.5275,38.6284787 83.5275,38.0844156 C83.66625,37.5403525 83.25,37.1323052 82.695,37.1323052 L82.695,37.1323052 Z" id="Shape"></path>
                                <path d="M52.86375,14.8257189 L13.18125,14.8257189 C12.62625,14.8257189 12.21,15.2337662 12.21,15.7778293 L12.21,60.2549861 C12.21,60.2549861 12.21,60.2549861 12.21,60.3910019 C12.21,60.3910019 12.21,60.3910019 12.21,60.5270176 L12.21,60.6630334 C12.21,60.6630334 12.21,60.6630334 12.21,60.7990492 L12.21,60.9350649 C12.21,60.9350649 12.21,60.9350649 12.21,61.0710807 C12.21,61.0710807 12.21,61.0710807 12.34875,61.2070965 L12.34875,61.2070965 C12.34875,61.2070965 12.34875,61.2070965 12.4875,61.3431122 L12.4875,61.3431122 C12.4875,61.3431122 12.62625,61.3431122 12.62625,61.479128 L12.62625,61.479128 L12.765,61.479128 L12.765,61.479128 L13.0425,61.479128 L52.725,61.479128 L53.0025,61.479128 L53.0025,61.479128 L53.14125,61.479128 L53.14125,61.479128 C53.14125,61.479128 53.28,61.479128 53.28,61.3431122 L53.28,61.3431122 C53.28,61.3431122 53.28,61.3431122 53.41875,61.2070965 L53.41875,61.2070965 C53.41875,61.2070965 53.41875,61.2070965 53.5575,61.0710807 C53.5575,61.0710807 53.5575,61.0710807 53.5575,60.9350649 C53.5575,60.9350649 53.5575,60.9350649 53.5575,60.7990492 C53.5575,60.7990492 53.5575,60.7990492 53.5575,60.6630334 L53.5575,60.5270176 C53.5575,60.5270176 53.5575,60.5270176 53.5575,60.3910019 C53.5575,60.3910019 53.5575,60.3910019 53.5575,60.2549861 L53.5575,15.9138451 C53.835,15.2337662 53.41875,14.8257189 52.86375,14.8257189 L52.86375,14.8257189 Z M51.75375,16.8659555 L51.75375,53.3181818 C49.95,49.7817718 46.75875,45.7012987 40.65375,43.7970779 C40.7925,43.5250464 41.07,43.3890306 41.20875,43.1169991 C43.15125,40.2606679 44.4,36.4522263 44.4,33.4598794 C44.4,27.203154 39.26625,22.1705705 32.88375,22.1705705 C26.50125,22.1705705 21.3675,27.203154 21.3675,33.4598794 C21.3675,36.4522263 22.61625,40.1246521 24.55875,43.1169991 C24.6975,43.3890306 24.975,43.6610622 25.11375,43.7970779 C19.1475,45.7012987 15.8175,49.7817718 14.01375,53.3181818 L14.01375,16.8659555 L51.75375,16.8659555 L51.75375,16.8659555 Z M23.44875,33.4598794 C23.44875,28.2912801 27.75,24.2108071 32.88375,24.2108071 C38.15625,24.2108071 42.31875,28.4272959 42.31875,33.4598794 C42.31875,36.044179 41.20875,39.3085575 39.405,42.0288729 C37.4625,44.7491883 35.10375,46.3813776 32.88375,46.3813776 C27.75,46.2453618 23.44875,38.4924629 23.44875,33.4598794 L23.44875,33.4598794 Z M14.29125,59.3028757 C14.84625,56.3105288 17.06625,48.0135668 26.64,45.4292672 C28.5825,47.3334879 30.66375,48.2855983 32.88375,48.2855983 C35.10375,48.2855983 37.185,47.3334879 39.1275,45.4292672 C48.70125,48.0135668 51.06,56.3105288 51.47625,59.3028757 L14.29125,59.3028757 L14.29125,59.3028757 Z" id="Shape"></path>
                            </g>
                        </g>
                        <rect id="Rectangle-63" stroke="#FFFFFF" stroke-width="2" x="46.62" y="0" width="17.76" height="17.6623377" rx="3"></rect>
                    </g>
                </g>
                <rect id="Rectangle-64-Copy" stroke="#FFFFFF" sketch:type="MSShapeGroup" x="0" y="0" width="262" height="204" rx="10"></rect>
            </g>
        </g>
    </g>
</svg>