<?xml version="1.0" encoding="UTF-8" standalone="no"?>
<svg width="163px" height="162px" viewBox="0 0 163 162" version="1.1" xmlns="http://www.w3.org/2000/svg" xmlns:xlink="http://www.w3.org/1999/xlink" xmlns:sketch="http://www.bohemiancoding.com/sketch/ns">
    <!-- Generator: Sketch 3.3.3 (12081) - http://www.bohemiancoding.com/sketch -->
    <title>dietary</title>
    <desc>Created with Sketch.</desc>
    <defs></defs>
    <g id="Page-1" stroke="none" stroke-width="1" fill="none" fill-rule="evenodd" sketch:type="MSPage">
        <g id="Ocean-Profile-Set-Up-08-Copy-2" sketch:type="MSArtboardGroup" transform="translate(-758.000000, -302.000000)" fill="#FFFFFF">
            <g id="dietary" sketch:type="MSLayerGroup" transform="translate(758.000000, 302.000000)">
                <path d="M81.9165039,162 C126.651569,162 162.916504,125.735065 162.916504,81 C162.916504,36.2649353 126.651569,0 81.9165039,0 C37.1814392,0 0.916503906,36.2649353 0.916503906,81 C0.916503906,125.735065 37.1814392,162 81.9165039,162 Z" id="Oval-95" fill-opacity="0.15" sketch:type="MSShapeGroup"></path>
                <g id="Shape-+-Shape-+-Shape" transform="translate(43.000000, 35.000000)" sketch:type="MSShapeGroup">
                    <path d="M60.8370769,3.75534 L60.8333333,86.55417 C60.8333333,89.67339 63.3771026,92.20299 66.5179744,92.20299 C69.6588462,92.20299 72.2026154,89.67339 72.2026154,86.55417 L69.0533205,53.02209 C69.0533205,51.54618 69.6214103,50.2014 70.5554359,49.19328 C71.5325128,48.14052 72.1941923,46.77342 72.1941923,45.2259 L72.1941923,21.98985 C72.1941923,21.98985 72.7098718,0 64.6134231,0 C62.5282436,-1.78107529e-15 60.8370769,1.68237 60.8370769,3.75534 L60.8370769,3.75534 Z" id="Shape"></path>
                    <path d="M51.0157692,28.39662 L48.5056923,0.74865 C48.4607692,0.32922 48.1051282,0 47.6699359,0 C47.2047949,0 46.8304359,0.37386 46.8304359,0.837 L47.0382051,26.67984 C47.0382051,27.31503 46.5197179,27.83025 45.8805,27.83025 C45.2412821,27.83025 44.7227949,27.31503 44.7227949,26.67984 L44.3007051,0.837 C44.3007051,0.37386 43.9226026,0 43.4574615,0 C42.9932564,0 42.6170256,0.37386 42.6170256,0.837 L42.6170256,26.67984 C42.6170256,27.31503 42.0976026,27.83025 41.4583846,27.83025 C40.8191667,27.83025 40.3006795,27.31503 40.3006795,26.67984 L40.3006795,0.837 C40.3006795,0.37386 39.9244487,0 39.4574359,0 C38.9932308,0 38.617,0.37386 38.617,0.837 L38.1958462,26.67984 C38.1958462,27.31503 37.677359,27.83025 37.038141,27.83025 C36.3989231,27.83025 35.8795,27.31503 35.8795,26.67984 L36.0882051,0.837 C36.0882051,0.37386 35.7110385,0 35.2449615,0 C34.811641,0 34.4550641,0.32922 34.410141,0.74865 L31.9019359,28.39662 C31.8485897,28.80489 31.8205128,29.22432 31.8205128,29.64933 C31.8205128,31.51677 32.3614615,33.25959 33.2926795,34.73364 L33.2936154,34.73736 L37.0315897,40.67541 C37.8355256,42.06483 38.2931795,43.67466 38.2931795,45.3933 L35.7718718,86.74203 C35.7718718,89.86125 38.3165769,92.39085 41.4574487,92.39085 C44.5964487,92.39085 47.1430256,89.86125 47.1430256,86.74203 L44.6151667,45.3933 C44.6151667,43.67466 45.0803077,42.06483 45.8823718,40.67541 L49.6222179,34.73736 L49.6222179,34.73364 C50.5525,33.25959 51.0943846,31.51677 51.0943846,29.64933 C51.0953205,29.22339 51.0644359,28.80489 51.0157692,28.39662 L51.0157692,28.39662 Z" id="Shape"></path>
                    <path d="M18.2050769,2.41428 C16.7160641,0.92256 14.6514744,0 12.3706923,0 C10.0899103,0 8.02625641,0.92349 6.53630769,2.41428 C2.49603846,6.47652 0,12.05745 0,18.21777 C0,21.86802 0.572769231,25.48572 2.42865385,28.36035 C3.33366667,29.76372 4.04026923,30.53841 4.98833333,31.6572 C7.64066667,34.78572 9.33276923,39.29901 9.00707692,44.44005 L6.68511538,86.5923 C6.68511538,89.71617 9.23169231,92.24484 12.3706923,92.24484 L12.3706923,92.24484 C15.5115641,92.24484 18.0572051,89.71617 18.0572051,86.5923 L15.7352436,44.44098 C15.4086154,39.29994 17.1007179,34.78665 19.7549231,31.65813 C20.7029872,30.53934 21.4086538,29.76465 22.3136667,28.36128 C24.1695513,25.48665 24.7423205,21.86895 24.7423205,18.2187 C24.7423205,12.05745 22.2453462,6.47652 18.2050769,2.41428 L18.2050769,2.41428 Z" id="Shape"></path>
                </g>
            </g>
        </g>
    </g>
</svg>