<?xml version="1.0" encoding="UTF-8" standalone="no"?>
<svg width="101px" height="44px" viewBox="0 0 101 44" version="1.1" xmlns="http://www.w3.org/2000/svg" xmlns:xlink="http://www.w3.org/1999/xlink" xmlns:sketch="http://www.bohemiancoding.com/sketch/ns">
    <!-- Generator: Sketch 3.3.3 (12081) - http://www.bohemiancoding.com/sketch -->
    <title>princessLogo Copy</title>
    <desc>Created with Sketch.</desc>
    <defs></defs>
    <g id="iPhone-6" stroke="none" stroke-width="1" fill="none" fill-rule="evenodd" sketch:type="MSPage">
        <path d="M11.1546095,4.35481746 L11.2066907,4.09770063 C11.2066907,4.09770063 17.6962867,0.453293355 23.9021771,0.870308719 C24.3942077,0.903567613 24.8834972,0.948339201 25.3673045,1.0033443 C27.2285233,1.13765906 29.0308082,1.48176069 30.7467478,2.01006543 C34.107358,2.88758856 36.996496,4.09897982 39.0304053,5.14663498 C42.3498988,6.85818883 49.4535052,11.0948603 54.4903088,9.82718472 C59.5257419,8.56078837 65.7905663,3.67556851 68.8112779,3.03341602 C71.830619,2.39126353 75.4379298,2.5025529 79.1384386,4.01071583 C82.8375769,5.51759957 87.5317409,8.30111316 92.4451942,8.34460556 C97.357277,8.38681877 99.1554502,7.24706206 100.582202,6.35546786 C99.7667194,8.81662602 97.6779878,11.0974186 95.679713,12.8294395 C93.6828088,14.5627396 89.5999141,16.9433089 84.2643286,16.8064357 C78.9287431,16.6708418 73.7055435,13.9794297 69.7514813,12.1617032 C65.7974191,10.3426976 63.9923931,10.0420883 60.8908185,10.1943117 C57.7906145,10.3478143 52.2905619,14.0114094 50.510206,15.4581713 C48.7284795,16.903654 43.0776655,17.7479183 40.8806597,17.4370755 C38.7631464,17.1364663 38.1313187,16.9369129 36.984161,16.5864153 C36.8717752,16.536527 36.751166,16.5007097 36.6223335,16.4802427 C35.7273586,16.345928 33.2740583,15.252222 30.6645143,14.4655212 C28.0535997,13.6788205 25.9429392,13.5649727 23.4361871,13.9103536 C20.9308056,14.2570136 18.7913632,16.7910855 17.2878602,18.6331165 C15.7843572,20.4764268 13.2474528,27.4057894 12.6211074,28.5519421 C12.1153712,29.4793535 9.1672992,35.5977108 7.97765414,38.1432954 C3.53978468,34.3095683 0.706839602,28.8666224 0.586230426,22.7994326 C0.432727838,15.1038362 4.67871906,8.25762076 11.1546095,4.35481746 L11.1546095,4.35481746 Z M37.9682222,17.6877964 C38.3026386,17.7133802 38.7288824,17.8285071 39.2880704,18.1163245 C41.1821827,19.0923451 48.1254337,23.5656663 52.8908667,22.8825798 C57.6576703,22.1982141 62.6944739,17.9129335 66.1482821,16.3702325 C69.6007198,14.8262523 75.6969654,15.4722424 79.3974743,16.9791261 C83.0966125,18.4872891 87.6345328,21.8515541 92.5466156,21.8950465 C97.4586984,21.9372597 99.7351966,20.3433912 100.462963,20.1208124 C100.031237,21.0750868 98.0507798,23.9929152 95.9387487,25.799129 C93.8267175,27.6053428 89.8589497,29.9129983 84.5233642,29.7761252 C79.1877788,29.6405312 73.9645791,26.9491192 70.0105169,25.1313927 C66.0564547,23.3123871 64.2514287,23.0117778 61.1498541,23.1640012 C58.0496501,23.3175038 52.4276178,26.4566317 50.2511704,27.9097896 C48.0760935,29.3629474 43.9424881,30.5781762 39.9089335,30.8480849 C39.4635019,30.8787855 39.0262937,30.8608768 38.5986793,30.8084301 C38.5986793,30.8608768 38.5986793,30.9133235 38.5973087,30.9657703 C38.9344662,31.1256688 39.255177,31.2855673 39.5553294,31.4403491 C42.8748228,33.1519029 47.468936,35.8535485 53.073151,34.8391522 C58.6787366,33.8260351 62.8315298,30.3978107 66.2880791,29.0636174 C69.745999,27.7307032 75.9628539,28.7949878 79.6633627,30.3031508 C83.3625009,31.8100345 88.4034163,35.0092843 92.8097629,35.0604518 C97.2147389,35.1116193 98.8265161,34.1087357 100.050425,33.2977304 C99.5255011,35.25233 97.3682415,37.7544222 95.2562104,39.5593568 C93.1441792,41.3655706 90.1330615,43.6565967 84.797476,43.5197236 C79.4618905,43.3828504 74.2304675,40.2718646 70.2764053,38.4541382 C66.3223431,36.6351325 64.6091446,35.2817514 60.7222398,35.5529393 C56.8339644,35.8241272 52.3810188,38.2609807 49.2945203,39.2561892 C46.2093924,40.2526768 41.7523351,42.2622815 37.052689,42.9121092 C33.0876623,43.4596017 27.6109092,43.7423023 24.9602485,43.8228912 C24.6436494,43.8407998 24.3256797,43.8535917 24.0063395,43.8587084 C22.526136,43.8842922 21.0760848,43.7755612 19.6685209,43.5491449 C19.8220235,43.2242311 19.9768966,42.8673376 20.1166936,42.496373 C20.6539527,41.0496111 21.7449175,38.8353363 23.2484205,36.9178331 C24.7491824,35.0003299 25.4824314,35.1384823 26.940706,35.1128985 C28.4003511,35.0873147 31.2456312,35.2293046 33.0835506,35.2753554 C34.92147,35.3226854 34.8214192,34.0857104 34.7501501,33.5241467 C34.6788811,32.9625831 34.2403023,32.7348876 34.6473582,32.1119229 C34.9187289,31.6949075 35.4450235,31.64374 35.5450743,30.99775 C35.6437545,30.3504807 34.0251245,30.4003691 34.0210128,29.9411405 C34.0169012,29.4793535 36.1878663,29.9360237 36.3975618,29.3744601 C36.6086279,28.8128965 36.0658866,28.4380943 36.0425871,27.9366525 C36.0192876,27.4352107 36.0782216,26.7009567 36.7182726,26.6702562 C37.3583236,26.6382765 38.7220296,26.8608552 38.6302022,25.9347229 L37.6310648,18.2800606 L37.9682222,17.6877964 L37.9682222,17.6877964 Z" id="princessLogo-Copy" opacity="1.00" fill="#FFFFFF" sketch:type="MSShapeGroup"></path>
    </g>
</svg>